{"_v":2,"glyphs":{"0":{"ha":501,"x_min":34,"x_max":465,"o":"m 249 -10 l 249 -10 q 178 -10 130 31 q 82 71 58 152 q 34 233 34 357 l 34 357 q 34 478 55 560 q 76 641 124 683 q 171 725 248 725 l 248 725 q 322 725 370 683 q 417 641 441 558 q 465 475 465 356 l 465 356 q 465 275 455 208 q 445 141 421 92 q 396 43 355 17 q 313 -10 249 -10 z m 249 111 l 249 111 q 268 111 283 124 q 298 136 308 165 q 317 194 322 241 q 326 288 326 356 l 326 356 q 326 426 322 474 q 317 521 308 550 q 298 578 284 591 q 269 604 249 604 l 249 604 q 230 604 216 591 q 201 577 192 549 q 183 520 178 473 q 173 425 173 357 l 173 357 q 173 290 178 243 q 182 196 191 168 q 199 139 214 125 q 229 111 249 111 z"},"1":{"ha":501,"x_min":50,"x_max":372,"o":"m 372 714 l 372 0 l 232 0 l 232 417 q 232 438 234 477 q 236 516 236 548 l 236 548 q 234 545 220 529 q 205 513 192 502 l 192 502 l 125 439 l 50 516 l 259 714 l 372 714 z"},"2":{"ha":501,"x_min":33,"x_max":468,"o":"m 468 0 l 33 0 l 33 97 l 188 288 q 237 347 264 386 q 290 425 302 456 q 313 487 313 521 l 313 521 q 313 549 304 566 q 295 583 279 592 q 263 600 240 600 l 240 600 q 206 600 172 586 q 138 572 103 545 l 103 545 l 35 645 q 61 664 92 682 q 123 700 162 712 q 200 724 248 724 l 248 724 q 310 724 356 699 q 402 674 428 632 q 453 589 453 534 l 453 534 q 453 482 435 437 q 417 391 381 343 q 345 295 290 232 l 290 232 l 203 129 l 203 123 l 468 123 l 468 0 z"},"3":{"ha":501,"x_min":34,"x_max":462,"o":"m 215 -10 l 215 -10 q 165 -10 119 -2 q 73 6 34 22 l 34 22 l 34 148 q 75 129 116 120 q 157 110 195 110 l 195 110 q 262 110 289 138 q 316 165 316 216 l 316 216 q 316 247 302 268 q 288 288 256 299 q 223 309 168 309 l 168 309 l 123 309 l 123 425 l 171 425 q 226 425 256 437 q 285 449 296 471 q 307 493 307 521 l 307 521 q 307 560 288 582 q 269 603 220 603 l 220 603 q 181 603 151 589 q 121 574 101 561 l 101 561 l 34 663 q 77 690 123 707 q 169 724 234 724 l 234 724 q 302 724 349 704 q 396 684 421 647 q 445 609 445 556 l 445 556 q 445 511 427 476 q 409 440 379 415 q 348 389 307 376 l 307 376 l 307 373 q 384 361 423 318 q 462 274 462 204 l 462 204 q 462 144 437 95 q 411 46 357 18 q 302 -10 215 -10 z"},"4":{"ha":501,"x_min":16,"x_max":484,"o":"m 410 0 l 272 0 l 272 146 l 16 146 l 16 247 l 280 715 l 410 715 l 410 260 l 484 260 l 484 146 l 410 146 l 410 0 z m 238 461 l 132 260 l 272 260 l 272 415 q 272 435 273 465 q 274 494 276 518 q 277 541 277 540 l 277 540 l 274 540 q 266 518 257 498 q 248 477 238 461 l 238 461 z"},"5":{"ha":501,"x_min":45,"x_max":457,"o":"m 205 -10 l 205 -10 q 163 -10 119 -1 q 75 8 45 22 l 45 22 l 45 150 q 73 134 114 123 q 155 112 198 112 l 198 112 q 237 112 263 126 q 289 139 303 165 q 316 191 316 230 l 316 230 q 316 281 288 309 q 259 336 197 336 l 197 336 q 174 336 147 331 q 120 326 104 321 l 104 321 l 53 360 l 75 714 l 413 714 l 413 589 l 198 589 l 187 450 q 200 452 216 455 q 231 457 257 457 l 257 457 q 320 457 365 430 q 409 403 433 355 q 457 307 457 242 l 457 242 q 457 166 430 109 q 403 52 347 21 q 291 -10 205 -10 z"},"6":{"ha":501,"x_min":34,"x_max":470,"o":"m 259 -10 l 259 -10 q 212 -10 172 9 q 131 27 100 66 q 69 104 52 164 q 34 223 34 304 l 34 304 q 34 365 42 425 q 49 485 68 539 q 87 592 121 634 q 155 675 208 699 q 261 722 338 722 l 338 722 q 356 722 384 720 q 411 718 429 715 l 429 715 l 429 594 q 413 599 393 602 q 373 604 355 604 l 355 604 q 281 604 240 578 q 198 551 182 502 q 165 452 162 383 l 162 383 l 166 383 q 178 408 196 427 q 213 445 239 455 q 264 465 296 465 l 296 465 q 350 465 389 438 q 428 411 449 360 q 470 308 470 237 l 470 237 q 470 163 445 107 q 419 50 372 20 q 325 -10 259 -10 z m 256 110 l 256 110 q 288 110 311 139 q 333 168 333 236 l 333 236 q 333 289 315 319 q 296 349 257 349 l 257 349 q 232 349 213 335 q 193 321 183 298 q 172 275 172 252 l 172 252 q 172 226 177 201 q 182 176 192 156 q 202 135 218 123 q 233 110 256 110 z"},"7":{"ha":501,"x_min":24,"x_max":470,"o":"m 243 0 l 97 0 l 327 589 l 24 589 l 24 713 l 470 713 l 470 618 l 243 0 z"},"8":{"ha":501,"x_min":31,"x_max":469,"o":"m 249 -9 l 249 -9 q 181 -9 132 14 q 83 37 57 80 q 31 122 31 180 l 31 180 q 31 225 46 261 q 61 297 88 325 q 115 352 150 373 l 150 373 q 120 396 98 423 q 76 450 64 482 q 51 513 51 553 l 51 553 q 51 607 78 645 q 104 683 150 703 q 195 723 249 723 l 249 723 q 308 723 353 703 q 397 683 423 646 q 449 608 449 552 l 449 552 q 449 511 436 479 q 422 446 398 421 q 373 395 339 376 l 339 376 q 378 352 408 323 q 437 294 453 260 q 469 225 469 183 l 469 183 q 469 124 441 81 q 412 38 362 15 q 312 -9 249 -9 z m 249 100 l 249 100 q 296 100 318 124 q 339 147 339 187 l 339 187 q 339 212 326 232 q 313 252 294 270 q 275 287 256 302 l 256 302 l 245 309 q 219 294 200 276 q 181 257 171 236 q 160 214 160 187 l 160 187 q 160 149 183 125 q 205 100 249 100 z m 247 443 l 247 443 q 267 456 283 470 q 299 483 309 501 q 318 519 318 544 l 318 544 q 318 578 300 597 q 282 615 250 615 l 250 615 q 222 615 202 597 q 181 579 181 544 l 181 544 q 181 522 190 504 q 199 485 215 470 q 230 455 247 443 z"},"9":{"ha":501,"x_min":30,"x_max":466,"o":"m 161 -10 l 161 -10 q 141 -10 115 -8 q 88 -7 70 -3 l 70 -3 l 70 118 q 87 114 107 111 q 126 108 145 108 l 145 108 q 201 108 238 125 q 275 141 296 171 q 317 201 327 242 q 336 282 337 329 l 337 329 l 332 329 q 319 306 303 287 q 287 268 263 258 q 238 247 201 247 l 201 247 q 148 247 110 275 q 72 302 51 353 q 30 404 30 475 l 30 475 q 30 551 55 607 q 79 662 127 692 q 175 722 241 722 l 241 722 q 288 722 329 704 q 370 685 401 648 q 431 610 449 553 q 466 495 466 416 l 466 416 q 466 352 458 290 q 450 228 431 174 q 411 120 376 79 q 341 37 289 14 q 236 -10 161 -10 z m 241 363 l 241 363 q 271 363 290 379 q 308 395 318 418 q 328 441 328 462 l 328 462 q 328 480 324 504 q 320 528 311 551 q 301 573 285 588 q 269 602 245 602 l 245 602 q 212 602 190 573 q 167 544 167 474 l 167 474 q 167 419 187 391 q 206 363 241 363 z"},"\r":{"ha":247,"x_min":0,"x_max":0,"o":""}," ":{"ha":247,"x_min":0,"x_max":0,"o":""},"ഀ":{"ha":0,"x_min":-427,"x_max":-129,"o":"m -427 713 l -427 713 q -427 781 -388 823 q -349 864 -279 864 l -279 864 q -208 864 -168 822 q -129 780 -129 713 l -129 713 q -129 646 -168 604 q -207 562 -279 562 l -279 562 q -350 562 -388 604 q -427 646 -427 713 z m -332 713 l -332 713 q -332 685 -319 665 q -306 645 -279 645 l -279 645 q -250 645 -237 665 q -225 685 -225 714 l -225 714 q -225 743 -238 762 q -252 781 -279 781 l -279 781 q -307 781 -319 762 q -332 742 -332 713 z"},"ഁ":{"ha":0,"x_min":-450,"x_max":-106,"o":"m -278 637 l -278 637 q -360 637 -405 681 q -450 725 -450 805 l -450 805 q -450 824 -448 838 q -446 852 -443 864 l -443 864 l -356 851 q -358 841 -359 830 q -361 819 -361 810 l -361 810 q -361 777 -350 759 q -339 740 -320 732 q -302 724 -278 724 l -278 724 q -258 724 -239 731 q -220 738 -207 757 q -195 776 -195 812 l -195 812 q -195 818 -196 830 q -197 841 -200 851 l -200 851 l -113 863 q -110 851 -108 838 q -106 824 -106 807 l -106 807 q -106 725 -151 681 q -196 637 -278 637 z m -279 752 l -279 752 q -307 752 -319 767 q -331 782 -331 806 l -331 806 q -331 830 -319 846 q -307 861 -279 861 l -279 861 q -251 861 -238 846 q -226 830 -226 807 l -226 807 q -226 782 -238 767 q -251 752 -279 752 z"},"ം":{"ha":437,"x_min":29,"x_max":408,"o":"m 218 -12 l 218 -12 q 160 -12 117 12 q 74 36 52 80 q 29 123 29 180 l 29 180 q 29 239 53 283 q 77 326 120 349 q 162 372 218 372 l 218 372 q 275 372 318 349 q 360 326 384 283 q 408 240 408 180 l 408 180 q 408 122 384 78 q 360 34 318 11 q 275 -12 218 -12 z m 218 273 l 218 273 q 189 273 171 252 q 153 231 153 179 l 153 179 q 153 130 171 109 q 189 87 219 87 l 219 87 q 247 87 266 108 q 284 129 284 180 l 284 180 q 284 231 266 252 q 247 273 218 273 z"},"ഃ":{"ha":324,"x_min":28,"x_max":296,"o":"m 28 438 l 28 438 q 28 498 64 536 q 100 574 161 574 l 161 574 q 223 574 260 536 q 296 498 296 438 l 296 438 q 296 378 260 340 q 224 302 162 302 l 162 302 q 100 302 64 340 q 28 377 28 438 z m 120 439 l 120 439 q 120 413 131 399 q 141 384 161 384 l 161 384 q 183 384 194 399 q 204 413 204 439 l 204 439 q 204 464 194 478 q 183 492 161 492 l 161 492 q 141 492 131 478 q 120 464 120 439 z m 28 124 l 28 124 q 28 184 64 222 q 100 260 161 260 l 161 260 q 222 260 259 223 q 296 185 296 124 l 296 124 q 296 63 260 26 q 224 -12 162 -12 l 162 -12 q 100 -12 64 26 q 28 64 28 124 z m 120 124 l 120 124 q 120 99 131 85 q 141 70 161 70 l 161 70 q 183 70 194 85 q 204 99 204 124 l 204 124 q 204 149 194 164 q 183 178 161 178 l 161 178 q 141 178 131 164 q 120 149 120 124 z"},"ഄ":{"ha":569,"x_min":33,"x_max":536,"o":"m 50 340 l 50 340 l 174 317 q 168 295 165 271 q 162 247 162 225 l 162 225 q 162 161 191 128 q 220 94 284 94 l 284 94 q 350 94 379 127 q 408 160 408 225 l 408 225 q 408 246 405 271 q 402 295 396 317 l 396 317 l 518 340 q 525 318 531 287 q 536 255 536 223 l 536 223 q 536 153 513 102 q 489 50 434 21 q 378 -9 284 -9 l 284 -9 q 190 -9 135 21 q 80 50 57 102 q 33 153 33 223 l 33 223 q 33 255 38 287 q 43 318 50 340 z m 231 186 l 231 418 l 340 418 l 340 186 l 231 186 z"},"അ":{"ha":1395,"x_min":35,"x_max":1360,"o":"m 345 574 l 345 574 q 391 574 450 564 q 509 553 555 529 l 555 529 q 564 525 571 520 q 577 514 586 509 l 586 509 q 605 497 626 479 q 646 461 661 435 q 676 409 676 371 l 676 371 q 676 344 668 323 q 660 301 642 284 q 623 267 594 254 l 594 254 l 589 266 q 633 251 660 218 q 687 185 687 137 l 687 137 q 687 96 669 63 q 651 29 610 9 q 568 -12 498 -12 l 498 -12 q 417 -12 369 20 q 320 52 299 108 q 277 163 277 237 l 277 237 q 277 294 293 346 q 308 398 342 443 q 375 487 430 519 l 430 519 q 436 522 439 526 q 441 529 447 532 l 447 532 q 482 551 528 563 q 573 574 624 574 l 624 574 q 682 574 724 562 q 765 550 796 528 q 827 505 851 474 l 851 474 l 899 238 l 899 0 l 766 0 l 766 282 q 766 353 757 389 q 747 424 719 448 l 719 448 q 700 463 676 470 q 652 477 621 477 l 621 477 q 594 477 570 473 q 546 468 530 462 l 530 462 q 495 451 471 428 q 446 404 432 373 q 417 341 410 306 q 403 271 403 236 l 403 236 q 403 151 425 119 q 447 87 490 87 l 490 87 q 524 87 541 102 q 557 117 557 145 l 557 145 q 557 173 537 190 q 517 206 477 206 l 477 206 l 464 206 l 464 306 l 475 306 q 513 306 531 324 q 548 342 548 370 l 548 370 q 548 399 526 425 q 504 451 447 465 l 447 465 q 432 472 408 475 q 384 478 359 478 l 359 478 q 295 478 254 454 q 212 429 192 386 q 171 343 171 287 l 171 287 q 171 239 181 199 q 191 159 210 125 q 228 90 255 56 l 255 56 l 159 -12 q 123 26 95 70 q 67 113 51 167 q 35 221 35 290 l 35 290 q 35 340 50 390 q 65 440 100 482 q 135 524 196 549 q 256 574 345 574 z m 1157 -12 l 1157 -12 q 1091 -12 1051 17 q 1010 46 992 96 q 974 145 974 206 l 974 206 q 974 301 1016 355 q 1057 408 1138 408 l 1138 408 q 1185 408 1220 383 q 1254 358 1278 317 q 1301 276 1310 228 l 1310 228 l 1259 223 q 1254 245 1242 265 q 1230 285 1213 299 q 1195 312 1171 312 l 1171 312 q 1135 312 1119 284 q 1103 256 1103 200 l 1103 200 q 1103 165 1110 140 q 1116 114 1130 101 q 1143 88 1165 88 l 1165 88 q 1185 88 1200 103 q 1214 117 1222 149 q 1230 180 1230 234 l 1230 234 q 1230 249 1229 271 q 1227 292 1224 310 l 1224 310 q 1224 314 1226 320 q 1227 326 1225 328 l 1225 328 q 1220 366 1199 398 q 1177 430 1139 451 q 1101 471 1045 471 l 1045 471 q 1014 471 992 467 q 970 462 949 446 l 949 446 q 934 435 923 418 q 912 401 906 368 q 899 334 899 273 l 899 273 l 899 215 l 814 468 q 841 502 873 526 q 904 550 947 562 q 989 574 1050 574 l 1050 574 q 1127 574 1185 549 q 1243 523 1282 477 q 1321 431 1341 370 q 1360 308 1360 237 l 1360 237 q 1360 147 1336 92 q 1312 37 1267 13 q 1221 -12 1157 -12 z"},"ആ":{"ha":1535,"x_min":35,"x_max":1512,"o":"m 345 574 l 345 574 q 391 574 450 564 q 509 553 555 529 l 555 529 q 564 525 571 520 q 577 514 586 509 l 586 509 q 605 497 626 479 q 646 461 661 435 q 676 409 676 371 l 676 371 q 676 344 668 323 q 660 301 642 284 q 623 267 594 254 l 594 254 l 589 266 q 633 251 660 218 q 687 185 687 137 l 687 137 q 687 96 669 63 q 651 29 610 9 q 568 -12 498 -12 l 498 -12 q 417 -12 369 20 q 320 52 299 108 q 277 163 277 237 l 277 237 q 277 294 293 346 q 308 398 342 443 q 375 487 430 519 l 430 519 q 436 522 439 526 q 441 529 447 532 l 447 532 q 482 551 528 563 q 573 574 624 574 l 624 574 q 682 574 724 562 q 765 550 796 528 q 827 505 851 474 l 851 474 l 899 224 l 899 0 l 766 0 l 766 282 q 766 353 757 389 q 747 424 719 448 l 719 448 q 700 463 676 470 q 652 477 621 477 l 621 477 q 594 477 570 473 q 546 468 530 462 l 530 462 q 495 451 471 428 q 446 404 432 373 q 417 341 410 306 q 403 271 403 236 l 403 236 q 403 151 425 119 q 447 87 490 87 l 490 87 q 524 87 541 102 q 557 117 557 145 l 557 145 q 557 173 537 190 q 517 206 477 206 l 477 206 l 464 206 l 464 306 l 475 306 q 513 306 531 324 q 548 342 548 370 l 548 370 q 548 399 526 425 q 504 451 447 465 l 447 465 q 432 472 408 475 q 384 478 359 478 l 359 478 q 295 478 254 454 q 212 429 192 386 q 171 343 171 287 l 171 287 q 171 239 181 199 q 191 159 210 125 q 228 90 255 56 l 255 56 l 159 -12 q 123 26 95 70 q 67 113 51 167 q 35 221 35 290 l 35 290 q 35 340 50 390 q 65 440 100 482 q 135 524 196 549 q 256 574 345 574 z m 1038 574 l 1038 574 q 1128 574 1188 542 q 1248 509 1282 457 q 1316 404 1325 345 l 1325 345 q 1331 319 1333 290 q 1335 261 1335 232 l 1335 232 q 1335 148 1313 94 q 1290 39 1247 14 q 1203 -12 1139 -12 l 1139 -12 q 1076 -12 1036 13 q 996 38 977 81 q 957 124 957 181 l 957 181 q 957 287 1024 344 q 1091 400 1205 400 l 1205 400 q 1228 400 1242 400 q 1256 399 1265 397 l 1265 397 l 1291 395 q 1359 383 1409 343 q 1458 302 1485 240 q 1512 178 1512 98 l 1512 98 q 1512 38 1497 -16 q 1482 -70 1448 -111 q 1414 -153 1358 -177 q 1301 -201 1221 -201 l 1221 -201 q 1181 -201 1148 -196 q 1115 -191 1083 -180 l 1083 -180 l 1119 -82 q 1144 -90 1167 -93 q 1189 -97 1218 -97 l 1218 -97 q 1270 -97 1303 -79 q 1335 -61 1354 -32 q 1372 -4 1379 32 q 1386 67 1386 100 l 1386 100 q 1386 149 1377 184 q 1367 219 1349 245 q 1331 271 1304 287 l 1304 287 l 1264 294 q 1253 299 1238 301 q 1223 302 1209 302 l 1209 302 q 1167 302 1140 287 q 1112 272 1100 245 q 1087 218 1087 181 l 1087 181 q 1087 152 1094 132 q 1100 111 1112 101 q 1124 90 1144 90 l 1144 90 q 1177 90 1193 121 q 1209 151 1209 232 l 1209 232 q 1209 270 1203 304 q 1197 337 1187 365 l 1187 365 l 1182 381 q 1168 411 1146 432 q 1123 452 1095 462 q 1067 471 1035 471 l 1035 471 q 1012 471 991 467 q 969 462 948 446 l 948 446 q 933 435 923 418 q 912 400 906 367 q 899 333 899 272 l 899 272 l 899 212 l 814 468 q 839 502 870 526 q 901 549 942 562 q 983 574 1038 574 z"},"ഇ":{"ha":887,"x_min":34,"x_max":852,"o":"m 307 574 l 307 574 q 360 574 398 562 q 435 549 463 529 q 490 508 512 484 l 512 484 l 474 493 q 506 539 550 557 q 593 574 638 574 l 638 574 q 693 574 734 553 q 774 532 800 496 q 826 459 839 413 q 852 366 852 315 l 852 315 q 852 220 832 161 q 811 101 757 59 l 757 59 q 732 41 700 28 q 667 14 622 7 q 577 0 513 0 l 513 0 l 284 0 q 243 0 225 -2 q 207 -5 197 -10 l 197 -10 q 184 -17 179 -26 q 173 -35 173 -47 l 173 -47 q 173 -59 178 -68 q 182 -78 192 -85 l 192 -85 q 203 -91 222 -94 q 241 -98 282 -98 l 282 -98 l 839 -98 l 839 -201 l 273 -201 q 212 -201 169 -192 q 126 -183 101 -167 l 101 -167 q 71 -147 55 -118 q 39 -90 39 -53 l 39 -53 q 39 -15 55 17 q 71 48 104 69 l 104 69 q 122 79 143 87 q 164 94 197 98 q 229 102 277 102 l 277 102 l 464 102 q 528 102 567 108 q 606 113 630 124 q 653 135 669 149 l 669 149 q 700 175 709 216 q 718 257 718 310 l 718 310 q 718 348 709 386 q 699 423 678 448 q 656 472 618 472 l 618 472 q 607 472 596 468 q 584 463 577 454 l 577 454 q 563 440 558 414 q 553 388 553 336 l 553 336 l 553 146 l 422 146 l 422 322 q 422 371 413 400 q 404 429 388 444 l 388 444 q 373 459 352 466 q 331 473 296 473 l 296 473 q 271 473 250 468 q 229 462 211 452 q 193 442 179 426 q 164 410 155 390 l 155 390 q 152 382 150 372 q 148 361 147 353 l 147 353 q 146 344 145 332 q 143 319 143 303 l 143 303 q 143 261 157 238 q 171 215 197 215 l 197 215 q 219 215 229 233 q 239 251 239 279 l 239 279 q 239 299 235 313 q 230 326 220 334 q 209 342 194 342 l 194 342 q 170 342 154 336 q 138 330 119 319 l 119 319 l 42 327 q 61 352 91 376 q 120 399 156 413 q 191 427 227 427 l 227 427 q 274 427 304 408 q 334 388 348 355 q 362 322 362 280 l 362 280 q 362 238 346 203 q 330 167 294 145 q 257 123 201 123 l 201 123 q 151 123 113 146 q 75 169 55 213 q 34 256 34 320 l 34 320 q 34 398 70 455 q 105 511 166 543 q 227 574 307 574 z"},"ഈ":{"ha":1584,"x_min":34,"x_max":1549,"o":"m 307 574 l 307 574 q 360 574 398 562 q 435 549 463 529 q 490 508 512 484 l 512 484 l 474 493 q 506 539 550 557 q 593 574 638 574 l 638 574 q 693 574 734 553 q 774 532 800 496 q 826 459 839 413 q 852 366 852 315 l 852 315 q 852 220 832 161 q 811 101 757 59 l 757 59 q 732 41 700 28 q 667 14 622 7 q 577 0 513 0 l 513 0 l 284 0 q 243 0 225 -2 q 207 -5 197 -10 l 197 -10 q 184 -17 179 -26 q 173 -35 173 -47 l 173 -47 q 173 -59 178 -68 q 182 -78 192 -85 l 192 -85 q 203 -91 222 -94 q 241 -98 282 -98 l 282 -98 l 839 -98 l 839 -201 l 273 -201 q 212 -201 169 -192 q 126 -183 101 -167 l 101 -167 q 71 -147 55 -118 q 39 -90 39 -53 l 39 -53 q 39 -15 55 17 q 71 48 104 69 l 104 69 q 122 79 143 87 q 164 94 197 98 q 229 102 277 102 l 277 102 l 464 102 q 528 102 567 108 q 606 113 630 124 q 653 135 669 149 l 669 149 q 700 175 709 216 q 718 257 718 310 l 718 310 q 718 348 709 386 q 699 423 678 448 q 656 472 618 472 l 618 472 q 607 472 596 468 q 584 463 577 454 l 577 454 q 563 440 558 414 q 553 388 553 336 l 553 336 l 553 146 l 422 146 l 422 322 q 422 371 413 400 q 404 429 388 444 l 388 444 q 373 459 352 466 q 331 473 296 473 l 296 473 q 271 473 250 468 q 229 462 211 452 q 193 442 179 426 q 164 410 155 390 l 155 390 q 152 382 150 372 q 148 361 147 353 l 147 353 q 146 344 145 332 q 143 319 143 303 l 143 303 q 143 261 157 238 q 171 215 197 215 l 197 215 q 219 215 229 233 q 239 251 239 279 l 239 279 q 239 299 235 313 q 230 326 220 334 q 209 342 194 342 l 194 342 q 170 342 154 336 q 138 330 119 319 l 119 319 l 42 327 q 61 352 91 376 q 120 399 156 413 q 191 427 227 427 l 227 427 q 274 427 304 408 q 334 388 348 355 q 362 322 362 280 l 362 280 q 362 238 346 203 q 330 167 294 145 q 257 123 201 123 l 201 123 q 151 123 113 146 q 75 169 55 213 q 34 256 34 320 l 34 320 q 34 398 70 455 q 105 511 166 543 q 227 574 307 574 z m 1355 574 l 1355 574 q 1417 574 1461 542 q 1504 509 1527 451 q 1550 392 1550 312 l 1550 312 q 1550 205 1519 133 q 1487 61 1426 25 q 1365 -12 1272 -12 l 1272 -12 q 1214 -12 1165 -1 q 1116 9 1070 33 l 1070 33 l 1121 129 q 1153 113 1188 103 q 1222 92 1262 92 l 1262 92 q 1319 92 1353 118 q 1386 143 1401 191 q 1415 238 1415 307 l 1415 307 q 1415 394 1395 434 q 1375 473 1343 473 l 1343 473 q 1329 473 1320 467 q 1311 461 1306 450 l 1306 450 q 1300 440 1297 425 q 1294 409 1294 373 l 1294 373 l 1294 264 l 1163 264 l 1163 349 q 1163 394 1161 415 q 1158 435 1153 447 l 1153 447 q 1146 460 1135 467 q 1123 473 1110 473 l 1110 473 q 1079 473 1064 447 q 1048 421 1048 388 l 1048 388 q 1048 357 1053 332 q 1057 306 1062 287 l 1062 287 l 934 260 q 926 288 921 323 q 915 358 915 388 l 915 388 q 915 437 934 479 q 952 521 992 548 q 1031 574 1094 574 l 1094 574 q 1143 574 1176 559 q 1209 543 1234 513 l 1234 513 l 1218 514 q 1244 546 1276 560 q 1308 574 1355 574 z"},"ഉ":{"ha":645,"x_min":34,"x_max":611,"o":"m 323 574 l 323 574 q 404 574 459 551 q 513 527 548 487 q 582 447 597 398 q 611 349 611 298 l 611 298 q 611 220 593 164 q 574 107 530 69 l 530 69 q 498 43 460 28 q 421 13 377 7 q 332 0 282 0 l 282 0 l 268 0 q 239 0 223 -2 q 207 -4 197 -9 l 197 -9 q 184 -16 179 -25 q 173 -35 173 -47 l 173 -47 q 173 -59 178 -68 q 182 -78 192 -85 l 192 -85 q 203 -91 222 -94 q 241 -98 282 -98 l 282 -98 l 594 -98 l 594 -201 l 273 -201 q 212 -201 169 -192 q 126 -183 101 -167 l 101 -167 q 71 -147 55 -118 q 39 -90 39 -53 l 39 -53 q 39 -15 55 17 q 71 49 104 70 l 104 70 q 130 86 166 94 q 202 101 259 102 l 259 102 l 253 102 q 304 102 340 108 q 376 114 400 125 q 423 136 439 153 l 439 153 q 461 179 469 215 q 476 251 476 293 l 476 293 q 476 323 469 354 q 462 385 444 412 q 426 439 393 455 q 360 471 311 471 l 311 471 q 281 471 255 465 q 228 458 207 445 q 185 432 170 414 q 155 395 149 370 l 149 370 q 149 366 149 362 q 148 358 148 355 l 148 355 q 146 346 145 334 q 143 322 143 303 l 143 303 q 143 261 157 238 q 171 215 197 215 l 197 215 q 219 215 229 233 q 239 251 239 279 l 239 279 q 239 299 235 313 q 230 326 220 334 q 209 342 194 342 l 194 342 q 171 342 154 336 q 136 330 118 319 l 118 319 l 42 327 q 61 352 91 376 q 120 399 156 413 q 191 427 227 427 l 227 427 q 274 427 304 408 q 334 388 348 355 q 362 322 362 280 l 362 280 q 362 238 346 203 q 330 167 294 145 q 257 123 201 123 l 201 123 q 151 123 113 146 q 75 168 55 212 q 34 256 34 318 l 34 318 q 34 373 55 421 q 75 468 113 503 q 151 537 204 556 q 257 574 323 574 z"},"ഊ":{"ha":1343,"x_min":34,"x_max":1309,"o":"m 323 574 l 323 574 q 404 574 459 551 q 513 527 548 487 q 582 447 597 398 q 611 349 611 298 l 611 298 q 611 220 593 164 q 574 107 530 69 l 530 69 q 498 43 460 28 q 421 13 377 7 q 332 0 282 0 l 282 0 l 268 0 q 239 0 223 -2 q 207 -4 197 -9 l 197 -9 q 184 -16 179 -25 q 173 -35 173 -47 l 173 -47 q 173 -59 178 -68 q 182 -78 192 -85 l 192 -85 q 203 -91 222 -94 q 241 -98 282 -98 l 282 -98 l 594 -98 l 594 -201 l 273 -201 q 212 -201 169 -192 q 126 -183 101 -167 l 101 -167 q 71 -147 55 -118 q 39 -90 39 -53 l 39 -53 q 39 -15 55 17 q 71 49 104 70 l 104 70 q 130 86 166 94 q 202 101 259 102 l 259 102 l 253 102 q 304 102 340 108 q 376 114 400 125 q 423 136 439 153 l 439 153 q 461 179 469 215 q 476 251 476 293 l 476 293 q 476 323 469 354 q 462 385 444 412 q 426 439 393 455 q 360 471 311 471 l 311 471 q 281 471 255 465 q 228 458 207 445 q 185 432 170 414 q 155 395 149 370 l 149 370 q 149 366 149 362 q 148 358 148 355 l 148 355 q 146 346 145 334 q 143 322 143 303 l 143 303 q 143 261 157 238 q 171 215 197 215 l 197 215 q 219 215 229 233 q 239 251 239 279 l 239 279 q 239 299 235 313 q 230 326 220 334 q 209 342 194 342 l 194 342 q 171 342 154 336 q 136 330 118 319 l 118 319 l 42 327 q 61 352 91 376 q 120 399 156 413 q 191 427 227 427 l 227 427 q 274 427 304 408 q 334 388 348 355 q 362 322 362 280 l 362 280 q 362 238 346 203 q 330 167 294 145 q 257 123 201 123 l 201 123 q 151 123 113 146 q 75 168 55 212 q 34 256 34 318 l 34 318 q 34 373 55 421 q 75 468 113 503 q 151 537 204 556 q 257 574 323 574 z m 1114 574 l 1114 574 q 1176 574 1220 542 q 1263 509 1286 451 q 1309 392 1309 312 l 1309 312 q 1309 205 1278 133 q 1246 61 1185 25 q 1124 -12 1031 -12 l 1031 -12 q 973 -12 924 -1 q 875 9 829 33 l 829 33 l 880 129 q 912 113 947 103 q 981 92 1021 92 l 1021 92 q 1078 92 1112 118 q 1145 143 1160 191 q 1174 238 1174 307 l 1174 307 q 1174 394 1154 434 q 1134 473 1102 473 l 1102 473 q 1088 473 1079 467 q 1070 461 1065 450 l 1065 450 q 1059 440 1056 425 q 1053 409 1053 373 l 1053 373 l 1053 264 l 922 264 l 922 349 q 922 394 920 415 q 917 435 912 447 l 912 447 q 905 460 894 467 q 882 473 869 473 l 869 473 q 838 473 823 447 q 807 421 807 388 l 807 388 q 807 357 812 332 q 816 306 821 287 l 821 287 l 693 260 q 685 288 680 323 q 674 358 674 388 l 674 388 q 674 437 693 479 q 711 521 751 548 q 790 574 853 574 l 853 574 q 902 574 935 559 q 968 543 993 513 l 993 513 l 977 514 q 1003 546 1035 560 q 1067 574 1114 574 z"},"ഋ":{"ha":861,"x_min":32,"x_max":829,"o":"m 634 574 l 634 574 q 724 574 777 518 q 829 461 829 348 l 829 348 q 829 279 805 228 q 780 177 737 143 l 737 143 q 695 106 642 85 q 589 64 524 64 l 524 64 l 346 64 q 302 64 264 73 q 225 82 192 99 q 159 116 132 140 l 132 140 q 85 175 59 227 q 32 279 32 350 l 32 350 q 32 419 57 469 q 82 519 128 547 q 173 574 234 574 l 234 574 q 291 574 330 552 q 369 530 389 491 q 409 451 409 402 l 409 402 q 409 343 389 304 q 368 265 331 247 q 294 228 245 228 l 245 228 q 209 228 175 243 q 141 257 115 277 q 88 297 72 315 l 72 315 l 106 414 q 121 388 136 367 q 151 346 170 334 q 189 321 214 321 l 214 321 q 244 321 262 341 q 280 360 280 406 l 280 406 q 280 440 265 459 q 249 477 227 477 l 227 477 q 205 477 189 465 q 173 452 165 428 q 156 403 156 366 l 156 366 q 156 344 160 324 q 163 303 167 287 l 167 287 l 162 264 q 174 235 201 216 q 228 197 262 186 q 296 175 331 170 q 365 165 391 165 l 391 165 l 473 165 q 495 165 528 169 q 560 173 596 184 q 631 194 660 214 q 689 233 701 264 l 701 264 l 696 287 q 700 302 703 323 q 706 343 706 366 l 706 366 q 706 403 698 428 q 690 452 675 465 q 660 477 638 477 l 638 477 q 615 477 599 458 q 583 439 583 400 l 583 400 q 583 358 600 340 q 617 321 647 321 l 647 321 q 673 321 692 333 q 710 345 725 367 q 740 388 756 415 l 756 415 l 789 315 q 775 297 749 277 q 722 257 688 243 q 654 228 617 228 l 617 228 q 568 228 532 247 q 495 265 475 303 q 455 340 455 397 l 455 397 q 455 450 477 490 q 498 530 538 552 q 578 574 634 574 z m 430 -249 l 430 -249 q 326 -249 252 -228 q 177 -208 138 -162 q 99 -117 99 -45 l 99 -45 q 99 2 120 36 q 141 69 180 90 q 219 110 270 120 q 321 130 380 130 l 380 130 l 478 130 q 541 130 593 120 q 645 110 684 90 q 722 69 743 35 q 763 1 763 -47 l 763 -47 q 763 -111 728 -156 q 693 -201 619 -225 q 545 -249 430 -249 z m 433 -144 l 433 -144 q 501 -144 544 -132 q 586 -120 607 -97 q 627 -75 627 -42 l 627 -42 q 627 -10 611 10 q 595 30 567 42 q 539 53 507 58 q 474 62 442 62 l 442 62 l 424 62 q 374 62 331 53 q 287 44 261 21 q 235 -2 235 -41 l 235 -41 q 235 -75 256 -98 q 276 -122 320 -133 q 363 -144 433 -144 z"},"ഌ":{"ha":1092,"x_min":35,"x_max":1057,"o":"m 339 574 l 339 574 q 413 574 463 550 q 512 526 551 477 l 551 477 l 572 391 l 596 192 l 596 0 l 463 0 l 463 286 q 463 359 454 392 q 444 424 427 441 l 427 441 q 413 455 393 463 q 373 471 338 471 l 338 471 q 287 471 247 447 q 206 422 181 371 q 156 320 156 242 l 156 242 l 156 233 q 156 174 165 143 q 174 111 190 99 q 205 86 223 86 l 223 86 q 238 86 249 95 q 260 103 266 121 q 271 138 271 167 l 271 167 q 271 210 259 230 q 246 249 216 249 l 216 249 q 189 249 163 232 q 136 214 108 176 l 108 176 l 92 270 q 115 297 157 321 q 199 345 251 345 l 251 345 q 299 345 333 325 q 366 304 383 266 q 399 227 399 174 l 399 174 q 399 114 379 73 q 358 31 320 10 q 282 -12 228 -12 l 228 -12 q 177 -12 134 13 q 90 38 63 94 q 35 150 35 243 l 35 243 q 35 354 75 428 q 115 501 184 538 q 253 574 339 574 z m 854 -12 l 854 -12 q 787 -12 747 17 q 707 46 689 96 q 670 145 670 206 l 670 206 q 670 301 712 355 q 753 408 835 408 l 835 408 q 882 408 917 383 q 951 358 974 317 q 997 276 1007 228 l 1007 228 l 956 223 q 951 245 939 265 q 927 285 910 299 q 892 312 868 312 l 868 312 q 831 312 816 284 q 800 256 800 200 l 800 200 q 800 165 806 140 q 812 114 826 101 q 840 88 861 88 l 861 88 q 882 88 897 103 q 911 117 919 149 q 927 180 927 234 l 927 234 q 927 249 926 271 q 924 292 921 310 l 921 310 q 921 314 922 320 q 923 326 922 328 l 922 328 q 917 366 895 398 q 873 430 836 451 q 798 471 742 471 l 742 471 q 710 471 689 467 q 667 462 645 446 l 645 446 q 631 435 620 418 q 608 401 602 368 q 596 334 596 273 l 596 273 l 596 215 l 510 468 q 537 502 569 526 q 601 550 644 562 q 686 574 748 574 l 748 574 q 824 574 882 549 q 940 523 979 477 q 1018 431 1038 370 q 1057 308 1057 237 l 1057 237 q 1057 147 1033 92 q 1008 37 963 13 q 918 -12 854 -12 z"},"എ":{"ha":1171,"x_min":28,"x_max":1134,"o":"m 228 362 l 228 362 q 297 362 340 335 q 383 308 404 266 q 424 224 424 178 l 424 178 q 424 144 413 117 q 401 89 393 70 l 393 70 l 380 101 l 795 101 l 784 0 l 312 0 l 266 59 q 275 77 285 105 q 294 132 294 169 l 294 169 q 294 209 279 235 q 263 261 229 261 l 229 261 q 205 261 190 250 q 175 239 168 219 q 161 198 161 172 l 161 172 q 161 123 176 95 q 190 66 202 39 l 202 39 l 93 -12 q 63 32 46 76 q 28 119 28 177 l 28 177 q 28 233 53 274 q 78 315 123 339 q 167 362 228 362 z m 829 574 l 829 574 q 906 574 963 548 q 1020 522 1058 471 q 1096 420 1115 346 q 1134 272 1134 178 l 1134 178 q 1134 93 1118 22 q 1101 -49 1074 -110 q 1047 -172 1010 -228 l 1010 -228 l 907 -170 q 936 -121 956 -68 q 975 -16 985 44 q 995 104 995 176 l 995 176 q 995 239 986 293 q 977 347 958 387 q 938 427 906 450 q 874 473 827 473 l 827 473 q 765 473 724 434 q 683 394 663 323 q 643 251 643 151 l 643 151 q 643 118 644 93 q 645 68 646 48 l 646 48 q 646 40 646 34 q 645 28 644 20 l 644 20 q 649 -41 659 -74 q 669 -107 685 -118 q 700 -130 719 -130 l 719 -130 q 735 -130 743 -120 l 743 -120 q 748 -115 750 -105 q 751 -96 751 -81 l 751 -81 l 751 387 l 883 387 l 883 -47 q 883 -98 874 -130 q 865 -163 843 -187 l 843 -187 q 825 -206 796 -217 q 766 -228 727 -228 l 727 -228 q 658 -228 610 -191 q 561 -154 536 -72 q 510 9 510 144 l 510 144 q 510 239 529 317 q 548 395 588 453 q 627 511 688 543 q 748 574 829 574 z"},"ഏ":{"ha":1186,"x_min":27,"x_max":1159,"o":"m 227 362 l 227 362 q 296 362 340 335 q 383 308 403 266 q 423 224 423 178 l 423 178 q 423 144 412 117 q 401 89 392 70 l 392 70 l 369 101 l 787 101 l 783 0 l 311 0 l 265 59 q 274 77 284 105 q 293 132 293 169 l 293 169 q 293 209 278 235 q 262 261 228 261 l 228 261 q 204 261 190 250 q 175 239 168 219 q 160 198 160 172 l 160 172 q 160 123 175 95 q 189 66 201 39 l 201 39 l 92 -12 q 62 32 45 76 q 27 119 27 177 l 27 177 q 27 233 52 274 q 77 315 122 339 q 167 362 227 362 z m 869 574 l 869 574 q 946 574 1000 555 q 1053 535 1087 502 q 1120 468 1136 426 q 1151 384 1151 339 l 1151 339 q 1151 285 1136 247 q 1120 209 1097 184 q 1073 158 1049 142 l 1049 142 l 1046 157 q 1099 129 1129 87 q 1159 44 1159 -28 l 1159 -28 q 1159 -98 1136 -142 q 1112 -187 1072 -207 q 1031 -228 978 -228 l 978 -228 q 954 -228 932 -226 q 909 -224 893 -220 l 893 -220 l 911 -120 q 919 -123 930 -124 q 941 -126 947 -126 l 947 -126 q 977 -126 994 -114 q 1010 -102 1018 -79 q 1025 -56 1025 -22 l 1025 -22 q 1025 25 1001 57 q 977 89 929 91 l 929 91 l 929 191 q 957 199 976 217 q 995 234 1006 262 q 1016 290 1016 330 l 1016 330 q 1016 370 1000 402 q 984 433 951 452 q 917 470 863 470 l 863 470 q 787 470 738 431 q 689 391 666 319 q 642 247 642 151 l 642 151 q 642 118 643 93 q 644 68 645 48 l 645 48 q 645 41 645 34 q 644 27 643 20 l 643 20 q 648 -41 658 -74 q 668 -107 684 -118 q 699 -130 718 -130 l 718 -130 q 734 -130 743 -120 l 743 -120 q 747 -115 749 -105 q 750 -96 750 -81 l 750 -81 l 750 387 l 882 387 l 882 -47 q 882 -98 874 -130 q 865 -163 842 -187 l 842 -187 q 824 -206 795 -217 q 765 -228 726 -228 l 726 -228 q 658 -228 609 -191 q 560 -154 535 -72 q 509 10 509 147 l 509 147 q 509 243 532 322 q 554 400 600 457 q 645 513 713 544 q 780 574 869 574 z"},"ഐ":{"ha":1838,"x_min":35,"x_max":1800,"o":"m 230 -12 l 230 -12 q 178 -12 134 14 q 90 39 63 94 q 36 148 36 240 l 36 240 q 36 315 58 376 q 79 437 121 482 q 162 526 221 550 q 279 574 353 574 l 353 574 q 424 574 477 552 q 529 530 564 491 q 599 451 616 399 q 633 347 633 286 l 633 286 q 633 219 616 165 q 599 111 570 68 q 541 25 505 -13 l 505 -13 l 410 54 q 435 85 455 118 q 475 151 486 191 q 497 231 497 285 l 497 285 q 497 341 480 383 q 463 425 428 448 q 393 471 341 471 l 341 471 q 286 471 244 440 q 202 409 180 356 q 157 303 157 236 l 157 236 q 157 175 166 143 q 174 111 190 99 q 205 86 223 86 l 223 86 q 238 86 249 95 q 260 103 266 121 q 271 138 271 166 l 271 166 q 271 209 259 229 q 246 249 216 249 l 216 249 q 189 249 163 231 q 136 213 108 176 l 108 176 l 92 270 q 115 297 156 321 q 197 345 249 345 l 249 345 q 298 345 332 325 q 365 304 382 266 q 399 228 399 175 l 399 175 q 399 115 379 74 q 358 32 321 10 q 284 -12 230 -12 z m 894 362 l 894 362 q 963 362 1006 335 q 1049 308 1070 266 q 1090 224 1090 178 l 1090 178 q 1090 144 1079 117 q 1067 89 1059 70 l 1059 70 l 1046 101 l 1461 101 l 1450 0 l 978 0 l 932 59 q 941 77 951 105 q 960 132 960 169 l 960 169 q 960 209 945 235 q 929 261 895 261 l 895 261 q 871 261 856 250 q 841 239 834 219 q 827 198 827 172 l 827 172 q 827 123 842 95 q 856 66 868 39 l 868 39 l 759 -12 q 729 32 712 76 q 694 119 694 177 l 694 177 q 694 233 719 274 q 744 315 789 339 q 833 362 894 362 z m 1495 574 l 1495 574 q 1572 574 1629 548 q 1686 522 1724 471 q 1762 420 1781 346 q 1800 272 1800 178 l 1800 178 q 1800 93 1784 22 q 1767 -49 1740 -110 q 1713 -172 1676 -228 l 1676 -228 l 1573 -170 q 1602 -121 1622 -68 q 1641 -16 1651 44 q 1661 104 1661 176 l 1661 176 q 1661 239 1652 293 q 1643 347 1624 387 q 1604 427 1572 450 q 1540 473 1493 473 l 1493 473 q 1431 473 1390 434 q 1349 394 1329 323 q 1309 251 1309 151 l 1309 151 q 1309 118 1310 93 q 1311 68 1312 48 l 1312 48 q 1312 40 1312 34 q 1311 28 1310 20 l 1310 20 q 1315 -41 1325 -74 q 1335 -107 1351 -118 q 1366 -130 1385 -130 l 1385 -130 q 1401 -130 1409 -120 l 1409 -120 q 1414 -115 1416 -105 q 1417 -96 1417 -81 l 1417 -81 l 1417 387 l 1549 387 l 1549 -47 q 1549 -98 1540 -130 q 1531 -163 1509 -187 l 1509 -187 q 1491 -206 1462 -217 q 1432 -228 1393 -228 l 1393 -228 q 1324 -228 1276 -191 q 1227 -154 1202 -72 q 1176 9 1176 144 l 1176 144 q 1176 239 1195 317 q 1214 395 1254 453 q 1293 511 1354 543 q 1414 574 1495 574 z"},"ഒ":{"ha":712,"x_min":35,"x_max":682,"o":"m 422 574 l 422 574 q 514 574 570 552 q 625 529 650 492 q 674 454 674 407 l 674 407 q 674 377 665 353 q 655 328 636 310 q 616 291 584 277 l 584 277 l 584 283 q 631 266 657 230 q 682 194 682 144 l 682 144 q 682 71 639 30 q 596 -12 508 -12 l 508 -12 q 476 -12 451 -8 q 426 -4 408 0 l 408 0 l 424 98 q 436 94 451 92 q 465 89 483 89 l 483 89 q 520 89 535 106 q 549 122 549 154 l 549 154 q 549 170 544 184 q 538 198 526 208 l 526 208 q 515 218 496 224 q 476 229 442 229 l 442 229 l 432 229 l 432 329 l 440 329 q 478 329 494 334 q 509 339 521 350 l 521 350 q 531 359 536 370 q 540 381 540 395 l 540 395 q 540 432 510 451 q 479 470 414 470 l 414 470 q 357 470 311 456 q 264 442 229 414 q 194 386 175 344 q 156 302 156 247 l 156 247 l 156 230 q 156 172 165 141 q 173 109 189 98 q 204 86 222 86 l 222 86 q 238 86 249 95 q 259 103 265 121 q 270 138 270 167 l 270 167 q 270 210 258 230 q 246 249 215 249 l 215 249 q 187 249 159 230 q 131 211 103 172 l 103 172 l 82 261 q 105 291 149 318 q 192 345 248 345 l 248 345 q 297 345 331 325 q 364 304 381 266 q 398 227 398 174 l 398 174 q 398 114 378 73 q 357 31 320 10 q 282 -12 228 -12 l 228 -12 q 175 -12 131 14 q 87 39 61 93 q 35 146 35 231 l 35 231 q 35 314 63 378 q 90 442 141 486 q 191 529 263 552 q 335 574 422 574 z"},"ഓ":{"ha":1196,"x_min":35,"x_max":1159,"o":"m 422 574 l 422 574 q 514 574 570 552 q 625 529 650 492 q 674 454 674 407 l 674 407 q 674 377 665 353 q 655 328 636 310 q 616 291 584 277 l 584 277 l 584 283 q 631 266 657 230 q 682 194 682 144 l 682 144 q 682 71 639 30 q 596 -12 508 -12 l 508 -12 q 476 -12 451 -8 q 426 -4 408 0 l 408 0 l 424 98 q 436 94 451 92 q 465 89 483 89 l 483 89 q 520 89 535 106 q 549 122 549 154 l 549 154 q 549 170 544 184 q 538 198 526 208 l 526 208 q 515 218 496 224 q 476 229 442 229 l 442 229 l 432 229 l 432 329 l 440 329 q 478 329 494 334 q 509 339 521 350 l 521 350 q 531 359 536 370 q 540 381 540 395 l 540 395 q 540 432 510 451 q 479 470 414 470 l 414 470 q 357 470 311 456 q 264 442 229 414 q 194 386 175 344 q 156 302 156 247 l 156 247 l 156 230 q 156 172 165 141 q 173 109 189 98 q 204 86 222 86 l 222 86 q 238 86 249 95 q 259 103 265 121 q 270 138 270 167 l 270 167 q 270 210 258 230 q 246 249 215 249 l 215 249 q 187 249 159 230 q 131 211 103 172 l 103 172 l 82 261 q 105 291 149 318 q 192 345 248 345 l 248 345 q 297 345 331 325 q 364 304 381 266 q 398 227 398 174 l 398 174 q 398 114 378 73 q 357 31 320 10 q 282 -12 228 -12 l 228 -12 q 175 -12 131 14 q 87 39 61 93 q 35 146 35 231 l 35 231 q 35 314 63 378 q 90 442 141 486 q 191 529 263 552 q 335 574 422 574 z m 1158 283 l 1158 283 q 1158 216 1147 162 q 1136 108 1111 69 q 1086 30 1044 9 q 1002 -12 939 -12 l 939 -12 q 882 -12 844 6 q 805 23 781 51 q 757 78 744 113 q 730 148 724 183 l 724 183 l 858 207 q 864 180 873 153 q 881 125 897 107 q 913 88 940 88 l 940 88 q 969 88 987 111 q 1005 133 1013 177 q 1021 220 1021 284 l 1021 284 q 1021 344 1013 387 q 1005 429 988 452 q 970 474 942 474 l 942 474 q 917 474 901 458 q 885 441 876 415 q 866 389 860 356 l 860 356 l 727 381 q 736 417 751 451 q 766 485 791 513 q 816 541 854 558 q 892 574 948 574 l 948 574 q 1008 574 1049 553 q 1089 531 1113 492 q 1137 453 1148 400 q 1158 347 1158 283 z"},"ഔ":{"ha":1407,"x_min":35,"x_max":1373,"o":"m 422 574 l 422 574 q 514 574 570 552 q 625 529 650 492 q 674 454 674 407 l 674 407 q 674 377 665 353 q 655 328 636 310 q 616 291 584 277 l 584 277 l 584 283 q 631 266 657 230 q 682 194 682 144 l 682 144 q 682 71 639 30 q 596 -12 508 -12 l 508 -12 q 476 -12 451 -8 q 426 -4 408 0 l 408 0 l 424 98 q 436 94 451 92 q 465 89 483 89 l 483 89 q 520 89 535 106 q 549 122 549 154 l 549 154 q 549 170 544 184 q 538 198 526 208 l 526 208 q 515 218 496 224 q 476 229 442 229 l 442 229 l 432 229 l 432 329 l 440 329 q 478 329 494 334 q 509 339 521 350 l 521 350 q 531 359 536 370 q 540 381 540 395 l 540 395 q 540 432 510 451 q 479 470 414 470 l 414 470 q 357 470 311 456 q 264 442 229 414 q 194 386 175 344 q 156 302 156 247 l 156 247 l 156 230 q 156 172 165 141 q 173 109 189 98 q 204 86 222 86 l 222 86 q 238 86 249 95 q 259 103 265 121 q 270 138 270 167 l 270 167 q 270 210 258 230 q 246 249 215 249 l 215 249 q 187 249 159 230 q 131 211 103 172 l 103 172 l 82 261 q 105 291 149 318 q 192 345 248 345 l 248 345 q 297 345 331 325 q 364 304 381 266 q 398 227 398 174 l 398 174 q 398 114 378 73 q 357 31 320 10 q 282 -12 228 -12 l 228 -12 q 175 -12 131 14 q 87 39 61 93 q 35 146 35 231 l 35 231 q 35 314 63 378 q 90 442 141 486 q 191 529 263 552 q 335 574 422 574 z m 1178 574 l 1178 574 q 1240 574 1284 542 q 1327 509 1350 451 q 1373 392 1373 312 l 1373 312 q 1373 205 1342 133 q 1310 61 1249 25 q 1188 -12 1095 -12 l 1095 -12 q 1037 -12 988 -1 q 939 9 893 33 l 893 33 l 944 129 q 976 113 1011 103 q 1045 92 1085 92 l 1085 92 q 1142 92 1176 118 q 1209 143 1224 191 q 1238 238 1238 307 l 1238 307 q 1238 394 1218 434 q 1198 473 1166 473 l 1166 473 q 1152 473 1143 467 q 1134 461 1129 450 l 1129 450 q 1123 440 1120 425 q 1117 409 1117 373 l 1117 373 l 1117 264 l 986 264 l 986 349 q 986 394 984 415 q 981 435 976 447 l 976 447 q 969 460 958 467 q 946 473 933 473 l 933 473 q 902 473 887 447 q 871 421 871 388 l 871 388 q 871 357 876 332 q 880 306 885 287 l 885 287 l 757 260 q 749 288 744 323 q 738 358 738 388 l 738 388 q 738 437 757 479 q 775 521 815 548 q 854 574 917 574 l 917 574 q 966 574 999 559 q 1032 543 1057 513 l 1057 513 l 1041 514 q 1067 546 1099 560 q 1131 574 1178 574 z"},"ക":{"ha":972,"x_min":28,"x_max":943,"o":"m 202 -12 l 202 -12 q 118 -12 73 34 q 28 80 28 159 l 28 159 q 28 213 52 250 q 76 287 116 309 l 116 309 q 139 321 165 330 q 191 338 229 342 q 267 345 325 345 l 325 345 l 658 345 q 741 345 790 335 q 839 324 872 300 l 872 300 q 905 278 924 243 q 943 208 943 158 l 943 158 q 943 75 894 32 q 844 -12 771 -12 l 771 -12 q 749 -12 732 -9 q 715 -6 694 -1 l 694 -1 l 716 96 q 724 94 734 92 q 743 90 755 90 l 755 90 q 783 90 799 108 q 815 125 815 158 l 815 158 q 815 181 807 197 q 799 212 784 222 l 784 222 q 767 236 745 240 q 723 244 674 244 l 674 244 l 289 244 q 252 244 229 241 q 205 237 187 225 l 187 225 q 173 215 164 200 q 154 185 154 163 l 154 163 q 154 140 161 124 q 168 107 185 98 q 201 89 227 89 l 227 89 q 250 89 272 98 q 293 107 319 129 l 319 129 l 376 38 q 347 18 320 7 q 292 -4 264 -8 q 236 -12 202 -12 z m 487 574 l 487 574 q 568 574 619 539 q 669 503 693 437 q 716 371 716 283 l 716 283 q 716 184 689 118 q 662 52 611 20 q 560 -12 488 -12 l 488 -12 q 430 -12 388 9 q 345 29 319 62 l 319 62 q 286 104 272 162 q 257 219 257 286 l 257 286 q 257 425 318 500 q 379 574 487 574 z m 487 473 l 487 473 q 436 473 412 428 q 388 383 388 282 l 388 282 q 388 215 399 173 q 410 130 432 110 q 453 89 487 89 l 487 89 q 519 89 541 109 q 562 129 574 172 q 585 214 585 282 l 585 282 q 585 350 574 392 q 563 434 542 454 q 520 473 487 473 z"},"ഖ":{"ha":934,"x_min":36,"x_max":877,"o":"m 353 574 l 353 574 q 425 574 477 553 q 529 532 563 494 q 597 456 614 406 q 630 356 630 297 l 630 297 q 630 236 616 188 q 602 140 578 99 q 554 58 524 19 l 524 19 l 528 0 l 481 0 l 415 59 q 437 89 455 122 q 473 154 484 195 q 495 236 495 288 l 495 288 q 495 346 478 387 q 460 428 426 450 q 392 471 343 471 l 343 471 q 284 471 242 441 q 200 411 179 360 q 157 309 157 243 l 157 243 l 157 235 q 157 174 166 142 q 175 110 190 98 q 205 86 223 86 l 223 86 q 239 86 250 95 q 260 103 266 121 q 271 138 271 166 l 271 166 q 271 209 259 229 q 247 249 216 249 l 216 249 q 187 249 160 230 q 132 211 104 172 l 104 172 l 83 261 q 106 291 150 318 q 193 345 249 345 l 249 345 q 299 345 332 325 q 365 304 382 266 q 399 227 399 174 l 399 174 q 399 114 379 73 q 359 31 322 10 q 284 -12 230 -12 l 230 -12 q 178 -12 134 14 q 90 39 63 96 q 36 152 36 246 l 36 246 q 36 349 76 422 q 116 495 188 535 q 260 574 353 574 z m 745 562 l 877 562 l 877 0 l 506 0 l 555 101 l 745 101 l 745 562 z"},"ഗ":{"ha":819,"x_min":35,"x_max":784,"o":"m 550 574 l 550 574 q 625 574 677 542 q 729 510 757 450 q 784 390 784 306 l 784 306 q 784 240 771 183 q 757 126 733 78 q 708 29 674 -13 l 674 -13 l 570 53 q 597 92 615 131 q 633 170 642 212 q 650 254 650 300 l 650 300 q 650 359 637 397 q 624 435 602 453 q 580 471 552 471 l 552 471 q 532 471 517 464 q 502 456 494 441 l 494 441 q 485 425 481 401 q 477 377 477 330 l 477 330 l 477 229 q 477 190 472 156 q 467 122 457 95 q 446 68 426 46 l 426 46 q 400 18 361 3 q 322 -12 269 -12 l 269 -12 q 195 -12 143 21 q 91 54 63 115 q 35 175 35 257 l 35 257 q 35 326 49 383 q 63 439 89 487 q 114 534 147 575 l 147 575 l 248 509 q 222 471 205 432 q 187 393 178 352 q 169 310 169 263 l 169 263 q 169 201 182 164 q 195 126 217 109 q 238 91 264 91 l 264 91 q 286 91 302 99 q 317 106 326 122 l 326 122 q 334 137 338 160 q 342 182 342 229 l 342 229 l 342 328 q 342 395 356 442 q 370 488 401 519 l 401 519 q 426 544 461 559 q 495 574 550 574 z"},"ഘ":{"ha":1229,"x_min":28,"x_max":1172,"o":"m 228 574 l 228 574 q 297 574 341 548 q 384 521 404 480 q 424 438 424 392 l 424 392 q 424 357 413 330 q 402 302 393 283 l 393 283 l 383 316 l 580 316 l 589 214 l 312 214 l 266 273 q 276 289 285 317 q 294 345 294 383 l 294 383 q 294 422 279 448 q 263 473 229 473 l 229 473 q 205 473 191 462 q 176 450 169 431 q 161 411 161 385 l 161 385 q 161 337 175 308 q 189 279 201 252 l 201 252 l 92 202 q 62 245 45 289 q 28 333 28 390 l 28 390 q 28 446 53 487 q 78 528 123 551 q 167 574 228 574 z m 1039 562 l 1172 562 l 1172 0 l 491 0 l 491 311 q 491 390 506 434 q 520 477 545 507 l 545 507 q 571 539 615 557 q 658 574 717 574 l 717 574 q 775 574 818 557 q 861 539 888 507 l 888 507 q 919 470 931 425 q 943 380 943 311 l 943 311 l 943 214 l 624 214 l 624 101 l 1039 101 l 1039 562 z m 717 473 l 717 473 q 665 473 645 435 q 624 396 624 330 l 624 330 l 624 316 l 810 316 l 810 329 q 810 397 788 435 q 766 473 717 473 z"},"ങ":{"ha":981,"x_min":35,"x_max":950,"o":"m 339 574 l 339 574 q 413 574 463 550 q 513 525 552 476 l 552 476 l 576 396 l 596 235 l 596 0 l 463 0 l 463 286 q 463 359 454 392 q 444 424 427 441 l 427 441 q 413 455 393 463 q 373 471 338 471 l 338 471 q 287 471 247 447 q 206 422 181 371 q 156 320 156 242 l 156 242 l 156 233 q 156 174 165 143 q 174 111 190 99 q 205 86 223 86 l 223 86 q 238 86 249 95 q 260 103 266 121 q 271 138 271 167 l 271 167 q 271 210 259 230 q 246 249 216 249 l 216 249 q 189 249 163 232 q 136 214 108 176 l 108 176 l 92 270 q 115 297 157 321 q 199 345 251 345 l 251 345 q 299 345 333 325 q 366 304 383 266 q 399 227 399 174 l 399 174 q 399 114 379 73 q 358 31 320 10 q 282 -12 228 -12 l 228 -12 q 177 -12 134 13 q 90 38 63 94 q 35 150 35 243 l 35 243 q 35 354 75 428 q 115 501 184 538 q 253 574 339 574 z m 740 574 l 740 574 q 807 574 852 553 q 896 532 919 496 q 942 459 942 414 l 942 414 q 942 382 933 357 q 924 331 905 312 q 885 292 853 277 l 853 277 l 855 283 q 899 266 925 230 q 950 194 950 144 l 950 144 q 950 69 907 29 q 864 -12 775 -12 l 775 -12 q 745 -12 721 -8 q 697 -5 680 -1 l 680 -1 l 697 97 q 710 93 723 91 q 735 89 751 89 l 751 89 q 786 89 802 105 q 817 120 817 154 l 817 154 q 817 170 811 184 q 805 198 793 208 l 793 208 q 782 218 764 224 q 746 229 716 229 l 716 229 l 696 229 l 696 329 l 714 329 q 740 329 759 335 q 777 340 788 351 l 788 351 q 798 360 803 373 q 808 386 808 403 l 808 403 q 808 437 789 455 q 770 473 735 473 l 735 473 q 702 473 679 465 q 656 456 640 437 l 640 437 q 625 421 615 399 q 604 376 600 345 q 596 313 596 267 l 596 267 l 596 170 l 485 179 l 478 290 l 489 402 q 507 453 540 492 q 572 530 622 552 q 672 574 740 574 z"},"ച":{"ha":848,"x_min":19,"x_max":791,"o":"m 658 562 l 791 562 l 791 0 l 19 0 l 19 101 l 388 101 l 322 86 q 342 101 359 132 q 376 163 376 205 l 376 205 q 376 244 363 265 q 349 285 320 285 l 320 285 q 288 285 273 264 q 258 243 258 207 l 258 207 q 258 194 259 185 q 260 175 261 167 l 261 167 l 133 156 q 132 167 130 183 q 127 198 127 216 l 127 216 q 127 294 177 340 q 226 386 318 386 l 318 386 q 375 386 411 370 q 447 354 468 329 q 489 303 497 272 q 505 241 505 212 l 505 212 q 505 185 500 163 q 494 140 484 121 q 473 101 460 83 l 460 83 l 438 101 l 658 101 l 658 562 z"},"ഛ":{"ha":1235,"x_min":19,"x_max":1199,"o":"m 318 386 l 318 386 q 375 386 411 370 q 447 354 468 329 q 489 303 497 272 q 505 241 505 212 l 505 212 q 505 185 500 163 q 494 140 484 121 q 473 101 460 83 l 460 83 l 438 101 l 665 101 l 716 0 l 19 0 l 19 101 l 388 101 l 322 86 q 342 101 359 132 q 376 163 376 205 l 376 205 q 376 244 363 265 q 349 285 320 285 l 320 285 q 288 285 273 264 q 258 243 258 207 l 258 207 q 258 194 259 185 q 260 175 261 167 l 261 167 l 133 156 q 132 167 130 183 q 127 198 127 216 l 127 216 q 127 294 177 340 q 226 386 318 386 z m 876 574 l 876 574 q 958 574 1019 549 q 1079 523 1119 477 q 1159 431 1179 370 q 1199 308 1199 236 l 1199 236 q 1199 147 1175 92 q 1151 37 1106 13 q 1061 -12 997 -12 l 997 -12 q 930 -12 890 17 q 849 46 831 96 q 812 145 812 206 l 812 206 q 812 301 855 355 q 897 408 978 408 l 978 408 q 1025 408 1060 383 q 1094 358 1117 317 q 1139 276 1149 228 l 1149 228 l 1098 223 q 1093 245 1081 265 q 1069 285 1052 299 q 1034 312 1011 312 l 1011 312 q 974 312 958 284 q 942 256 942 200 l 942 200 q 942 165 948 140 q 954 114 969 101 q 983 88 1004 88 l 1004 88 q 1024 88 1039 103 q 1053 117 1061 149 q 1069 180 1069 234 l 1069 234 q 1069 252 1068 271 q 1066 290 1064 307 l 1064 307 q 1063 312 1062 319 q 1061 326 1060 330 l 1060 330 q 1054 366 1032 399 q 1010 431 974 451 q 938 471 889 471 l 889 471 q 827 471 788 448 q 748 425 730 384 q 711 342 711 287 l 711 287 q 711 242 721 202 q 731 162 749 127 q 766 91 790 60 l 790 60 l 738 0 l 698 0 l 685 25 q 657 60 632 100 q 606 139 591 188 q 575 237 575 299 l 575 299 q 575 356 594 406 q 612 455 650 493 q 687 531 744 553 q 800 574 876 574 z"},"ജ":{"ha":849,"x_min":30,"x_max":813,"o":"m 276 574 l 276 574 q 327 574 364 565 q 400 555 428 537 q 455 519 477 497 l 477 497 l 439 500 q 473 542 516 558 q 558 574 606 574 l 606 574 q 682 574 727 544 q 771 514 792 467 q 813 420 813 367 l 813 367 q 813 325 802 292 q 790 259 769 234 q 747 209 715 191 l 715 191 l 554 162 l 461 154 q 438 150 402 149 q 366 148 332 148 l 332 148 l 236 148 q 201 148 186 145 q 170 141 161 134 l 161 134 q 158 129 156 124 q 153 119 153 112 l 153 112 q 153 103 157 96 q 161 88 171 83 q 181 78 200 78 l 200 78 q 225 78 245 81 q 264 84 289 93 q 314 102 353 118 l 353 118 q 383 130 414 140 q 444 150 471 158 q 497 166 520 172 q 542 178 555 182 l 555 182 q 575 188 588 197 q 601 205 610 213 q 619 221 630 227 q 640 232 655 232 l 655 232 q 688 232 719 221 q 749 210 770 184 q 790 157 790 112 l 790 112 q 790 53 753 21 q 715 -12 642 -12 l 642 -12 q 588 -12 555 7 q 522 26 508 56 q 493 86 493 118 l 493 118 q 493 157 511 185 q 528 213 543 225 l 543 225 l 655 216 q 646 208 633 195 q 620 182 610 165 q 599 147 599 122 l 599 122 q 599 94 609 82 q 618 70 638 70 l 638 70 q 661 70 671 82 q 681 94 681 113 l 681 113 q 681 128 677 138 q 672 148 663 154 q 654 160 640 160 l 640 160 q 622 160 608 151 q 593 142 572 124 l 572 124 l 565 143 q 555 131 534 114 q 513 97 485 79 q 456 61 419 46 l 419 46 q 371 26 337 13 q 302 -1 268 -6 q 234 -12 190 -12 l 190 -12 q 144 -12 108 0 q 71 12 51 39 q 30 65 30 109 l 30 109 q 30 145 45 170 q 60 195 88 211 l 88 211 q 110 222 142 229 q 173 235 234 235 l 234 235 l 468 235 q 509 235 540 237 q 570 239 593 244 q 615 249 631 257 l 631 257 q 658 272 673 298 q 687 324 687 364 l 687 364 q 687 396 677 421 q 667 446 646 461 q 625 475 593 475 l 593 475 q 576 475 565 470 q 553 465 545 458 l 545 458 q 527 442 523 415 q 518 388 518 347 l 518 347 l 518 263 l 397 263 l 397 316 q 397 366 392 398 q 387 429 365 453 l 365 453 q 352 467 328 477 q 304 486 270 486 l 270 486 q 248 486 214 480 q 179 474 161 455 l 161 455 q 158 452 156 445 q 154 438 153 434 l 153 434 q 146 426 143 413 q 140 400 140 384 l 140 384 q 140 349 152 337 q 164 324 182 324 l 182 324 q 196 324 205 331 q 213 337 217 349 q 221 360 221 375 l 221 375 q 221 400 210 413 q 198 426 177 426 l 177 426 q 163 426 150 422 q 136 417 125 413 l 125 413 l 71 430 q 92 457 134 468 q 175 479 215 479 l 215 479 q 247 479 273 467 q 298 455 313 430 q 328 405 328 368 l 328 368 q 328 335 314 307 q 299 278 268 261 q 236 244 184 244 l 184 244 q 117 244 77 282 q 37 319 37 386 l 37 386 q 37 442 64 484 q 91 526 144 550 q 197 574 276 574 z"},"ഝ":{"ha":1527,"x_min":35,"x_max":1492,"o":"m 628 574 l 628 574 q 688 574 736 560 q 783 545 816 514 l 816 514 q 856 479 875 427 q 893 374 893 282 l 893 282 l 893 210 q 893 190 896 166 q 899 141 909 125 l 909 125 q 918 109 934 101 q 950 92 969 92 l 969 92 q 988 92 1002 98 q 1015 104 1023 114 l 1023 114 q 1037 130 1043 156 q 1049 182 1049 227 l 1049 227 l 1049 562 l 1181 562 l 1181 239 q 1181 183 1185 155 q 1189 127 1205 110 l 1205 110 q 1215 100 1230 96 q 1245 91 1254 91 l 1254 91 q 1284 91 1308 110 q 1331 129 1344 168 q 1357 207 1357 266 l 1357 266 q 1357 308 1349 349 q 1340 390 1323 430 q 1305 469 1277 508 l 1277 508 l 1380 574 q 1416 532 1441 484 q 1465 436 1479 380 q 1492 324 1492 257 l 1492 257 q 1492 179 1465 118 q 1438 57 1389 23 q 1340 -12 1270 -12 l 1270 -12 q 1218 -12 1178 5 q 1138 22 1103 63 l 1103 63 l 1121 65 q 1105 47 1085 29 q 1065 11 1037 0 q 1008 -12 967 -12 l 967 -12 q 910 -12 872 5 q 834 21 810 48 l 810 48 q 792 69 781 95 q 769 121 764 154 q 758 187 758 225 l 758 225 l 758 281 q 758 322 754 352 q 749 382 739 404 q 729 426 714 441 l 714 441 q 699 456 676 466 q 653 475 618 475 l 618 475 q 594 475 578 472 q 561 469 546 464 l 546 464 l 536 463 q 495 445 466 408 q 437 370 423 323 q 409 276 409 225 l 409 225 q 409 170 418 141 q 427 112 443 101 q 459 89 476 89 l 476 89 q 495 89 511 101 q 526 112 535 141 q 544 169 544 220 l 544 220 q 544 275 531 322 q 517 368 491 403 q 465 438 429 458 l 429 458 l 410 465 q 396 471 379 474 q 362 476 347 476 l 347 476 q 286 476 247 452 q 208 427 190 385 q 171 343 171 287 l 171 287 q 171 239 181 199 q 191 159 210 125 q 228 90 255 56 l 255 56 l 159 -12 q 123 26 95 70 q 67 113 51 167 q 35 221 35 290 l 35 290 q 35 340 50 391 q 64 441 98 483 q 132 524 190 549 q 247 574 333 574 l 333 574 q 382 574 421 563 q 460 552 493 532 l 493 532 l 512 521 q 590 474 634 400 q 678 326 678 224 l 678 224 q 678 145 655 93 q 631 40 586 14 q 541 -12 476 -12 l 476 -12 q 412 -12 368 16 q 323 43 300 96 q 276 149 276 224 l 276 224 q 276 287 295 341 q 314 395 351 439 q 388 483 443 517 l 443 517 l 471 534 q 508 555 547 565 q 586 574 628 574 z"},"ഞ":{"ha":1358,"x_min":35,"x_max":1323,"o":"m 339 574 l 339 574 q 413 574 463 550 q 513 525 552 476 l 552 476 l 534 450 l 596 203 l 596 0 l 463 0 l 463 286 q 463 359 454 392 q 444 424 427 441 l 427 441 q 413 455 393 463 q 372 471 338 471 l 338 471 q 287 471 247 447 q 206 422 181 371 q 156 320 156 242 l 156 242 l 156 233 q 156 174 165 142 q 174 110 190 98 q 205 86 223 86 l 223 86 q 238 86 249 95 q 260 103 266 121 q 271 138 271 167 l 271 167 q 271 210 259 230 q 246 249 216 249 l 216 249 q 189 249 163 232 q 136 214 108 176 l 108 176 l 92 270 q 115 297 157 321 q 199 345 251 345 l 251 345 q 299 345 333 325 q 366 304 383 266 q 399 227 399 174 l 399 174 q 399 114 379 73 q 358 31 320 10 q 282 -12 228 -12 l 228 -12 q 177 -12 134 13 q 90 38 63 94 q 35 150 35 243 l 35 243 q 35 354 75 428 q 115 501 184 538 q 253 574 339 574 z m 745 574 l 745 574 q 781 574 820 564 q 858 554 892 533 l 892 533 l 911 521 q 991 475 1036 400 q 1080 325 1080 224 l 1080 224 q 1080 145 1057 93 q 1033 40 988 14 q 943 -12 878 -12 l 878 -12 q 813 -12 769 16 q 724 43 701 96 q 678 149 678 224 l 678 224 q 678 287 698 341 q 717 394 755 438 q 792 482 847 516 l 847 516 l 876 532 q 906 551 947 563 q 987 574 1040 574 l 1040 574 q 1119 574 1174 550 q 1228 526 1261 485 q 1294 443 1309 392 q 1323 340 1323 285 l 1323 285 q 1323 218 1307 165 q 1291 111 1263 69 q 1234 27 1196 -12 l 1196 -12 l 1103 55 q 1126 86 1145 119 q 1164 152 1176 192 q 1187 232 1187 282 l 1187 282 q 1187 340 1169 383 q 1151 426 1116 451 q 1081 476 1030 476 l 1030 476 q 1004 476 985 473 q 966 470 950 465 l 950 465 l 941 463 q 895 443 867 405 q 838 367 825 320 q 811 273 811 225 l 811 225 q 811 170 820 141 q 828 112 844 101 q 860 89 878 89 l 878 89 q 897 89 913 101 q 929 112 938 141 q 946 169 946 220 l 946 220 q 946 275 932 322 q 918 369 892 404 q 865 439 829 459 l 829 459 l 811 465 q 802 469 793 471 q 784 473 773 475 q 761 476 742 476 l 742 476 q 707 476 685 466 q 662 456 648 445 l 648 445 q 617 420 607 381 q 596 342 596 272 l 596 272 l 596 29 l 475 29 l 475 292 l 514 473 q 538 501 570 524 q 602 547 645 561 q 687 574 745 574 z"},"ട":{"ha":511,"x_min":11,"x_max":494,"o":"m 258 574 l 258 574 q 327 574 386 561 q 444 547 494 523 l 494 523 l 439 431 q 396 451 356 461 q 316 470 264 470 l 264 470 q 226 470 202 460 q 178 450 168 435 q 157 420 157 403 l 157 403 q 157 387 161 377 q 165 366 173 357 l 173 357 q 187 345 207 341 q 226 337 256 337 l 256 337 l 277 337 q 338 337 381 322 q 424 307 449 277 l 449 277 q 469 257 478 230 q 487 203 487 168 l 487 168 q 487 117 461 76 q 435 34 382 11 q 328 -12 247 -12 l 247 -12 q 181 -12 121 2 q 60 15 11 41 l 11 41 l 65 134 q 93 121 119 112 q 145 103 176 98 q 206 92 242 92 l 242 92 q 282 92 307 102 q 331 112 343 129 q 354 145 354 165 l 354 165 q 354 181 349 195 q 343 209 329 217 l 329 217 q 317 225 302 229 q 287 233 253 233 l 253 233 l 244 233 q 181 233 132 248 q 83 263 58 294 l 58 294 q 42 313 33 339 q 23 365 23 397 l 23 397 q 23 447 50 487 q 76 527 129 551 q 181 574 258 574 z"},"ഠ":{"ha":607,"x_min":34,"x_max":573,"o":"m 303 574 l 303 574 q 387 574 448 540 q 508 505 541 439 q 573 373 573 280 l 573 280 q 573 188 541 123 q 508 58 448 23 q 388 -12 303 -12 l 303 -12 q 214 -12 154 25 q 94 62 64 129 q 34 195 34 282 l 34 282 q 34 374 67 440 q 99 505 160 540 q 220 574 303 574 z m 303 91 l 303 91 q 347 91 376 114 q 405 137 421 180 q 436 222 436 281 l 436 281 q 436 341 421 383 q 405 425 377 448 q 348 471 304 471 l 304 471 q 241 471 206 423 q 171 375 171 281 l 171 281 q 171 190 205 141 q 239 91 303 91 z"},"ഡ":{"ha":1114,"x_min":35,"x_max":1079,"o":"m 550 -12 l 550 -12 q 497 -12 460 4 q 423 19 396 47 l 396 47 q 377 68 366 93 q 354 118 348 151 q 342 184 342 227 l 342 227 l 342 325 q 342 378 338 402 q 334 425 326 440 l 326 440 q 316 457 302 464 q 287 471 264 471 l 264 471 q 238 471 217 454 q 195 437 182 399 q 169 361 169 299 l 169 299 q 169 253 178 211 q 187 168 205 130 q 222 91 249 52 l 249 52 l 147 -14 q 114 28 89 76 q 63 123 49 180 q 35 236 35 305 l 35 305 q 35 387 63 447 q 91 507 144 541 q 197 574 272 574 l 272 574 q 322 574 361 559 q 400 544 426 517 l 426 517 q 446 495 456 468 q 466 440 471 407 q 476 374 476 335 l 476 335 l 476 233 q 476 186 479 163 q 482 140 491 123 l 491 123 q 501 107 517 99 q 533 91 555 91 l 555 91 q 572 91 588 98 q 603 105 611 114 l 611 114 q 625 131 631 156 q 636 181 636 226 l 636 226 l 636 562 l 768 562 l 768 239 q 768 180 772 153 q 776 126 792 109 l 792 109 q 803 99 818 95 q 832 90 841 90 l 841 90 q 871 90 894 110 q 917 129 931 168 q 944 207 944 265 l 944 265 q 944 307 936 348 q 927 389 910 429 q 892 469 865 508 l 865 508 l 967 574 q 1003 531 1028 483 q 1052 435 1066 379 q 1079 323 1079 256 l 1079 256 q 1079 178 1053 117 q 1026 56 977 22 q 927 -12 857 -12 l 857 -12 q 806 -12 767 5 q 727 21 691 63 l 691 63 l 709 65 q 679 31 646 10 q 612 -12 550 -12 z"},"ഢ":{"ha":1231,"x_min":35,"x_max":1196,"o":"m 550 -12 l 550 -12 q 497 -12 460 4 q 423 19 396 47 l 396 47 q 377 68 366 94 q 354 119 348 153 q 342 186 342 228 l 342 228 l 342 325 q 342 378 338 402 q 334 425 326 441 l 326 441 q 316 457 302 464 q 287 471 264 471 l 264 471 q 238 471 217 454 q 195 437 182 400 q 169 362 169 300 l 169 300 q 169 254 178 212 q 186 170 204 131 q 221 92 249 53 l 249 53 l 147 -13 q 114 29 89 77 q 63 124 49 181 q 35 238 35 306 l 35 306 q 35 388 63 448 q 91 508 144 541 q 197 574 272 574 l 272 574 q 322 574 361 560 q 400 545 426 517 l 426 517 q 446 496 456 468 q 466 440 471 407 q 476 374 476 336 l 476 336 l 476 235 q 476 186 479 163 q 482 140 491 124 l 491 124 q 501 107 517 100 q 533 92 555 92 l 555 92 q 572 92 587 99 q 602 105 611 115 l 611 115 q 625 131 631 156 q 636 181 636 227 l 636 227 l 636 562 l 768 562 l 768 323 l 709 65 q 681 33 647 11 q 612 -12 550 -12 z m 1002 574 l 1002 574 q 1054 574 1098 550 q 1141 525 1169 470 q 1196 414 1196 320 l 1196 320 q 1196 211 1156 137 q 1116 62 1048 25 q 979 -12 892 -12 l 892 -12 q 818 -12 768 13 q 718 38 678 87 l 678 87 l 656 255 l 656 501 l 768 501 l 768 276 q 768 205 778 172 q 787 138 805 121 l 805 121 q 819 108 840 100 q 860 91 893 91 l 893 91 q 945 91 986 116 q 1027 140 1051 191 q 1075 242 1075 320 l 1075 320 l 1075 331 q 1075 388 1067 419 q 1058 450 1043 463 q 1027 476 1008 476 l 1008 476 q 993 476 982 467 q 971 458 966 441 q 960 423 960 395 l 960 395 q 960 353 973 333 q 985 313 1014 313 l 1014 313 q 1042 313 1069 331 q 1095 349 1123 386 l 1123 386 l 1139 292 q 1116 266 1074 242 q 1031 217 980 217 l 980 217 q 932 217 899 238 q 866 259 849 298 q 832 336 832 387 l 832 387 q 832 448 853 490 q 873 531 911 553 q 949 574 1002 574 z"},"ണ":{"ha":1238,"x_min":35,"x_max":1203,"o":"m 339 574 l 339 574 q 413 574 463 550 q 512 525 553 475 l 553 475 l 515 491 q 546 534 588 554 q 630 574 678 574 l 678 574 q 731 574 767 555 q 803 535 832 500 l 832 500 l 816 501 q 850 540 889 557 q 927 574 979 574 l 979 574 q 1050 574 1100 540 q 1150 506 1177 446 q 1203 385 1203 306 l 1203 306 q 1203 238 1189 181 q 1174 123 1150 76 q 1125 28 1093 -13 l 1093 -13 l 989 54 q 1016 93 1034 133 q 1051 172 1060 213 q 1069 254 1069 297 l 1069 297 q 1069 357 1055 396 q 1041 434 1018 453 q 994 472 965 472 l 965 472 q 956 472 942 467 q 927 461 916 452 l 916 452 q 901 435 897 408 q 892 380 892 323 l 892 323 l 892 0 l 759 0 l 759 331 q 759 380 755 406 q 751 431 737 448 l 737 448 q 728 459 714 466 q 699 472 677 472 l 677 472 q 659 472 645 465 q 630 458 619 446 l 619 446 q 605 429 601 405 q 596 380 596 325 l 596 325 l 596 0 l 463 0 l 463 287 q 463 358 454 391 q 444 424 427 441 l 427 441 q 413 455 394 463 q 374 471 338 471 l 338 471 q 287 471 247 447 q 206 423 181 372 q 156 320 156 242 l 156 242 l 156 233 q 156 174 165 143 q 174 111 190 99 q 205 86 223 86 l 223 86 q 238 86 249 95 q 260 103 266 121 q 271 138 271 167 l 271 167 q 271 210 259 230 q 246 249 216 249 l 216 249 q 189 249 163 232 q 136 214 108 176 l 108 176 l 92 270 q 115 297 157 321 q 199 345 251 345 l 251 345 q 299 345 333 325 q 366 304 383 266 q 399 228 399 175 l 399 175 q 399 114 379 73 q 358 31 320 10 q 282 -12 228 -12 l 228 -12 q 177 -12 134 13 q 90 38 63 94 q 35 150 35 242 l 35 242 q 35 353 75 427 q 115 501 184 538 q 253 574 339 574 z"},"ത":{"ha":956,"x_min":35,"x_max":921,"o":"m 476 -12 l 476 -12 q 412 -12 368 16 q 323 43 300 96 q 276 149 276 224 l 276 224 q 276 287 296 341 q 315 394 353 438 q 390 482 445 516 l 445 516 l 474 532 q 504 551 544 563 q 583 574 638 574 l 638 574 q 717 574 772 550 q 826 526 859 485 q 892 443 907 392 q 921 340 921 285 l 921 285 q 921 218 905 165 q 889 111 861 69 q 832 27 794 -12 l 794 -12 l 700 55 q 724 86 743 119 q 762 152 774 192 q 785 232 785 282 l 785 282 q 785 340 767 383 q 749 426 714 451 q 679 476 628 476 l 628 476 q 602 476 583 473 q 564 470 548 465 l 548 465 l 539 463 q 494 443 466 406 q 437 368 423 321 q 409 273 409 225 l 409 225 q 409 170 418 141 q 427 112 443 101 q 459 89 476 89 l 476 89 q 495 89 511 101 q 526 112 535 141 q 544 169 544 220 l 544 220 q 544 275 531 322 q 517 368 492 403 q 466 438 430 458 l 430 458 l 411 465 q 397 470 380 473 q 363 476 347 476 l 347 476 q 286 476 247 452 q 208 427 190 385 q 171 342 171 287 l 171 287 q 171 239 181 199 q 191 159 210 125 q 228 90 255 56 l 255 56 l 159 -12 q 123 26 95 70 q 67 113 51 167 q 35 221 35 290 l 35 290 q 35 340 50 391 q 64 441 98 483 q 131 524 189 549 q 247 574 332 574 l 332 574 q 381 574 421 564 q 460 553 493 532 l 493 532 l 511 521 q 590 475 634 401 q 678 326 678 224 l 678 224 q 678 145 655 93 q 631 40 586 14 q 541 -12 476 -12 z"},"ഥ":{"ha":834,"x_min":57,"x_max":781,"o":"m 57 562 l 190 562 l 190 101 l 362 101 l 362 0 l 57 0 l 57 562 z m 546 574 l 546 574 q 605 574 647 559 q 688 544 715 518 l 715 518 q 753 483 767 433 q 781 383 781 304 l 781 304 l 781 0 l 308 0 l 308 295 q 308 353 314 394 q 320 434 334 463 q 348 492 372 516 l 372 516 q 399 542 442 558 q 484 574 546 574 z m 545 473 l 545 473 q 519 473 501 465 q 483 457 471 445 l 471 445 q 456 426 449 396 q 441 365 441 302 l 441 302 l 441 101 l 648 101 l 648 294 q 648 363 641 395 q 633 426 618 444 l 618 444 q 606 457 587 465 q 567 473 545 473 z"},"ദ":{"ha":600,"x_min":40,"x_max":569,"o":"m 358 574 l 358 574 q 424 574 469 553 q 514 532 538 496 q 561 460 561 414 l 561 414 q 561 365 541 333 q 520 301 470 277 l 470 277 l 472 283 q 517 266 543 231 q 569 195 569 143 l 569 143 q 569 71 524 30 q 479 -12 390 -12 l 390 -12 q 359 -12 331 -8 q 303 -5 282 0 l 282 0 l 299 98 q 316 94 332 92 q 348 89 364 89 l 364 89 q 403 89 419 105 q 435 121 435 154 l 435 154 q 435 170 430 184 q 424 198 412 208 l 412 208 q 401 218 383 224 q 364 229 331 229 l 331 229 l 302 229 l 302 329 l 328 329 q 358 329 377 335 q 395 340 407 351 l 407 351 q 417 360 422 374 q 427 387 427 403 l 427 403 q 427 437 408 455 q 389 473 352 473 l 352 473 q 294 473 255 442 q 215 410 195 354 q 174 298 174 223 l 174 223 q 174 170 181 118 q 187 66 198 22 l 198 22 l 72 -4 q 58 46 49 108 q 40 170 40 225 l 40 225 q 40 335 77 413 q 113 490 184 532 q 254 574 358 574 z"},"ധ":{"ha":831,"x_min":35,"x_max":797,"o":"m 564 -12 l 564 -12 q 528 -12 502 -4 q 475 4 454 20 q 432 36 410 59 l 410 59 l 423 59 q 390 22 352 5 q 313 -12 260 -12 l 260 -12 q 189 -12 139 22 q 88 56 62 117 q 35 178 35 256 l 35 256 q 35 323 49 380 q 62 437 87 486 q 112 534 146 575 l 146 575 l 249 508 q 222 470 205 432 q 187 393 178 352 q 169 310 169 265 l 169 265 q 169 205 184 166 q 198 127 223 109 q 248 90 276 90 l 276 90 q 294 90 306 96 q 317 101 324 108 l 324 108 q 338 122 344 149 q 349 175 349 221 l 349 221 l 349 562 l 482 562 l 482 217 q 482 167 488 144 q 493 121 506 107 l 506 107 q 513 100 525 95 q 536 90 555 90 l 555 90 q 580 90 605 107 q 630 124 646 163 q 662 201 662 264 l 662 264 q 662 307 654 350 q 645 392 628 432 q 611 472 583 509 l 583 509 l 685 575 q 720 530 745 482 q 769 434 783 379 q 797 324 797 260 l 797 260 q 797 181 770 120 q 743 59 692 24 q 640 -12 564 -12 z"},"ന":{"ha":831,"x_min":35,"x_max":797,"o":"m 267 574 l 267 574 q 306 574 331 566 q 356 558 378 543 q 399 527 422 503 l 422 503 l 408 503 q 441 540 480 557 q 519 574 571 574 l 571 574 q 643 574 693 540 q 743 506 770 446 q 797 385 797 306 l 797 306 q 797 239 783 182 q 769 125 745 78 q 720 30 686 -13 l 686 -13 l 582 54 q 609 93 627 132 q 645 170 654 211 q 662 251 662 297 l 662 297 q 662 357 648 396 q 633 435 609 454 q 585 472 556 472 l 556 472 q 539 472 528 467 q 516 461 507 454 l 507 454 q 494 440 488 414 q 482 387 482 341 l 482 341 l 482 0 l 349 0 l 349 345 q 349 395 344 418 q 338 440 326 455 l 326 455 q 319 462 307 467 q 295 472 277 472 l 277 472 q 251 472 227 455 q 202 438 186 400 q 169 361 169 298 l 169 298 q 169 255 178 213 q 186 171 204 131 q 221 91 248 53 l 248 53 l 147 -13 q 113 31 88 80 q 63 128 49 184 q 35 239 35 302 l 35 302 q 35 380 62 442 q 88 503 140 539 q 192 574 267 574 z"},"ഩ":{"ha":945,"x_min":35,"x_max":910,"o":"m 339 574 l 339 574 q 413 574 463 550 q 512 525 553 475 l 553 475 l 515 492 q 546 536 589 555 q 631 574 684 574 l 684 574 q 755 574 806 540 q 857 506 884 446 q 910 385 910 306 l 910 306 q 910 237 896 180 q 882 123 857 76 q 832 29 799 -13 l 799 -13 l 695 54 q 723 93 741 132 q 758 170 767 211 q 776 251 776 297 l 776 297 q 776 357 762 396 q 747 435 723 454 q 698 472 669 472 l 669 472 q 652 472 641 467 q 629 461 621 454 l 621 454 q 606 440 601 414 q 596 387 596 343 l 596 343 l 596 0 l 463 0 l 463 285 q 463 358 454 391 q 444 424 427 441 l 427 441 q 413 455 393 463 q 373 471 338 471 l 338 471 q 287 471 247 447 q 206 422 181 371 q 156 320 156 242 l 156 242 l 156 233 q 156 174 165 143 q 174 111 190 99 q 205 86 223 86 l 223 86 q 238 86 249 95 q 260 103 266 121 q 271 138 271 167 l 271 167 q 271 210 259 230 q 246 249 216 249 l 216 249 q 189 249 163 232 q 136 214 108 176 l 108 176 l 92 270 q 115 297 157 321 q 199 345 251 345 l 251 345 q 299 345 333 325 q 366 304 383 266 q 399 227 399 174 l 399 174 q 399 114 379 73 q 358 31 320 10 q 282 -12 228 -12 l 228 -12 q 177 -12 134 13 q 90 38 63 94 q 35 150 35 243 l 35 243 q 35 354 75 428 q 115 501 184 538 q 253 574 339 574 z"},"പ":{"ha":817,"x_min":28,"x_max":761,"o":"m 228 362 l 228 362 q 297 362 341 335 q 384 308 404 266 q 424 224 424 178 l 424 178 q 424 144 413 117 q 401 89 393 70 l 393 70 l 383 101 l 628 101 l 628 562 l 761 562 l 761 0 l 312 0 l 266 59 q 275 77 285 105 q 294 132 294 169 l 294 169 q 294 209 279 235 q 263 261 229 261 l 229 261 q 205 261 190 250 q 175 238 168 218 q 161 197 161 172 l 161 172 q 161 123 176 95 q 190 66 202 39 l 202 39 l 93 -12 q 63 31 46 75 q 28 119 28 177 l 28 177 q 28 233 53 274 q 78 315 123 339 q 167 362 228 362 z"},"ഫ":{"ha":1050,"x_min":28,"x_max":998,"o":"m 228 362 l 228 362 q 297 362 341 335 q 384 308 404 266 q 424 224 424 178 l 424 178 q 424 144 413 117 q 401 89 393 70 l 393 70 l 378 101 l 605 101 l 604 0 l 312 0 l 266 59 q 275 77 285 105 q 294 132 294 169 l 294 169 q 294 209 279 235 q 263 261 229 261 l 229 261 q 205 261 190 250 q 175 238 168 218 q 161 197 161 172 l 161 172 q 161 123 176 95 q 190 66 202 39 l 202 39 l 93 -12 q 63 32 46 76 q 28 119 28 177 l 28 177 q 28 233 53 274 q 78 315 123 339 q 167 362 228 362 z m 762 574 l 762 574 q 821 574 863 559 q 904 544 931 518 l 931 518 q 969 483 984 433 q 998 383 998 304 l 998 304 l 998 0 l 524 0 l 524 295 q 524 353 530 394 q 536 434 550 463 q 564 492 588 516 l 588 516 q 615 542 658 558 q 701 574 762 574 z m 762 473 l 762 473 q 735 473 718 465 q 700 457 688 445 l 688 445 q 672 426 665 396 q 657 365 657 302 l 657 302 l 657 101 l 864 101 l 864 294 q 864 363 857 395 q 850 426 834 444 l 834 444 q 823 457 804 465 q 784 473 762 473 z"},"ബ":{"ha":1205,"x_min":35,"x_max":1148,"o":"m 339 574 l 339 574 q 413 574 463 550 q 512 525 554 474 l 554 474 l 574 398 l 596 247 l 596 0 l 463 0 l 463 286 q 463 358 454 391 q 444 424 427 441 l 427 441 q 413 455 393 463 q 373 471 338 471 l 338 471 q 287 471 247 447 q 206 422 181 371 q 156 320 156 242 l 156 242 l 156 233 q 156 174 165 143 q 174 111 190 99 q 205 86 223 86 l 223 86 q 238 86 249 95 q 260 103 266 121 q 271 139 271 167 l 271 167 q 271 210 259 230 q 246 249 216 249 l 216 249 q 189 249 163 232 q 136 214 108 176 l 108 176 l 92 270 q 115 297 157 321 q 199 345 251 345 l 251 345 q 299 345 333 325 q 366 304 383 266 q 399 227 399 174 l 399 174 q 399 114 379 73 q 358 31 320 10 q 282 -12 228 -12 l 228 -12 q 177 -12 134 13 q 90 38 63 94 q 35 150 35 243 l 35 243 q 35 354 75 428 q 115 501 184 538 q 253 574 339 574 z m 1015 562 l 1148 562 l 1148 0 l 755 0 l 700 62 q 729 107 745 145 q 761 183 768 220 q 774 256 774 297 l 774 297 q 774 357 760 396 q 746 435 722 454 q 698 472 669 472 l 669 472 q 652 472 641 467 q 629 461 621 454 l 621 454 q 606 440 601 414 q 596 387 596 343 l 596 343 l 596 3 l 465 3 l 465 240 l 508 423 l 515 492 q 546 536 588 555 q 629 574 684 574 l 684 574 q 754 574 805 540 q 855 506 882 446 q 908 386 908 306 l 908 306 q 908 261 901 222 q 894 182 882 148 q 870 114 851 84 l 851 84 l 825 101 l 1015 101 l 1015 562 z"},"ഭ":{"ha":632,"x_min":40,"x_max":605,"o":"m 388 574 l 388 574 q 454 574 502 557 q 550 539 578 506 q 605 472 605 425 l 605 425 q 605 399 598 377 q 590 355 572 340 l 572 340 q 556 323 528 314 q 499 305 450 305 l 450 305 l 441 305 q 423 305 412 303 q 401 301 393 297 l 393 297 q 388 293 385 287 q 382 281 382 274 l 382 274 q 382 256 400 251 q 418 246 446 246 l 446 246 l 447 246 q 498 246 526 237 q 554 227 570 211 l 570 211 q 588 194 596 173 q 604 152 604 124 l 604 124 q 604 86 586 55 q 567 23 526 6 q 485 -12 417 -12 l 417 -12 q 386 -12 357 -9 q 328 -6 301 1 q 274 7 249 16 l 249 16 l 289 108 q 320 100 349 95 q 378 89 409 89 l 409 89 q 450 89 465 98 q 479 106 479 121 l 479 121 q 479 135 469 142 q 458 148 434 148 l 434 148 l 433 148 q 373 149 339 160 q 304 171 288 191 l 288 191 q 275 206 266 227 q 257 248 257 272 l 257 272 q 257 301 267 325 q 276 349 296 365 l 296 365 q 315 380 341 390 q 367 400 420 400 l 420 400 l 431 400 q 453 400 466 405 q 478 410 478 427 l 478 427 q 478 450 453 461 q 427 472 384 472 l 384 472 q 308 472 262 442 q 215 411 195 355 q 174 299 174 223 l 174 223 q 174 170 181 118 q 187 66 198 22 l 198 22 l 72 -4 q 58 46 49 108 q 40 170 40 225 l 40 225 q 40 333 78 411 q 116 489 194 532 q 271 574 388 574 z"},"മ":{"ha":696,"x_min":50,"x_max":646,"o":"m 341 574 l 341 574 q 425 574 481 554 q 536 534 572 500 l 572 500 q 598 475 615 442 q 631 409 639 365 q 646 321 646 262 l 646 262 l 646 0 l 50 0 l 50 265 q 50 324 58 368 q 65 411 81 444 q 97 476 123 500 l 123 500 q 159 535 210 555 q 261 574 341 574 z m 268 470 l 268 470 q 248 470 231 456 q 213 442 201 417 l 201 417 q 192 396 187 367 q 182 338 182 293 l 182 293 l 182 66 l 156 69 q 201 118 238 173 q 274 228 295 284 q 316 340 316 394 l 316 394 q 316 418 313 435 q 309 451 298 461 q 287 470 268 470 z m 447 366 l 447 366 q 447 319 433 274 q 418 228 392 183 q 366 138 330 91 l 330 91 l 306 97 q 326 99 352 100 q 377 101 385 101 l 385 101 l 514 101 l 514 279 q 514 339 503 377 q 491 415 468 440 q 445 465 407 481 l 407 481 l 410 482 q 423 466 435 436 q 447 405 447 366 z"},"യ":{"ha":969,"x_min":37,"x_max":933,"o":"m 626 -12 l 626 -12 q 568 -12 530 -1 q 491 10 446 35 l 446 35 q 442 39 436 45 q 429 51 425 56 l 425 56 q 370 93 341 142 q 311 190 300 242 q 288 294 288 341 l 288 341 q 288 376 292 405 q 296 433 305 455 l 305 455 l 322 475 q 340 514 368 536 q 396 558 430 566 q 464 574 496 574 l 496 574 q 593 574 646 517 q 699 459 699 344 l 699 344 q 699 248 660 174 q 621 100 556 52 l 556 52 q 548 46 541 41 q 534 36 525 31 l 525 31 q 487 10 445 -1 q 403 -12 347 -12 l 347 -12 q 268 -12 210 14 q 152 39 114 85 q 75 130 56 192 q 37 254 37 327 l 37 327 q 37 403 61 459 q 84 514 133 544 q 182 574 255 574 l 255 574 q 308 574 353 552 q 398 529 430 483 l 430 483 l 329 424 q 313 450 295 462 q 276 473 257 473 l 257 473 q 228 473 209 456 q 190 439 181 407 q 171 375 171 330 l 171 330 q 171 250 195 196 q 218 142 260 115 q 301 87 353 87 l 353 87 q 380 87 399 91 q 418 94 434 100 l 434 100 q 443 103 449 104 q 455 105 462 109 l 462 109 q 492 129 516 166 q 539 202 552 248 q 564 294 564 342 l 564 342 q 564 393 554 421 q 543 449 528 461 q 512 473 494 473 l 494 473 q 473 473 456 461 q 439 448 430 419 q 421 390 421 343 l 421 343 q 421 297 432 253 q 442 209 462 173 q 482 136 512 113 l 512 113 q 519 108 524 108 q 529 107 536 103 l 536 103 q 551 96 574 92 q 596 87 622 87 l 622 87 q 678 87 717 111 q 756 135 777 184 q 797 233 797 304 l 797 304 q 797 359 782 414 q 767 469 737 521 l 737 521 l 847 575 q 890 515 912 448 q 933 380 933 312 l 933 312 q 933 248 918 190 q 903 132 869 86 q 834 40 775 14 q 715 -12 626 -12 z"},"ര":{"ha":695,"x_min":35,"x_max":659,"o":"m 337 574 l 337 574 q 419 574 479 549 q 539 523 579 477 q 619 431 639 370 q 659 308 659 236 l 659 236 q 659 147 636 92 q 612 37 567 13 q 521 -12 457 -12 l 457 -12 q 391 -12 351 17 q 310 46 292 96 q 273 145 273 206 l 273 206 q 273 301 315 355 q 357 408 438 408 l 438 408 q 485 408 520 383 q 554 358 577 317 q 600 276 609 228 l 609 228 l 559 223 q 553 245 542 265 q 530 285 513 299 q 495 312 471 312 l 471 312 q 435 312 419 284 q 403 256 403 200 l 403 200 q 403 165 410 140 q 416 114 430 101 q 443 88 465 88 l 465 88 q 485 88 500 103 q 514 117 522 149 q 529 180 529 234 l 529 234 q 529 252 528 271 q 527 290 524 307 l 524 307 q 524 312 523 319 q 522 326 520 330 l 520 330 q 514 366 492 399 q 470 431 434 451 q 398 471 349 471 l 349 471 q 287 471 247 448 q 207 425 189 384 q 170 342 170 287 l 170 287 q 170 237 180 198 q 190 158 210 123 q 229 88 256 54 l 256 54 l 161 -13 q 125 26 96 70 q 67 114 51 169 q 35 223 35 290 l 35 290 q 35 348 53 399 q 71 450 108 490 q 144 529 202 552 q 259 574 337 574 z"},"റ":{"ha":626,"x_min":34,"x_max":591,"o":"m 315 574 l 315 574 q 391 574 444 551 q 496 527 529 487 q 561 446 576 395 q 591 344 591 287 l 591 287 q 591 221 575 168 q 559 114 530 70 q 501 26 463 -13 l 463 -13 l 367 54 q 392 86 412 120 q 431 153 443 194 q 454 235 454 288 l 454 288 q 454 343 437 385 q 419 426 388 449 q 357 471 317 471 l 317 471 q 273 471 241 449 q 208 427 190 386 q 172 345 172 289 l 172 289 q 172 239 182 199 q 192 159 211 124 q 230 89 258 54 l 258 54 l 160 -13 q 124 25 96 70 q 67 114 51 169 q 34 223 34 290 l 34 290 q 34 343 50 394 q 65 444 99 485 q 132 526 186 550 q 239 574 315 574 z"},"ല":{"ha":790,"x_min":53,"x_max":734,"o":"m 601 562 l 734 562 l 734 0 l 53 0 l 53 311 q 53 390 68 434 q 82 477 107 507 l 107 507 q 133 539 177 557 q 220 574 279 574 l 279 574 q 337 574 380 557 q 423 539 450 507 l 450 507 q 481 470 493 425 q 504 380 504 311 l 504 311 l 504 214 l 186 214 l 186 101 l 601 101 l 601 562 z m 279 473 l 279 473 q 227 473 207 435 q 186 396 186 330 l 186 330 l 186 316 l 372 316 l 372 329 q 372 397 350 435 q 328 473 279 473 z"},"ള":{"ha":672,"x_min":34,"x_max":642,"o":"m 354 472 l 354 472 q 316 472 281 466 q 245 459 217 446 q 188 432 170 412 q 151 392 146 365 l 146 365 q 146 362 148 360 q 150 357 149 353 l 149 353 q 147 346 145 334 q 143 321 143 301 l 143 301 q 143 260 157 238 q 171 215 197 215 l 197 215 q 219 215 229 233 q 239 251 239 279 l 239 279 q 239 299 235 313 q 230 326 220 334 q 209 342 194 342 l 194 342 q 173 342 156 337 q 139 331 119 319 l 119 319 l 45 327 q 65 352 95 375 q 124 397 158 412 q 192 426 223 426 l 223 426 q 274 426 305 407 q 335 388 349 355 q 362 322 362 280 l 362 280 q 362 238 346 203 q 330 167 294 145 q 258 123 202 123 l 202 123 q 152 123 114 146 q 76 169 55 212 q 34 254 34 315 l 34 315 q 34 366 53 413 q 71 460 111 497 q 151 533 215 554 q 278 574 369 574 l 369 574 q 454 574 513 554 q 572 534 604 497 q 635 459 635 404 l 635 404 q 635 362 614 333 q 592 303 552 286 q 511 269 454 262 l 454 262 l 413 310 l 413 332 l 418 332 q 438 332 454 336 q 469 339 482 349 l 482 349 q 491 355 496 367 q 500 378 500 394 l 500 394 q 500 420 486 437 q 471 454 439 463 q 406 472 354 472 z m 642 156 l 642 156 q 642 116 627 86 q 612 56 587 36 l 587 36 q 569 24 548 16 q 526 8 493 4 q 460 0 410 0 l 410 0 l 285 0 q 243 0 225 -2 q 207 -5 197 -10 l 197 -10 q 184 -17 179 -26 q 173 -35 173 -47 l 173 -47 q 173 -59 178 -68 q 182 -78 192 -85 l 192 -85 q 203 -91 222 -94 q 241 -98 282 -98 l 282 -98 l 619 -98 l 619 -201 l 273 -201 q 212 -201 169 -192 q 126 -183 101 -167 l 101 -167 q 71 -147 55 -118 q 39 -90 39 -53 l 39 -53 q 39 -15 55 17 q 71 48 104 69 l 104 69 q 122 79 143 87 q 163 94 196 98 q 228 102 276 102 l 276 102 l 395 102 q 432 102 453 105 q 474 108 486 118 l 486 118 q 497 125 503 138 q 508 150 508 165 l 508 165 q 508 183 502 197 q 495 210 482 218 l 482 218 q 472 225 458 228 q 443 231 414 231 l 414 231 l 413 231 l 413 322 l 527 298 q 581 275 612 241 q 642 207 642 156 z"},"ഴ":{"ha":632,"x_min":32,"x_max":601,"o":"m 239 416 l 239 416 q 239 489 286 532 q 333 574 419 574 l 419 574 q 484 574 524 548 q 564 522 583 482 q 601 441 601 398 l 601 398 q 601 328 571 274 q 540 219 482 188 q 424 156 341 156 l 341 156 l 313 156 q 222 156 160 186 q 97 216 65 271 q 32 326 32 401 l 32 401 q 32 444 45 488 q 58 532 84 575 l 84 575 l 195 527 q 182 496 174 467 q 165 438 165 402 l 165 402 q 165 349 185 315 q 204 281 238 265 q 271 248 311 248 l 311 248 l 343 248 q 384 248 412 267 q 440 286 455 321 q 469 355 469 400 l 469 400 q 469 433 457 456 q 445 479 417 479 l 417 479 q 402 479 391 471 q 379 462 373 446 q 367 430 367 408 l 367 408 q 367 375 379 343 q 391 310 406 278 q 420 245 432 209 q 444 173 444 134 l 444 134 q 444 98 429 64 q 414 30 378 9 q 342 -12 278 -12 l 278 -12 q 241 -12 201 -5 q 161 2 122 17 l 122 17 l 162 111 q 191 100 212 95 q 233 90 253 90 l 253 90 q 292 90 305 111 q 317 132 317 149 l 317 149 q 317 178 306 209 q 294 240 278 274 q 262 307 251 343 q 239 379 239 416 z"},"വ":{"ha":893,"x_min":34,"x_max":836,"o":"m 315 574 l 315 574 q 390 574 442 551 q 494 528 527 489 q 559 450 574 401 q 588 352 588 300 l 588 300 q 588 239 575 191 q 561 142 537 102 q 513 62 483 22 l 483 22 l 516 101 l 703 101 l 703 562 l 836 562 l 836 0 l 430 0 l 374 65 q 395 92 414 124 q 432 155 443 196 q 454 236 454 288 l 454 288 q 454 343 437 385 q 419 426 388 448 q 357 470 317 470 l 317 470 q 273 470 241 449 q 208 427 190 386 q 172 345 172 289 l 172 289 q 172 239 182 199 q 192 159 211 124 q 230 89 258 54 l 258 54 l 160 -13 q 124 25 96 70 q 67 114 51 169 q 34 223 34 290 l 34 290 q 34 343 50 394 q 65 444 99 485 q 132 526 186 550 q 239 574 315 574 z"},"ശ":{"ha":964,"x_min":35,"x_max":928,"o":"m 613 574 l 613 574 q 686 574 745 551 q 803 527 844 483 q 885 439 907 377 q 928 315 928 236 l 928 236 q 928 147 905 92 q 881 37 836 13 q 790 -12 726 -12 l 726 -12 q 659 -12 619 17 q 578 46 560 96 q 542 145 542 206 l 542 206 q 542 301 584 355 q 626 408 707 408 l 707 408 q 754 408 789 383 q 823 358 846 317 q 868 276 878 228 l 878 228 l 826 223 q 822 245 810 265 q 798 285 781 299 q 763 312 739 312 l 739 312 q 704 312 688 284 q 671 256 671 200 l 671 200 q 671 165 678 140 q 684 114 698 101 q 712 88 734 88 l 734 88 q 753 88 768 103 q 782 117 790 149 q 798 180 798 234 l 798 234 q 798 252 797 271 q 796 290 794 307 l 794 307 q 793 312 794 319 q 795 326 792 330 l 792 330 q 788 365 767 398 q 746 430 709 451 q 671 471 617 471 l 617 471 q 582 471 560 465 q 537 458 518 441 l 518 441 q 491 416 482 375 q 473 333 473 263 l 473 263 l 473 228 q 473 173 463 127 q 452 80 423 47 l 423 47 q 397 19 359 4 q 321 -12 267 -12 l 267 -12 q 193 -12 142 21 q 90 54 63 115 q 35 175 35 257 l 35 257 q 35 326 49 383 q 63 439 89 487 q 114 534 147 575 l 147 575 l 248 509 q 222 471 205 432 q 187 393 178 352 q 169 310 169 263 l 169 263 q 169 201 182 164 q 194 126 216 109 q 237 91 262 91 l 262 91 q 282 91 298 99 q 313 107 321 122 l 321 122 q 331 140 335 163 q 338 185 338 223 l 338 223 l 338 287 q 338 375 359 430 q 380 485 420 517 l 420 517 q 454 547 498 561 q 542 574 613 574 z"},"ഷ":{"ha":1083,"x_min":28,"x_max":1027,"o":"m 228 362 l 228 362 q 297 362 340 335 q 383 308 404 266 q 424 224 424 178 l 424 178 q 424 144 413 117 q 401 89 393 70 l 393 70 l 382 101 l 618 101 l 675 0 l 312 0 l 266 59 q 275 77 285 105 q 294 132 294 169 l 294 169 q 294 209 279 235 q 263 261 229 261 l 229 261 q 205 261 190 250 q 175 238 168 218 q 161 197 161 172 l 161 172 q 161 123 176 95 q 190 66 202 39 l 202 39 l 93 -12 q 63 31 46 75 q 28 119 28 177 l 28 177 q 28 233 53 274 q 78 315 123 339 q 167 362 228 362 z m 1027 0 l 606 0 l 606 404 q 606 427 604 440 q 601 453 596 462 l 596 462 q 592 468 586 472 q 580 475 571 475 l 571 475 q 551 475 539 459 q 526 442 526 409 l 526 409 q 526 386 532 368 q 538 349 559 338 q 579 327 621 327 l 621 327 l 655 327 q 702 327 739 347 q 775 367 804 401 q 832 435 854 477 q 876 519 896 562 l 896 562 l 1027 562 l 1027 0 z m 573 574 l 573 574 q 610 574 639 565 q 667 555 686 537 l 686 537 q 710 515 722 481 q 734 447 734 388 l 734 388 l 734 101 l 895 101 l 895 304 q 895 324 896 340 q 897 355 899 370 q 900 385 900 400 l 900 400 l 904 387 q 876 334 838 299 q 800 264 756 248 q 712 231 666 231 l 666 231 l 613 231 q 538 231 492 255 q 445 279 424 320 q 402 361 402 411 l 402 411 q 402 454 422 491 q 441 528 479 551 q 517 574 573 574 z"},"സ":{"ha":1114,"x_min":35,"x_max":1079,"o":"m 564 574 l 564 574 q 618 574 655 559 q 691 543 717 516 l 717 516 q 737 495 749 470 q 760 444 766 411 q 772 378 772 335 l 772 335 l 772 237 q 772 184 776 161 q 779 137 788 122 l 788 122 q 797 106 813 99 q 828 91 850 91 l 850 91 q 876 91 898 109 q 919 126 932 164 q 944 201 944 263 l 944 263 q 944 310 936 352 q 927 393 910 432 q 892 471 865 509 l 865 509 l 967 575 q 1001 534 1026 487 q 1050 439 1065 383 q 1079 326 1079 257 l 1079 257 q 1079 175 1051 115 q 1022 54 970 21 q 917 -12 845 -12 l 845 -12 q 792 -12 753 3 q 713 18 687 46 l 687 46 q 670 68 659 95 q 648 122 643 156 q 638 190 638 227 l 638 227 l 638 329 q 638 376 635 399 q 631 422 622 439 l 622 439 q 613 456 597 464 q 580 471 558 471 l 558 471 q 542 471 526 465 q 510 458 503 448 l 503 448 q 490 431 484 406 q 478 381 478 336 l 478 336 l 478 0 l 345 0 l 345 323 q 345 382 341 409 q 337 436 322 453 l 322 453 q 312 463 297 468 q 282 472 272 472 l 272 472 q 243 472 220 453 q 196 433 183 395 q 169 356 169 297 l 169 297 q 169 254 178 214 q 186 174 204 134 q 221 94 249 54 l 249 54 l 147 -12 q 111 32 86 80 q 61 128 48 185 q 35 241 35 306 l 35 306 q 35 386 61 446 q 87 506 137 540 q 187 574 257 574 l 257 574 q 309 574 348 558 q 387 541 423 499 l 423 499 l 405 497 q 434 531 469 553 q 503 574 564 574 z"},"ഹ":{"ha":1100,"x_min":28,"x_max":1066,"o":"m 228 362 l 228 362 q 297 362 340 335 q 383 308 404 266 q 424 224 424 178 l 424 178 q 424 144 413 117 q 401 89 393 70 l 393 70 l 382 101 l 603 101 l 677 0 l 312 0 l 266 59 q 275 77 285 105 q 294 132 294 169 l 294 169 q 294 209 279 235 q 263 261 229 261 l 229 261 q 205 261 190 250 q 175 238 168 218 q 161 197 161 172 l 161 172 q 161 123 176 95 q 190 66 202 39 l 202 39 l 93 -12 q 63 31 46 75 q 28 119 28 177 l 28 177 q 28 233 53 274 q 78 315 123 339 q 167 362 228 362 z m 789 574 l 789 574 q 865 574 918 551 q 970 527 1003 487 q 1036 446 1051 395 q 1066 344 1066 287 l 1066 287 q 1066 219 1049 166 q 1032 112 1003 68 q 974 24 937 -13 l 937 -13 l 841 54 q 866 85 886 119 q 905 152 917 193 q 928 234 928 288 l 928 288 q 928 343 911 385 q 894 426 863 449 q 832 471 791 471 l 791 471 q 747 471 715 449 q 682 427 664 386 q 646 345 646 289 l 646 289 q 646 241 656 202 q 665 163 683 130 q 701 96 726 65 l 726 65 l 670 0 l 650 0 l 621 19 q 592 57 567 97 q 542 137 527 185 q 511 233 511 297 l 511 297 q 511 347 526 397 q 541 447 575 487 q 608 526 661 550 q 713 574 789 574 z"},"ഺ":{"ha":648,"x_min":18,"x_max":630,"o":"m 162 101 l 630 101 l 630 0 l 416 0 l 416 -202 l 284 -202 l 284 0 l 84 0 l 18 84 l 200 567 l 324 526 l 162 101 z"},"഻":{"ha":0,"x_min":-325,"x_max":-232,"o":"m -325 596 l -325 864 l -232 864 l -232 596 l -325 596 z"},"഼":{"ha":0,"x_min":-253,"x_max":14,"o":"m -253 728 l -253 728 q -253 788 -217 826 q -181 864 -120 864 l -120 864 q -58 864 -22 827 q 14 789 14 728 l 14 728 q 14 668 -21 630 q -57 592 -120 592 l -120 592 q -182 592 -217 630 q -253 667 -253 728 z m -162 730 l -162 730 q -162 704 -151 689 q -140 674 -120 674 l -120 674 q -98 674 -87 689 q -77 703 -77 729 l -77 729 q -77 754 -88 768 q -99 782 -120 782 l -120 782 q -140 782 -151 768 q -162 754 -162 730 z"},"ഽ":{"ha":454,"x_min":-70,"x_max":524,"o":"m 347 800 l 347 800 q 398 800 434 779 q 470 758 492 723 q 514 688 524 647 l 524 647 l 396 620 q 390 646 384 663 q 378 680 368 690 q 358 699 344 699 l 344 699 q 332 699 323 693 q 313 687 306 676 l 306 676 q 301 664 298 642 q 295 620 295 582 l 295 582 l 295 13 q 295 -71 283 -120 q 271 -169 235 -200 l 235 -200 q 214 -219 183 -231 q 151 -244 107 -244 l 107 -244 q 57 -244 21 -223 q -15 -202 -37 -167 q -59 -132 -70 -90 l -70 -90 l 58 -63 q 63 -89 70 -107 q 77 -125 87 -134 q 97 -143 110 -143 l 110 -143 q 125 -143 134 -136 q 143 -129 148 -119 l 148 -119 q 155 -103 158 -79 q 160 -56 160 -23 l 160 -23 l 160 544 q 160 623 172 675 q 183 726 220 756 l 220 756 q 242 776 273 788 q 303 800 347 800 z"},"ാ":{"ha":490,"x_min":18,"x_max":452,"o":"m 452 283 l 452 283 q 452 216 441 162 q 430 108 405 69 q 380 30 338 9 q 296 -12 233 -12 l 233 -12 q 176 -12 138 6 q 99 23 75 51 q 51 78 38 113 q 24 148 18 183 l 18 183 l 152 207 q 158 180 167 153 q 175 125 191 107 q 207 88 234 88 l 234 88 q 263 88 281 111 q 299 133 307 177 q 315 220 315 284 l 315 284 q 315 344 307 387 q 299 429 282 452 q 264 474 236 474 l 236 474 q 211 474 195 458 q 179 441 170 415 q 160 389 154 356 l 154 356 l 21 381 q 30 417 45 451 q 60 485 85 513 q 110 541 148 558 q 186 574 242 574 l 242 574 q 302 574 343 553 q 383 531 407 492 q 431 453 442 400 q 452 347 452 283 z"},"ി":{"ha":247,"x_min":-208,"x_max":190,"o":"m -13 851 l -13 851 q 27 851 62 841 q 96 830 121 810 l 121 810 q 148 789 163 760 q 177 730 184 688 q 190 645 190 579 l 190 579 l 190 0 l 57 0 l 57 549 q 57 593 55 628 q 53 663 48 688 q 42 713 31 726 l 31 726 q 23 738 12 744 q 1 750 -17 750 l -17 750 q -33 750 -46 742 q -60 734 -67 719 q -75 704 -75 682 l -75 682 q -75 670 -73 659 q -72 647 -70 638 l -70 638 l -200 623 q -204 635 -206 651 q -208 666 -208 684 l -208 684 q -208 739 -182 776 q -157 813 -113 832 q -70 851 -13 851 z"},"ീ":{"ha":247,"x_min":-246,"x_max":190,"o":"m -70 851 l -70 851 q -12 851 30 838 q 72 824 110 795 l 110 795 q 158 756 174 696 q 190 635 190 535 l 190 535 l 190 0 l 57 0 l 57 516 q 57 587 52 634 q 46 681 33 710 q 20 738 -3 755 l -3 755 q -21 763 -41 766 q -61 768 -85 768 l -85 768 q -100 768 -115 764 q -131 759 -140 747 q -149 734 -149 712 l -149 712 q -149 690 -139 679 q -129 667 -112 667 l -112 667 q -88 667 -79 681 q -71 695 -71 717 l -71 717 q -71 741 -83 761 q -95 781 -112 795 l -112 795 l -3 780 q 6 770 13 752 q 19 734 19 710 l 19 710 q 19 674 6 645 q -8 615 -36 598 q -65 581 -112 581 l -112 581 q -153 581 -183 596 q -214 611 -230 640 q -246 668 -246 710 l -246 710 q -246 750 -227 782 q -209 814 -170 833 q -131 851 -70 851 z"},"ു":{"ha":329,"x_min":-25,"x_max":336,"o":"m 156 -235 l 156 -235 q 72 -235 24 -185 q -25 -135 -25 -53 l -25 -53 q -25 2 -2 44 q 20 85 60 107 q 100 128 155 128 l 155 128 q 210 128 251 107 q 291 85 314 45 q 336 4 336 -53 l 336 -53 q 336 -109 313 -150 q 290 -191 250 -213 q 210 -235 156 -235 z m 156 -142 l 156 -142 q 184 -142 202 -120 q 219 -99 219 -53 l 219 -53 q 219 -9 202 13 q 185 34 156 34 l 156 34 q 127 34 110 13 q 92 -9 92 -54 l 92 -54 q 92 -99 110 -120 q 128 -142 156 -142 z m 126 574 l 126 574 q 184 574 218 551 q 251 527 265 490 q 279 452 279 409 l 279 409 q 279 333 263 261 q 247 188 223 99 l 223 99 l 99 113 q 120 190 132 258 q 144 326 144 385 l 144 385 q 144 424 132 448 q 119 471 87 471 l 87 471 q 74 471 62 469 q 50 467 39 464 l 39 464 l 19 561 q 39 566 65 570 q 91 574 126 574 z"},"ൂ":{"ha":329,"x_min":-25,"x_max":336,"o":"m 157 -235 l 157 -235 q 72 -235 24 -185 q -25 -135 -25 -53 l -25 -53 q -25 2 -2 44 q 20 85 60 107 q 100 128 155 128 l 155 128 q 210 128 251 107 q 292 85 314 45 q 336 4 336 -53 l 336 -53 q 336 -109 313 -150 q 290 -191 250 -213 q 210 -235 157 -235 z m 156 40 l 156 40 q 122 40 99 18 q 76 -4 76 -54 l 76 -54 q 76 -103 99 -124 q 121 -146 156 -146 l 156 -146 q 190 -146 213 -124 q 236 -103 236 -54 l 236 -54 q 236 -5 214 18 q 192 40 156 40 z m 156 -99 l 156 -99 q 107 -99 83 -68 q 58 -37 58 14 l 58 14 q 58 34 68 56 q 77 77 94 100 l 94 100 l 140 74 q 124 65 114 53 q 104 40 104 26 l 104 26 q 104 11 111 1 q 118 -9 130 -14 q 141 -19 157 -19 l 157 -19 q 174 -19 186 -13 q 198 -8 204 2 q 209 12 209 25 l 209 25 q 209 38 201 50 q 193 62 176 71 l 176 71 l 221 100 q 240 76 248 56 q 256 36 256 15 l 256 15 q 256 -15 247 -40 q 237 -66 215 -82 q 193 -99 156 -99 z m 127 574 l 127 574 q 184 574 218 551 q 251 527 265 490 q 279 452 279 409 l 279 409 q 279 333 263 261 q 247 188 223 99 l 223 99 l 99 113 q 120 190 132 258 q 144 326 144 385 l 144 385 q 144 424 132 448 q 120 471 87 471 l 87 471 q 75 471 63 469 q 50 467 39 464 l 39 464 l 19 561 q 39 566 65 570 q 91 574 127 574 z"},"ൃ":{"ha":259,"x_min":-135,"x_max":258,"o":"m 47 -334 l 47 -334 q -11 -334 -52 -315 q -93 -297 -114 -261 q -135 -226 -135 -174 l -135 -174 q -135 -107 -92 -65 q -50 -24 36 -24 l 36 -24 q 68 -24 104 -35 q 139 -46 182 -79 l 182 -79 l 151 -166 q 125 -143 100 -132 q 74 -122 44 -122 l 44 -122 q 19 -122 5 -135 q -10 -149 -10 -177 l -10 -177 q -10 -203 5 -217 q 19 -232 45 -232 l 45 -232 q 73 -232 91 -221 q 109 -210 118 -186 q 127 -162 127 -123 l 127 -123 q 127 -99 122 -70 q 117 -42 107 -6 q 96 29 82 74 l 82 74 q 63 127 50 186 q 36 245 36 307 l 36 307 q 36 378 54 442 q 72 505 99 562 l 99 562 l 236 562 q 213 513 198 472 q 182 431 175 393 q 168 355 168 314 l 168 314 q 168 264 179 218 q 189 171 208 113 l 208 113 q 224 63 235 23 q 246 -18 252 -53 q 258 -88 258 -122 l 258 -122 q 258 -197 229 -243 q 200 -290 152 -312 q 104 -334 47 -334 z"},"ൄ":{"ha":259,"x_min":-263,"x_max":257,"o":"m -26 -334 l -26 -334 q -103 -334 -156 -312 q -209 -291 -236 -250 q -263 -209 -263 -153 l -263 -153 q -263 -96 -230 -61 q -198 -26 -145 -26 l -145 -26 q -113 -26 -94 -40 q -75 -55 -61 -76 l -61 -76 l -74 -72 q -60 -51 -40 -38 q -20 -26 5 -26 l 5 -26 q 35 -26 54 -37 q 72 -48 82 -65 q 92 -83 96 -103 q 99 -123 99 -142 l 99 -142 l 99 -176 l 20 -176 l 20 -157 q 20 -137 16 -125 q 12 -114 -4 -114 l -4 -114 q -20 -114 -25 -125 q -30 -136 -30 -156 l -30 -156 l -30 -176 l -109 -176 l -109 -155 q -109 -137 -114 -125 q -119 -114 -132 -114 l -132 -114 q -144 -114 -151 -124 q -159 -134 -159 -152 l -159 -152 q -159 -190 -126 -211 q -94 -232 -27 -232 l -27 -232 q 39 -232 81 -205 q 123 -178 123 -118 l 123 -118 q 123 -92 118 -65 q 113 -39 104 -5 q 94 29 80 74 l 80 74 q 65 125 51 183 q 36 240 36 307 l 36 307 q 36 378 54 442 q 72 505 99 562 l 99 562 l 236 562 q 213 513 198 472 q 182 431 175 393 q 168 355 168 314 l 168 314 q 168 264 179 218 q 189 171 207 115 l 207 115 q 225 62 236 24 q 247 -15 252 -48 q 257 -82 257 -119 l 257 -119 q 257 -184 225 -232 q 193 -280 130 -307 q 67 -334 -26 -334 z"},"െ":{"ha":668,"x_min":36,"x_max":633,"o":"m 230 -12 l 230 -12 q 178 -12 134 14 q 90 39 63 94 q 36 148 36 240 l 36 240 q 36 315 58 376 q 79 437 121 482 q 162 526 221 550 q 279 574 353 574 l 353 574 q 424 574 477 552 q 529 530 564 491 q 599 451 616 399 q 633 347 633 286 l 633 286 q 633 219 616 165 q 599 111 570 68 q 541 25 505 -13 l 505 -13 l 410 54 q 435 85 455 118 q 475 151 486 191 q 497 231 497 285 l 497 285 q 497 341 480 383 q 463 425 428 448 q 393 471 341 471 l 341 471 q 286 471 244 440 q 202 409 180 356 q 157 303 157 236 l 157 236 q 157 175 166 143 q 174 111 190 99 q 205 86 223 86 l 223 86 q 238 86 249 95 q 260 103 266 121 q 271 138 271 166 l 271 166 q 271 209 259 229 q 246 249 216 249 l 216 249 q 189 249 163 231 q 136 213 108 176 l 108 176 l 92 270 q 115 297 156 321 q 197 345 249 345 l 249 345 q 298 345 332 325 q 365 304 382 266 q 399 228 399 175 l 399 175 q 399 115 379 74 q 358 32 321 10 q 284 -12 230 -12 z"},"േ":{"ha":563,"x_min":33,"x_max":531,"o":"m 333 -12 l 333 -12 q 270 -12 216 5 q 161 22 120 59 q 79 96 56 152 q 33 208 33 285 l 33 285 q 33 359 57 414 q 81 468 123 504 q 165 539 221 557 q 277 574 342 574 l 342 574 q 412 574 454 554 q 495 533 513 499 q 531 465 531 423 l 531 423 q 531 380 513 350 q 494 320 462 304 q 429 288 387 288 l 387 288 q 334 288 302 307 q 270 325 256 355 q 242 385 242 420 l 242 420 q 242 443 249 464 q 255 484 262 496 l 262 496 l 374 509 q 358 495 350 474 q 341 452 341 427 l 341 427 q 341 403 350 389 q 359 375 380 375 l 380 375 q 401 375 410 387 q 419 399 419 420 l 419 420 q 419 447 403 462 q 387 477 358 477 l 358 477 q 343 477 328 477 q 313 476 305 476 l 305 476 q 262 476 230 453 q 198 429 180 386 q 162 343 162 284 l 162 284 q 162 226 178 182 q 194 138 225 113 q 255 88 298 86 l 298 86 q 309 85 324 85 q 338 85 350 85 l 350 85 q 372 85 386 92 q 400 98 407 110 q 414 122 414 142 l 414 142 q 414 164 406 177 q 397 189 379 189 l 379 189 q 357 189 347 174 q 336 159 336 134 l 336 134 q 336 107 345 87 q 354 66 370 53 l 370 53 l 254 68 q 247 80 242 101 q 236 121 236 145 l 236 145 q 236 175 250 206 q 263 237 295 257 q 327 276 383 276 l 383 276 q 424 276 457 260 q 489 243 508 213 q 526 183 526 138 l 526 138 q 526 97 506 63 q 486 28 444 8 q 401 -12 333 -12 z"},"ൈ":{"ha":1335,"x_min":36,"x_max":1300,"o":"m 230 -12 l 230 -12 q 178 -12 134 14 q 90 39 63 94 q 36 148 36 240 l 36 240 q 36 315 58 376 q 79 437 121 482 q 162 526 221 550 q 279 574 353 574 l 353 574 q 424 574 477 552 q 529 530 564 491 q 599 451 616 399 q 633 347 633 286 l 633 286 q 633 219 616 165 q 599 111 570 68 q 541 25 505 -13 l 505 -13 l 410 54 q 435 85 455 118 q 475 151 486 191 q 497 231 497 285 l 497 285 q 497 341 480 383 q 463 425 428 448 q 393 471 341 471 l 341 471 q 286 471 244 440 q 202 409 180 356 q 157 303 157 236 l 157 236 q 157 175 166 143 q 174 111 190 99 q 205 86 223 86 l 223 86 q 238 86 249 95 q 260 103 266 121 q 271 138 271 166 l 271 166 q 271 209 259 229 q 246 249 216 249 l 216 249 q 189 249 163 231 q 136 213 108 176 l 108 176 l 92 270 q 115 297 156 321 q 197 345 249 345 l 249 345 q 298 345 332 325 q 365 304 382 266 q 399 228 399 175 l 399 175 q 399 115 379 74 q 358 32 321 10 q 284 -12 230 -12 z m 897 -12 l 897 -12 q 845 -12 801 14 q 757 39 730 94 q 703 148 703 240 l 703 240 q 703 315 725 376 q 746 437 788 482 q 829 526 888 550 q 946 574 1020 574 l 1020 574 q 1091 574 1144 552 q 1196 530 1231 491 q 1266 451 1283 399 q 1300 347 1300 286 l 1300 286 q 1300 219 1283 165 q 1266 111 1237 68 q 1208 25 1172 -13 l 1172 -13 l 1077 54 q 1102 85 1122 118 q 1142 151 1153 191 q 1164 231 1164 285 l 1164 285 q 1164 341 1147 383 q 1130 425 1095 448 q 1060 471 1008 471 l 1008 471 q 953 471 911 440 q 869 409 847 356 q 824 303 824 236 l 824 236 q 824 175 833 143 q 841 111 857 99 q 872 86 890 86 l 890 86 q 905 86 916 95 q 927 103 933 121 q 938 138 938 166 l 938 166 q 938 209 926 229 q 913 249 883 249 l 883 249 q 856 249 830 231 q 803 213 775 176 l 775 176 l 759 270 q 782 297 823 321 q 864 345 916 345 l 916 345 q 965 345 999 325 q 1032 304 1049 266 q 1066 228 1066 175 l 1066 175 q 1066 115 1046 74 q 1025 32 988 10 q 951 -12 897 -12 z"},"ൊ":{"ha":1336,"x_min":36,"x_max":1298,"o":"m 230 -12 l 230 -12 q 178 -12 134 14 q 90 39 63 94 q 36 148 36 240 l 36 240 q 36 315 58 376 q 79 437 121 482 q 162 526 221 550 q 279 574 353 574 l 353 574 q 424 574 477 552 q 529 530 564 491 q 599 451 616 399 q 633 347 633 286 l 633 286 q 633 219 616 165 q 599 111 570 68 q 541 25 505 -13 l 505 -13 l 410 54 q 435 85 455 118 q 475 151 486 191 q 497 231 497 285 l 497 285 q 497 341 480 383 q 463 425 428 448 q 393 471 341 471 l 341 471 q 286 471 244 440 q 202 409 180 356 q 157 303 157 236 l 157 236 q 157 175 166 143 q 174 111 190 99 q 205 86 223 86 l 223 86 q 238 86 249 95 q 260 103 266 121 q 271 138 271 166 l 271 166 q 271 209 259 229 q 246 249 216 249 l 216 249 q 189 249 163 231 q 136 213 108 176 l 108 176 l 92 270 q 115 297 156 321 q 197 345 249 345 l 249 345 q 298 345 332 325 q 365 304 382 266 q 399 228 399 175 l 399 175 q 399 115 379 74 q 358 32 321 10 q 284 -12 230 -12 z m 766 214 l 766 214 q 731 214 710 235 q 688 255 688 296 l 688 296 q 688 337 709 358 q 730 378 766 378 l 766 378 q 803 378 825 358 q 846 338 846 296 l 846 296 q 846 255 825 235 q 803 214 766 214 z m 1298 283 l 1298 283 q 1298 216 1287 162 q 1276 108 1251 69 q 1226 30 1184 9 q 1142 -12 1079 -12 l 1079 -12 q 1022 -12 984 6 q 945 23 921 51 q 897 78 884 113 q 870 148 864 183 l 864 183 l 998 207 q 1004 180 1013 153 q 1021 125 1037 107 q 1053 88 1080 88 l 1080 88 q 1109 88 1127 111 q 1145 133 1153 177 q 1161 220 1161 284 l 1161 284 q 1161 344 1153 387 q 1145 429 1128 452 q 1110 474 1082 474 l 1082 474 q 1057 474 1041 458 q 1025 441 1016 415 q 1006 389 1000 356 l 1000 356 l 867 381 q 876 417 891 451 q 906 485 931 513 q 956 541 994 558 q 1032 574 1088 574 l 1088 574 q 1148 574 1189 553 q 1229 531 1253 492 q 1277 453 1288 400 q 1298 347 1298 283 z"},"ോ":{"ha":1211,"x_min":33,"x_max":1173,"o":"m 333 -12 l 333 -12 q 270 -12 216 5 q 161 22 120 59 q 79 96 56 152 q 33 208 33 285 l 33 285 q 33 359 57 414 q 81 468 123 504 q 165 539 221 557 q 277 574 342 574 l 342 574 q 412 574 454 554 q 495 533 513 499 q 531 465 531 423 l 531 423 q 531 380 513 350 q 494 320 462 304 q 429 288 387 288 l 387 288 q 334 288 302 307 q 270 325 256 355 q 242 385 242 420 l 242 420 q 242 443 249 464 q 255 484 262 496 l 262 496 l 374 509 q 358 495 350 474 q 341 452 341 427 l 341 427 q 341 403 350 389 q 359 375 380 375 l 380 375 q 401 375 410 387 q 419 399 419 420 l 419 420 q 419 447 403 462 q 387 477 358 477 l 358 477 q 343 477 328 477 q 313 476 305 476 l 305 476 q 262 476 230 453 q 198 429 180 386 q 162 343 162 284 l 162 284 q 162 226 178 182 q 194 138 225 113 q 255 88 298 86 l 298 86 q 309 85 324 85 q 338 85 350 85 l 350 85 q 372 85 386 92 q 400 98 407 110 q 414 122 414 142 l 414 142 q 414 164 406 177 q 397 189 379 189 l 379 189 q 357 189 347 174 q 336 159 336 134 l 336 134 q 336 107 345 87 q 354 66 370 53 l 370 53 l 254 68 q 247 80 242 101 q 236 121 236 145 l 236 145 q 236 175 250 206 q 263 237 295 257 q 327 276 383 276 l 383 276 q 424 276 457 260 q 489 243 508 213 q 526 183 526 138 l 526 138 q 526 97 506 63 q 486 28 444 8 q 401 -12 333 -12 z m 640 214 l 640 214 q 605 214 584 235 q 562 255 562 296 l 562 296 q 562 337 583 358 q 604 378 640 378 l 640 378 q 677 378 699 358 q 720 338 720 296 l 720 296 q 720 255 699 235 q 677 214 640 214 z m 1173 283 l 1173 283 q 1173 216 1162 162 q 1151 108 1126 69 q 1101 30 1059 9 q 1017 -12 954 -12 l 954 -12 q 897 -12 859 6 q 820 23 796 51 q 772 78 759 113 q 745 148 739 183 l 739 183 l 873 207 q 879 180 888 153 q 896 125 912 107 q 928 88 955 88 l 955 88 q 984 88 1002 111 q 1020 133 1028 177 q 1036 220 1036 284 l 1036 284 q 1036 344 1028 387 q 1020 429 1003 452 q 985 474 957 474 l 957 474 q 932 474 916 458 q 900 441 891 415 q 881 389 875 356 l 875 356 l 742 381 q 751 417 766 451 q 781 485 806 513 q 831 541 869 558 q 907 574 963 574 l 963 574 q 1023 574 1064 553 q 1104 531 1128 492 q 1152 453 1163 400 q 1173 347 1173 283 z"},"ൌ":{"ha":1564,"x_min":36,"x_max":1529,"o":"m 230 -12 l 230 -12 q 178 -12 134 14 q 90 39 63 94 q 36 148 36 240 l 36 240 q 36 315 58 376 q 79 437 121 482 q 162 526 221 550 q 279 574 353 574 l 353 574 q 424 574 477 552 q 529 530 564 491 q 599 451 616 399 q 633 347 633 286 l 633 286 q 633 219 616 165 q 599 111 570 68 q 541 25 505 -13 l 505 -13 l 410 54 q 435 85 455 118 q 475 151 486 191 q 497 231 497 285 l 497 285 q 497 341 480 383 q 463 425 428 448 q 393 471 341 471 l 341 471 q 286 471 244 440 q 202 409 180 356 q 157 303 157 236 l 157 236 q 157 175 166 143 q 174 111 190 99 q 205 86 223 86 l 223 86 q 238 86 249 95 q 260 103 266 121 q 271 138 271 166 l 271 166 q 271 209 259 229 q 246 249 216 249 l 216 249 q 189 249 163 231 q 136 213 108 176 l 108 176 l 92 270 q 115 297 156 321 q 197 345 249 345 l 249 345 q 298 345 332 325 q 365 304 382 266 q 399 228 399 175 l 399 175 q 399 115 379 74 q 358 32 321 10 q 284 -12 230 -12 z m 766 214 l 766 214 q 731 214 710 235 q 688 255 688 296 l 688 296 q 688 337 709 358 q 730 378 766 378 l 766 378 q 803 378 825 358 q 846 338 846 296 l 846 296 q 846 255 825 235 q 803 214 766 214 z m 1335 574 l 1335 574 q 1397 574 1441 542 q 1484 509 1507 451 q 1530 392 1530 312 l 1530 312 q 1530 205 1499 133 q 1467 61 1406 25 q 1345 -12 1252 -12 l 1252 -12 q 1194 -12 1145 -1 q 1096 9 1050 33 l 1050 33 l 1101 129 q 1133 113 1168 103 q 1202 92 1242 92 l 1242 92 q 1299 92 1333 118 q 1366 143 1381 191 q 1395 238 1395 307 l 1395 307 q 1395 394 1375 434 q 1355 473 1323 473 l 1323 473 q 1309 473 1300 467 q 1291 461 1286 450 l 1286 450 q 1280 440 1277 425 q 1274 409 1274 373 l 1274 373 l 1274 264 l 1143 264 l 1143 349 q 1143 394 1141 415 q 1138 435 1133 447 l 1133 447 q 1126 460 1115 467 q 1103 473 1090 473 l 1090 473 q 1059 473 1044 447 q 1028 421 1028 388 l 1028 388 q 1028 357 1033 332 q 1037 306 1042 287 l 1042 287 l 914 260 q 906 288 901 323 q 895 358 895 388 l 895 388 q 895 437 914 479 q 932 521 972 548 q 1011 574 1074 574 l 1074 574 q 1123 574 1156 559 q 1189 543 1214 513 l 1214 513 l 1198 514 q 1224 546 1256 560 q 1288 574 1335 574 z"},"്":{"ha":0,"x_min":-280,"x_max":75,"o":"m -103 596 l -103 596 q -166 596 -205 617 q -244 638 -262 675 q -280 711 -280 758 l -280 758 q -280 781 -276 800 q -273 818 -268 831 l -268 831 l -152 812 q -155 802 -157 789 q -159 776 -159 765 l -159 765 q -159 737 -152 721 q -145 705 -132 698 q -119 691 -100 691 l -100 691 q -82 691 -69 698 q -56 705 -48 721 q -41 737 -41 765 l -41 765 q -41 777 -43 790 q -45 802 -47 812 l -47 812 l 64 831 q 69 818 72 800 q 75 782 75 759 l 75 759 q 75 711 58 675 q 40 638 1 617 q -39 596 -103 596 z"},"ൎ":{"ha":0,"x_min":-341,"x_max":-196,"o":"m -341 829 l -196 829 l -205 637 l -333 637 l -341 829 z"},"൏":{"ha":1150,"x_min":41,"x_max":1113,"o":"m 547 574 l 547 574 q 621 574 671 550 q 720 525 761 475 l 761 475 l 723 492 q 754 536 796 555 q 838 574 887 574 l 887 574 q 958 574 1009 537 q 1059 499 1086 424 q 1113 349 1113 241 l 1113 241 q 1113 85 1058 -24 q 1002 -133 884 -189 q 766 -245 578 -245 l 578 -245 q 451 -245 360 -219 q 268 -194 207 -148 q 145 -102 109 -41 q 72 19 57 90 q 41 161 41 237 l 41 237 q 41 311 59 391 q 77 471 112 552 l 112 552 l 223 511 q 194 444 180 373 q 165 302 165 235 l 165 235 q 165 175 176 120 q 187 64 214 18 q 240 -28 287 -63 q 334 -98 406 -117 q 478 -136 578 -136 l 578 -136 q 700 -136 778 -108 q 856 -81 900 -31 q 943 19 960 89 q 977 159 977 246 l 977 246 q 977 322 965 372 q 952 422 930 447 q 907 472 876 472 l 876 472 q 860 472 849 467 q 837 461 829 454 l 829 454 q 814 440 809 414 q 804 387 804 343 l 804 343 l 804 0 l 671 0 l 671 285 q 671 358 662 391 q 652 424 635 441 l 635 441 q 621 455 601 463 q 581 471 546 471 l 546 471 q 495 471 455 447 q 414 422 389 371 q 364 320 364 242 l 364 242 l 364 233 q 364 174 373 143 q 382 111 398 99 q 413 86 431 86 l 431 86 q 447 86 458 95 q 468 103 474 121 q 479 138 479 167 l 479 167 q 479 210 467 230 q 454 249 424 249 l 424 249 q 397 249 371 232 q 344 214 316 176 l 316 176 l 300 270 q 323 297 365 321 q 407 345 459 345 l 459 345 q 507 345 540 325 q 573 304 590 266 q 607 227 607 174 l 607 174 q 607 114 587 73 q 566 31 528 10 q 490 -12 436 -12 l 436 -12 q 385 -12 342 13 q 298 38 271 94 q 244 150 244 243 l 244 243 q 244 354 284 428 q 323 501 392 538 q 461 574 547 574 z"},"ൔ":{"ha":598,"x_min":50,"x_max":581,"o":"m 176 800 l 176 800 q 213 800 241 789 q 269 778 283 761 l 283 761 q 303 738 310 709 q 317 679 317 632 l 317 632 l 317 524 q 317 482 321 445 q 325 408 343 370 q 361 332 401 287 l 401 287 l 418 266 q 446 232 488 188 q 530 143 581 93 l 581 93 l 535 0 l 50 0 l 50 265 q 50 324 58 368 q 66 411 82 444 q 97 476 123 500 l 123 500 q 158 533 208 553 q 257 573 315 573 l 315 573 q 374 573 420 550 q 466 527 493 483 q 519 438 519 374 l 519 374 q 519 315 492 272 q 464 228 429 192 l 429 192 l 405 171 q 385 151 366 132 q 346 113 327 96 q 307 79 286 64 l 286 64 l 300 99 q 324 100 343 102 q 362 103 366 103 l 366 103 l 373 103 q 375 103 389 102 q 403 101 420 101 q 437 100 449 97 l 449 97 l 461 62 q 430 94 403 122 q 375 150 351 175 l 351 175 l 319 214 q 268 269 242 318 q 216 366 208 416 q 199 466 199 525 l 199 525 l 199 616 q 199 646 195 660 q 190 674 181 683 l 181 683 q 176 690 165 694 q 153 697 138 697 l 138 697 q 123 697 110 695 q 97 693 87 690 l 87 690 l 64 785 q 86 792 115 796 q 143 800 176 800 z m 182 276 l 182 66 l 149 66 q 185 98 220 130 q 254 162 284 196 q 314 229 336 265 l 336 265 l 361 295 q 374 316 384 337 q 393 357 393 386 l 393 386 q 393 416 381 436 q 368 456 346 466 q 324 476 294 476 l 294 476 q 258 476 235 459 q 211 442 200 414 l 200 414 q 195 399 191 382 q 186 364 184 339 q 182 314 182 276 l 182 276 z"},"ൕ":{"ha":969,"x_min":37,"x_max":935,"o":"m 640 -12 l 640 -12 q 594 -12 562 -7 q 529 -2 503 8 q 476 18 446 35 l 446 35 q 441 39 435 45 q 428 51 424 56 l 424 56 q 370 93 341 142 q 311 191 299 243 q 287 294 287 341 l 287 341 q 287 376 292 405 q 296 433 304 455 l 304 455 l 321 475 q 340 514 368 536 q 396 557 430 566 q 463 574 495 574 l 495 574 q 593 574 646 517 q 699 459 699 344 l 699 344 q 699 280 683 227 q 666 173 634 130 q 601 86 555 52 l 555 52 q 547 46 540 41 q 533 36 524 31 l 524 31 q 487 10 445 -1 q 403 -12 346 -12 l 346 -12 q 268 -12 210 14 q 152 39 113 85 q 74 130 56 192 q 37 254 37 327 l 37 327 q 37 403 61 459 q 84 514 133 544 q 181 574 255 574 l 255 574 q 307 574 352 552 q 397 529 430 483 l 430 483 l 328 424 q 313 450 295 462 q 276 473 257 473 l 257 473 q 227 473 209 456 q 190 439 181 407 q 171 375 171 330 l 171 330 q 171 250 195 196 q 218 142 259 115 q 300 87 353 87 l 353 87 q 379 87 398 91 q 417 94 433 100 l 433 100 q 442 103 449 104 q 455 105 462 109 l 462 109 q 492 129 516 166 q 539 202 552 248 q 564 294 564 342 l 564 342 q 564 393 554 421 q 543 449 527 461 q 511 473 494 473 l 494 473 q 472 473 455 461 q 438 448 430 419 q 421 390 421 343 l 421 343 q 421 297 432 253 q 442 209 463 173 q 483 137 512 114 l 512 114 q 519 109 525 108 q 530 107 537 103 l 537 103 q 551 96 575 92 q 599 87 635 87 l 635 87 q 690 87 727 107 q 764 127 782 162 q 800 197 800 244 l 800 244 q 800 277 793 308 q 786 339 769 376 q 752 413 724 460 l 724 460 q 704 500 687 533 q 670 566 661 596 q 651 626 651 660 l 651 660 q 651 695 666 727 q 680 759 714 780 q 748 800 808 800 l 808 800 q 847 800 873 795 q 899 790 912 786 l 912 786 l 891 688 q 879 692 867 694 q 854 696 837 696 l 837 696 q 808 696 796 683 q 783 670 783 648 l 783 648 q 783 630 788 614 q 792 597 805 572 q 818 546 842 503 l 842 503 q 872 451 893 408 q 914 364 925 324 q 935 284 935 241 l 935 241 q 935 205 926 169 q 917 132 897 100 q 877 67 843 42 q 809 17 759 3 q 709 -12 640 -12 z"},"ൖ":{"ha":702,"x_min":32,"x_max":671,"o":"m 244 178 l 244 178 q 244 154 252 134 q 260 114 278 103 q 295 91 323 91 l 323 91 q 358 91 373 109 q 388 126 388 156 l 388 156 q 388 186 379 213 q 369 239 356 268 q 343 297 333 332 q 323 367 323 412 l 323 412 q 323 459 343 496 q 363 532 401 553 q 438 574 490 574 l 490 574 q 554 574 594 549 q 634 523 653 483 q 671 442 671 401 l 671 401 q 671 331 642 276 q 613 220 553 189 q 493 157 399 157 l 399 157 l 358 157 q 319 157 285 162 q 250 167 215 181 l 215 181 l 175 188 q 133 207 101 237 q 69 267 51 309 q 32 350 32 401 l 32 401 q 32 444 45 488 q 57 532 84 575 l 84 575 l 195 527 q 182 497 174 467 q 165 436 165 403 l 165 403 q 165 374 174 347 q 182 319 188 302 l 188 302 l 235 277 q 258 265 291 257 q 324 248 351 248 l 351 248 l 405 248 q 450 248 480 267 q 510 286 525 321 q 539 356 539 400 l 539 400 q 539 433 527 456 q 515 479 487 479 l 487 479 q 473 479 462 471 q 450 462 444 446 q 438 430 438 408 l 438 408 q 438 375 450 342 q 461 309 476 276 q 491 243 503 209 q 514 174 514 137 l 514 137 q 514 110 506 84 q 497 57 476 36 q 455 14 419 1 q 383 -12 326 -12 l 326 -12 q 268 -12 223 8 q 178 27 152 68 q 126 109 126 175 l 126 175 q 126 215 140 261 q 153 307 175 357 q 197 406 218 458 l 218 458 q 242 507 256 540 q 269 573 276 598 q 282 623 282 646 l 282 646 q 282 670 268 684 q 253 697 222 697 l 222 697 q 212 697 199 695 q 185 693 173 690 l 173 690 l 151 785 q 172 793 205 797 q 238 800 270 800 l 270 800 q 330 800 361 779 q 391 757 402 727 q 412 697 412 672 l 412 672 q 412 648 407 622 q 401 595 390 565 q 378 534 359 494 q 340 454 314 401 l 314 401 q 287 346 273 311 q 258 275 252 252 q 246 228 245 212 q 244 195 244 178 z"},"ൗ":{"ha":697,"x_min":28,"x_max":663,"o":"m 468 574 l 468 574 q 530 574 574 542 q 617 509 640 451 q 663 392 663 312 l 663 312 q 663 205 632 133 q 600 61 539 25 q 478 -12 385 -12 l 385 -12 q 327 -12 278 -1 q 229 9 183 33 l 183 33 l 234 129 q 266 113 301 103 q 335 92 375 92 l 375 92 q 432 92 466 118 q 499 143 514 191 q 528 238 528 307 l 528 307 q 528 394 508 434 q 488 473 456 473 l 456 473 q 442 473 433 467 q 424 461 419 450 l 419 450 q 413 440 410 425 q 407 409 407 373 l 407 373 l 407 264 l 276 264 l 276 349 q 276 394 274 415 q 271 435 266 447 l 266 447 q 259 460 248 467 q 236 473 223 473 l 223 473 q 192 473 177 447 q 161 421 161 388 l 161 388 q 161 357 166 332 q 170 306 175 287 l 175 287 l 47 260 q 39 288 34 323 q 28 358 28 388 l 28 388 q 28 437 47 479 q 65 521 105 548 q 144 574 207 574 l 207 574 q 256 574 289 559 q 322 543 347 513 l 347 513 l 331 514 q 357 546 389 560 q 421 574 468 574 z"},"൘":{"ha":1114,"x_min":35,"x_max":1076,"o":"m 550 -12 l 550 -12 q 504 -12 466 7 q 428 26 395 67 l 395 67 l 411 60 q 380 24 347 6 q 313 -12 260 -12 l 260 -12 q 188 -12 138 24 q 87 60 61 121 q 35 182 35 260 l 35 260 q 35 324 49 379 q 62 433 87 481 q 112 529 146 574 l 146 574 l 248 508 q 220 471 203 431 q 186 391 178 349 q 169 307 169 264 l 169 264 q 169 202 184 164 q 199 125 222 108 q 245 90 269 90 l 269 90 q 287 90 299 96 q 310 102 317 109 l 317 109 q 328 125 333 146 q 337 166 337 212 l 337 212 l 337 562 l 470 562 l 470 235 q 470 184 476 159 q 481 134 493 116 l 493 116 q 504 104 519 97 q 533 90 551 90 l 551 90 q 571 90 585 97 q 598 104 607 115 l 607 115 q 620 132 625 158 q 629 184 629 229 l 629 229 l 629 562 l 762 562 l 762 249 l 700 61 q 671 24 636 6 q 601 -12 550 -12 z m 852 -12 l 852 -12 q 797 -12 759 7 q 720 25 687 64 l 687 64 l 638 244 l 638 552 l 762 552 l 762 241 q 762 185 767 156 q 772 126 788 109 l 788 109 q 798 99 810 95 q 822 90 839 90 l 839 90 q 870 90 893 117 q 915 143 928 194 q 940 244 940 318 l 940 318 q 940 391 930 455 q 920 518 897 572 q 873 625 833 663 q 792 701 731 722 q 670 742 584 742 l 584 742 q 525 742 469 734 q 413 726 369 716 l 369 716 l 350 820 q 394 831 430 838 q 466 844 503 847 q 540 849 589 849 l 589 849 q 698 849 780 824 q 862 798 918 751 q 974 704 1009 639 q 1044 573 1060 494 q 1076 414 1076 324 l 1076 324 q 1076 213 1050 138 q 1024 63 974 26 q 923 -12 852 -12 z"},"൙":{"ha":1044,"x_min":35,"x_max":1025,"o":"m 337 574 l 337 574 q 420 574 480 548 q 540 522 580 475 q 619 428 639 366 q 659 304 659 231 l 659 231 q 659 142 635 89 q 611 35 566 12 q 520 -12 458 -12 l 458 -12 q 391 -12 352 13 q 313 37 296 75 q 279 113 279 155 l 279 155 q 279 206 298 244 q 317 281 351 304 l 351 304 q 372 319 399 328 q 426 337 462 341 q 497 345 543 345 l 543 345 l 801 345 l 801 244 l 554 244 q 503 244 478 239 q 453 233 436 221 l 436 221 q 423 210 416 195 q 408 179 408 156 l 408 156 q 408 130 421 111 q 433 92 463 92 l 463 92 q 483 92 497 106 q 511 120 519 151 q 527 181 527 231 l 527 231 q 527 245 527 262 q 526 278 525 287 l 525 287 l 518 315 q 515 357 494 393 q 473 428 437 450 q 401 471 348 471 l 348 471 q 286 471 247 448 q 207 425 189 384 q 170 342 170 287 l 170 287 q 170 237 180 198 q 190 158 210 123 q 229 88 256 54 l 256 54 l 161 -13 q 125 26 96 70 q 67 114 51 169 q 35 223 35 290 l 35 290 q 35 348 53 399 q 71 450 108 490 q 144 529 202 552 q 259 574 337 574 z m 860 562 l 860 562 q 919 562 955 541 q 991 519 1008 485 q 1025 450 1025 410 l 1025 410 q 1025 369 1010 338 q 995 306 968 285 l 968 285 q 950 270 927 261 q 904 252 871 248 q 838 244 790 244 l 790 244 l 620 244 l 621 345 l 801 345 q 834 345 852 349 q 869 353 878 358 l 878 358 q 892 367 898 378 q 904 389 904 412 l 904 412 q 904 434 892 449 q 880 463 859 463 l 859 463 q 836 463 824 446 q 811 429 811 400 l 811 400 q 811 367 822 344 q 832 320 848 301 l 848 301 l 731 295 q 716 315 706 348 q 695 380 695 410 l 695 410 q 695 461 717 495 q 738 528 776 545 q 813 562 860 562 z"},"൚":{"ha":994,"x_min":35,"x_max":943,"o":"m 638 574 l 638 574 q 722 574 778 554 q 834 534 870 500 l 870 500 q 896 475 913 442 q 929 409 936 365 q 943 321 943 262 l 943 262 l 943 0 l 478 0 l 478 94 q 515 138 546 188 q 577 237 596 290 q 614 343 614 394 l 614 394 q 614 418 611 435 q 607 451 596 461 q 585 470 566 470 l 566 470 q 545 470 528 456 q 511 442 499 417 l 499 417 q 489 393 485 361 q 481 329 481 283 l 481 283 l 481 230 l 349 230 l 349 345 q 349 395 344 418 q 338 440 326 455 l 326 455 q 319 462 307 467 q 295 472 277 472 l 277 472 q 251 472 227 455 q 202 438 186 400 q 169 361 169 298 l 169 298 q 169 254 178 212 q 186 170 204 131 q 221 91 248 53 l 248 53 l 147 -13 q 113 31 88 80 q 63 128 49 184 q 35 239 35 302 l 35 302 q 35 380 62 442 q 88 503 141 539 q 193 574 271 574 l 271 574 q 308 574 337 566 q 365 557 390 539 q 414 520 436 488 l 436 488 l 406 481 q 432 511 466 532 q 500 552 543 563 q 585 574 638 574 z m 745 366 l 745 366 q 745 319 731 274 q 716 228 690 183 q 663 138 627 91 l 627 91 l 604 97 q 623 99 649 100 q 675 101 683 101 l 683 101 l 812 101 l 812 279 q 812 339 801 377 q 789 415 766 440 q 743 465 705 481 l 705 481 l 707 482 q 721 466 733 436 q 745 405 745 366 z"},"൛":{"ha":893,"x_min":57,"x_max":858,"o":"m 578 -12 l 578 -12 q 502 -12 450 11 q 398 34 366 73 q 333 112 319 161 q 304 210 304 262 l 304 262 q 304 323 318 372 q 331 420 355 460 q 379 500 410 540 l 410 540 l 376 461 l 189 461 l 189 0 l 57 0 l 57 562 l 462 562 l 519 497 q 497 470 479 439 q 461 407 450 367 q 439 327 439 274 l 439 274 q 439 219 457 178 q 474 136 505 114 q 535 92 575 92 l 575 92 q 620 92 652 114 q 684 135 702 176 q 720 216 720 273 l 720 273 q 720 323 710 363 q 700 403 682 439 q 663 474 635 508 l 635 508 l 732 575 q 769 538 798 494 q 826 449 842 395 q 858 341 858 272 l 858 272 q 858 219 843 169 q 827 118 794 77 q 760 36 707 12 q 653 -12 578 -12 z"},"൜":{"ha":1392,"x_min":35,"x_max":1358,"o":"m 838 574 l 838 574 q 893 574 932 559 q 970 543 993 519 l 993 519 q 1014 498 1027 469 q 1039 440 1045 407 q 1051 373 1051 336 l 1051 336 l 1051 237 q 1051 184 1055 161 q 1058 137 1067 122 l 1067 122 q 1076 106 1092 99 q 1107 91 1128 91 l 1128 91 q 1155 91 1177 109 q 1198 126 1211 164 q 1223 201 1223 263 l 1223 263 q 1223 310 1215 352 q 1206 393 1189 432 q 1171 471 1144 509 l 1144 509 l 1246 575 q 1279 534 1304 486 q 1329 438 1344 382 q 1358 326 1358 257 l 1358 257 q 1358 175 1330 115 q 1301 54 1248 21 q 1195 -12 1123 -12 l 1123 -12 q 1071 -12 1032 3 q 992 18 966 46 l 966 46 q 948 67 938 95 q 927 123 922 157 q 917 191 917 227 l 917 227 l 917 329 q 917 369 914 395 q 910 420 902 437 l 902 437 q 894 454 879 463 q 864 471 840 471 l 840 471 q 818 471 803 463 q 788 455 781 440 l 781 440 q 771 423 768 400 q 764 376 764 336 l 764 336 l 764 227 q 764 190 758 156 q 752 122 740 94 q 727 65 706 43 l 706 43 q 683 19 646 4 q 609 -12 554 -12 l 554 -12 q 499 -12 461 4 q 423 19 399 44 l 399 44 q 379 66 367 95 q 354 123 348 157 q 342 190 342 227 l 342 227 l 342 325 q 342 381 338 403 q 334 425 326 440 l 326 440 q 316 457 302 464 q 287 471 264 471 l 264 471 q 238 471 217 454 q 195 437 182 399 q 169 361 169 299 l 169 299 q 169 253 179 211 q 188 168 205 130 q 222 91 249 52 l 249 52 l 147 -14 q 114 28 89 76 q 63 123 49 180 q 35 236 35 305 l 35 305 q 35 387 63 447 q 91 507 144 541 q 197 574 272 574 l 272 574 q 322 574 361 559 q 400 544 426 517 l 426 517 q 446 495 456 467 q 466 438 471 405 q 476 371 476 332 l 476 332 l 476 234 q 476 193 480 168 q 483 142 491 125 l 491 125 q 499 109 514 100 q 529 91 553 91 l 553 91 q 575 91 590 100 q 605 108 612 122 l 612 122 q 621 139 625 163 q 629 187 629 231 l 629 231 l 629 334 q 629 373 635 407 q 641 440 654 469 q 666 497 686 519 l 686 519 q 709 542 746 558 q 783 574 838 574 z"},"൝":{"ha":1836,"x_min":8,"x_max":1801,"o":"m 707 574 l 707 574 q 761 574 800 559 q 838 543 861 519 l 861 519 q 882 498 895 469 q 907 440 913 407 q 919 373 919 336 l 919 336 l 919 234 q 919 193 923 168 q 926 142 934 125 l 934 125 q 942 109 957 100 q 972 91 996 91 l 996 91 q 1019 91 1034 100 q 1048 108 1055 122 l 1055 122 q 1064 139 1068 163 q 1072 187 1072 231 l 1072 231 l 1072 334 q 1072 373 1078 407 q 1084 440 1097 469 q 1109 497 1129 519 l 1129 519 q 1152 542 1189 558 q 1226 574 1281 574 l 1281 574 q 1336 574 1375 559 q 1413 543 1436 519 l 1436 519 q 1457 498 1470 469 q 1482 440 1488 407 q 1494 373 1494 336 l 1494 336 l 1494 237 q 1494 184 1498 161 q 1501 137 1510 122 l 1510 122 q 1519 106 1535 99 q 1550 91 1571 91 l 1571 91 q 1598 91 1620 109 q 1641 126 1654 164 q 1666 201 1666 263 l 1666 263 q 1666 310 1658 352 q 1649 393 1632 432 q 1614 471 1587 509 l 1587 509 l 1689 575 q 1722 534 1747 486 q 1772 438 1787 382 q 1801 326 1801 257 l 1801 257 q 1801 175 1773 115 q 1744 54 1691 21 q 1638 -12 1566 -12 l 1566 -12 q 1514 -12 1475 3 q 1435 18 1409 46 l 1409 46 q 1391 67 1381 95 q 1370 123 1365 157 q 1360 191 1360 227 l 1360 227 l 1360 329 q 1360 369 1357 395 q 1353 420 1345 437 l 1345 437 q 1337 454 1322 463 q 1307 471 1283 471 l 1283 471 q 1261 471 1246 463 q 1231 455 1224 440 l 1224 440 q 1214 423 1211 400 q 1207 376 1207 336 l 1207 336 l 1207 227 q 1207 190 1201 156 q 1195 122 1183 94 q 1170 65 1149 43 l 1149 43 q 1126 19 1089 4 q 1052 -12 997 -12 l 997 -12 q 942 -12 904 4 q 866 19 842 44 l 842 44 q 822 66 810 95 q 797 123 791 157 q 785 190 785 227 l 785 227 l 785 333 q 785 373 782 397 q 778 420 770 437 l 770 437 q 763 454 748 463 q 732 471 709 471 l 709 471 q 687 471 672 463 q 657 455 649 440 l 649 440 q 640 423 636 400 q 632 376 632 336 l 632 336 l 632 230 q 632 160 618 117 q 604 74 577 45 l 577 45 q 551 18 516 3 q 480 -12 431 -12 l 431 -12 q 371 -12 336 8 q 300 27 273 58 l 273 58 l 286 62 q 262 36 236 20 q 210 3 182 -4 q 154 -12 125 -12 l 125 -12 q 88 -12 62 -5 q 35 2 8 16 l 8 16 l 47 112 q 66 103 86 97 q 105 91 130 91 l 130 91 q 142 91 158 95 q 174 98 185 109 l 185 109 q 201 126 205 154 q 209 181 209 239 l 209 239 l 209 556 l 342 562 l 342 229 q 342 182 348 157 q 354 132 366 115 l 366 115 q 374 105 390 98 q 405 91 421 91 l 421 91 q 441 91 456 98 q 471 104 481 120 l 481 120 q 491 136 495 158 q 498 180 498 226 l 498 226 l 498 334 q 498 373 504 407 q 510 440 522 469 q 534 497 555 519 l 555 519 q 577 542 614 558 q 651 574 707 574 z"},"൞":{"ha":1285,"x_min":35,"x_max":1259,"o":"m 337 574 l 337 574 q 420 574 480 548 q 540 522 580 475 q 619 428 639 366 q 659 304 659 231 l 659 231 q 659 142 635 89 q 611 35 566 12 q 520 -12 458 -12 l 458 -12 q 391 -12 352 13 q 313 37 296 75 q 279 113 279 155 l 279 155 q 279 206 298 244 q 317 281 351 304 l 351 304 q 372 319 399 328 q 426 337 462 341 q 497 345 543 345 l 543 345 l 590 345 l 590 244 l 554 244 q 503 244 478 239 q 453 233 436 221 l 436 221 q 423 210 416 195 q 408 179 408 156 l 408 156 q 408 130 421 111 q 433 92 463 92 l 463 92 q 483 92 497 106 q 511 120 519 151 q 527 181 527 231 l 527 231 q 527 245 527 262 q 526 278 525 287 l 525 287 l 518 315 q 515 357 494 393 q 473 428 437 450 q 401 471 348 471 l 348 471 q 286 471 247 448 q 207 425 189 384 q 170 342 170 287 l 170 287 q 170 237 180 198 q 190 158 210 123 q 229 88 256 54 l 256 54 l 161 -13 q 125 26 96 70 q 67 114 51 169 q 35 223 35 290 l 35 290 q 35 348 53 399 q 71 450 108 490 q 144 529 202 552 q 259 574 337 574 z m 1059 200 l 1059 200 q 991 200 948 227 q 904 254 884 297 q 863 339 863 384 l 863 384 q 863 419 874 446 q 884 473 894 492 l 894 492 l 905 460 l 729 460 l 778 496 q 790 480 801 454 q 811 428 811 399 l 811 399 q 811 345 788 311 q 764 276 722 260 q 679 244 621 244 l 621 244 l 591 244 l 591 345 l 622 345 q 651 345 668 352 q 685 358 692 372 q 698 385 698 405 l 698 405 q 698 421 692 439 q 685 457 678 468 l 678 468 l 711 562 l 976 562 l 1021 503 q 1011 486 1002 459 q 993 431 993 393 l 993 393 q 993 354 1009 328 q 1025 301 1058 301 l 1058 301 q 1082 301 1097 313 q 1112 324 1119 345 q 1126 365 1126 390 l 1126 390 q 1126 439 1113 468 q 1099 496 1085 523 l 1085 523 l 1194 574 q 1225 532 1242 488 q 1259 443 1259 385 l 1259 385 q 1259 329 1234 288 q 1209 246 1165 223 q 1120 200 1059 200 z"},"ൟ":{"ha":1272,"x_min":25,"x_max":1248,"o":"m 25 270 l 25 270 q 25 330 61 368 q 97 406 158 406 l 158 406 q 219 406 256 369 q 293 331 293 270 l 293 270 q 293 209 257 172 q 221 134 158 134 l 158 134 q 97 134 61 172 q 25 209 25 270 z m 116 271 l 116 271 q 116 245 127 231 q 138 216 158 216 l 158 216 q 180 216 191 231 q 201 245 201 271 l 201 271 q 201 296 191 310 q 180 324 158 324 l 158 324 q 138 324 127 311 q 116 297 116 271 z m 980 270 l 980 270 q 980 330 1016 368 q 1052 406 1113 406 l 1113 406 q 1174 406 1211 369 q 1248 331 1248 270 l 1248 270 q 1248 209 1212 172 q 1176 134 1113 134 l 1113 134 q 1052 134 1016 172 q 980 209 980 270 z m 1071 271 l 1071 271 q 1071 245 1082 231 q 1092 216 1113 216 l 1113 216 q 1135 216 1146 231 q 1156 245 1156 271 l 1156 271 q 1156 296 1146 310 q 1135 324 1113 324 l 1113 324 q 1093 324 1082 311 q 1071 297 1071 271 z m 627 574 l 627 574 q 708 574 769 549 q 829 523 869 477 q 908 431 929 370 q 949 308 949 236 l 949 236 q 949 147 925 92 q 901 37 856 13 q 811 -12 746 -12 l 746 -12 q 680 -12 640 17 q 599 46 581 96 q 562 145 562 206 l 562 206 q 562 301 604 355 q 646 408 728 408 l 728 408 q 774 408 809 383 q 843 358 866 317 q 889 276 898 228 l 898 228 l 848 223 q 842 245 831 265 q 820 285 802 299 q 784 312 760 312 l 760 312 q 724 312 708 284 q 692 256 692 200 l 692 200 q 692 165 699 140 q 705 114 719 101 q 733 88 754 88 l 754 88 q 775 88 789 103 q 803 117 811 149 q 818 180 818 234 l 818 234 q 818 252 817 271 q 816 290 813 307 l 813 307 q 813 312 812 319 q 811 326 809 330 l 809 330 q 804 366 782 399 q 760 431 724 451 q 687 471 638 471 l 638 471 q 576 471 537 448 q 497 425 478 384 q 459 342 459 287 l 459 287 q 459 237 469 198 q 479 158 499 123 q 518 88 545 54 l 545 54 l 450 -13 q 414 26 386 70 q 357 114 341 169 q 324 223 324 290 l 324 290 q 324 348 342 399 q 360 450 397 490 q 433 529 491 552 q 548 574 627 574 z"},"ൠ":{"ha":861,"x_min":32,"x_max":829,"o":"m 634 574 l 634 574 q 724 574 777 518 q 829 461 829 348 l 829 348 q 829 279 805 228 q 780 177 737 143 l 737 143 q 699 108 650 89 q 600 69 540 65 l 540 65 l 489 82 l 359 79 l 311 67 q 250 72 209 91 q 168 109 132 140 l 132 140 q 85 175 59 227 q 32 279 32 350 l 32 350 q 32 419 57 469 q 82 519 128 547 q 173 574 233 574 l 233 574 q 291 574 330 552 q 369 530 389 491 q 409 451 409 402 l 409 402 q 409 343 389 304 q 368 265 331 247 q 294 228 245 228 l 245 228 q 209 228 175 243 q 141 257 115 277 q 88 297 72 315 l 72 315 l 106 414 q 121 388 136 367 q 151 346 170 334 q 189 321 214 321 l 214 321 q 244 321 262 341 q 280 360 280 406 l 280 406 q 280 440 265 459 q 249 477 227 477 l 227 477 q 205 477 189 465 q 173 452 165 428 q 156 403 156 366 l 156 366 q 156 344 160 324 q 163 303 167 287 l 167 287 l 162 264 q 174 235 201 216 q 228 197 262 186 q 296 175 331 170 q 365 165 391 165 l 391 165 l 473 165 q 495 165 528 169 q 560 173 596 184 q 631 194 660 214 q 689 233 701 264 l 701 264 l 696 287 q 700 303 703 323 q 706 343 706 366 l 706 366 q 706 403 698 428 q 690 452 675 465 q 660 477 638 477 l 638 477 q 615 477 599 458 q 583 439 583 400 l 583 400 q 583 358 600 340 q 617 321 647 321 l 647 321 q 673 321 692 333 q 710 345 725 367 q 740 388 756 415 l 756 415 l 789 315 q 775 297 749 277 q 722 257 688 243 q 654 228 617 228 l 617 228 q 568 228 532 247 q 495 265 475 303 q 455 340 455 397 l 455 397 q 455 450 477 490 q 498 530 538 552 q 578 574 634 574 z m 430 -249 l 430 -249 q 326 -249 252 -228 q 177 -208 138 -162 q 99 -117 99 -45 l 99 -45 q 99 2 120 36 q 141 69 180 90 q 219 110 270 120 q 321 130 380 130 l 380 130 l 478 130 q 541 130 593 120 q 645 110 684 90 q 722 69 743 35 q 763 1 763 -46 l 763 -46 q 763 -110 728 -155 q 693 -201 619 -225 q 545 -249 430 -249 z m 433 -147 l 433 -147 q 510 -147 554 -135 q 598 -123 617 -99 q 635 -75 635 -42 l 635 -42 q 635 -9 619 12 q 602 33 574 45 q 545 57 511 62 q 477 67 442 67 l 442 67 l 424 67 q 371 67 326 57 q 280 47 254 24 q 227 0 227 -42 l 227 -42 q 227 -77 246 -100 q 265 -124 310 -135 q 355 -147 433 -147 z m 501 38 l 501 38 q 530 38 548 27 q 566 16 575 -1 q 584 -19 588 -39 q 591 -59 591 -76 l 591 -76 l 591 -110 l 512 -110 l 512 -90 q 512 -73 510 -61 q 507 -49 492 -49 l 492 -49 q 477 -49 474 -60 q 471 -72 471 -89 l 471 -89 l 471 -110 l 391 -110 l 391 -89 q 391 -71 388 -60 q 384 -49 371 -49 l 371 -49 q 356 -49 353 -61 q 349 -74 349 -90 l 349 -90 l 349 -110 l 271 -110 l 271 -77 q 271 -60 274 -39 q 277 -19 286 -1 q 295 16 314 27 q 332 38 361 38 l 361 38 q 387 38 402 29 q 417 20 430 5 l 430 5 q 446 22 463 30 q 479 38 501 38 z"},"ൡ":{"ha":1232,"x_min":35,"x_max":1210,"o":"m 339 574 l 339 574 q 413 574 463 550 q 512 526 551 477 l 551 477 l 564 390 l 596 231 l 596 0 l 463 0 l 463 286 q 463 359 454 392 q 444 424 427 441 l 427 441 q 413 455 393 463 q 373 471 338 471 l 338 471 q 287 471 247 447 q 206 422 181 371 q 156 320 156 242 l 156 242 l 156 233 q 156 174 165 143 q 174 111 190 99 q 205 87 223 87 l 223 87 q 238 87 249 96 q 260 104 266 122 q 271 139 271 167 l 271 167 q 271 210 259 230 q 246 249 216 249 l 216 249 q 189 249 163 232 q 136 214 108 176 l 108 176 l 92 270 q 115 297 157 321 q 199 345 251 345 l 251 345 q 299 345 333 325 q 366 304 383 266 q 399 227 399 174 l 399 174 q 399 114 379 73 q 358 31 320 10 q 282 -12 228 -12 l 228 -12 q 177 -12 134 13 q 90 38 63 94 q 35 150 35 243 l 35 243 q 35 354 75 428 q 115 501 184 538 q 253 574 339 574 z m 736 574 l 736 574 q 825 574 886 542 q 946 509 980 457 q 1013 404 1023 345 l 1023 345 q 1028 319 1030 290 q 1032 261 1032 232 l 1032 232 q 1032 148 1010 94 q 988 39 944 14 q 900 -12 836 -12 l 836 -12 q 773 -12 733 13 q 693 38 674 81 q 654 124 654 181 l 654 181 q 654 287 721 344 q 788 400 902 400 l 902 400 q 925 400 939 400 q 953 399 962 397 l 962 397 l 988 395 q 1056 383 1106 343 q 1156 302 1183 240 q 1210 178 1210 98 l 1210 98 q 1210 38 1195 -16 q 1179 -70 1145 -111 q 1111 -153 1055 -177 q 999 -201 918 -201 l 918 -201 q 878 -201 846 -196 q 813 -191 781 -180 l 781 -180 l 817 -82 q 842 -90 864 -93 q 886 -97 916 -97 l 916 -97 q 967 -97 1000 -79 q 1033 -61 1051 -32 q 1069 -4 1077 32 q 1084 67 1084 100 l 1084 100 q 1084 149 1075 184 q 1065 219 1047 245 q 1028 271 1001 287 l 1001 287 l 962 294 q 951 299 936 301 q 920 302 906 302 l 906 302 q 864 302 837 287 q 810 272 797 245 q 784 218 784 181 l 784 181 q 784 152 791 132 q 797 111 810 101 q 822 90 842 90 l 842 90 q 875 90 891 121 q 906 151 906 232 l 906 232 q 906 270 901 304 q 895 337 884 365 l 884 365 l 879 381 q 866 411 843 432 q 820 452 792 462 q 764 471 733 471 l 733 471 q 709 471 688 467 q 667 462 645 446 l 645 446 q 631 435 620 418 q 608 400 602 367 q 596 333 596 272 l 596 272 l 596 212 l 511 468 q 536 502 567 526 q 598 549 639 562 q 680 574 736 574 z"},"ൢ":{"ha":0,"x_min":-786,"x_max":-27,"o":"m -568 27 l -568 27 q -521 27 -471 12 q -422 -3 -394 -53 l -394 -53 l -353 -157 l -353 -333 l -460 -333 l -460 -188 q -460 -149 -466 -122 q -472 -96 -490 -80 l -490 -80 q -503 -68 -523 -61 q -543 -55 -573 -55 l -573 -55 q -593 -55 -615 -61 q -637 -67 -655 -82 q -674 -97 -685 -125 l -685 -125 q -689 -139 -689 -151 q -690 -164 -690 -187 l -690 -187 q -690 -230 -676 -245 q -663 -260 -647 -260 l -647 -260 q -630 -260 -619 -248 q -608 -237 -608 -211 l -608 -211 q -608 -186 -618 -174 q -629 -162 -652 -162 l -652 -162 q -675 -162 -693 -176 q -712 -191 -734 -214 l -734 -214 l -758 -151 q -727 -123 -694 -104 q -661 -86 -628 -86 l -628 -86 q -569 -86 -541 -119 q -513 -152 -513 -207 l -513 -207 q -513 -267 -544 -302 q -576 -337 -643 -337 l -643 -337 q -709 -337 -747 -294 q -786 -251 -786 -175 l -786 -175 q -786 -109 -756 -64 q -726 -19 -676 4 q -627 27 -568 27 z m -243 27 l -243 27 q -186 27 -137 4 q -88 -19 -57 -63 q -27 -108 -27 -172 l -27 -172 q -27 -259 -64 -298 q -101 -337 -167 -337 l -167 -337 q -213 -337 -242 -318 q -271 -300 -284 -269 q -297 -238 -297 -201 l -297 -201 q -297 -160 -283 -130 q -270 -100 -243 -84 q -216 -69 -178 -69 l -178 -69 q -152 -69 -128 -83 q -105 -97 -85 -124 q -65 -151 -52 -193 l -52 -193 l -98 -194 q -108 -168 -122 -153 q -136 -139 -156 -139 l -156 -139 q -179 -139 -190 -154 q -202 -169 -202 -200 l -202 -200 q -202 -229 -192 -244 q -182 -260 -162 -260 l -162 -260 q -143 -260 -133 -238 q -123 -216 -123 -173 l -123 -173 q -123 -164 -123 -155 q -123 -146 -124 -138 l -124 -138 l -134 -109 q -147 -86 -167 -74 q -188 -63 -208 -59 q -229 -55 -243 -55 l -243 -55 q -269 -55 -287 -60 q -305 -65 -317 -74 l -317 -74 q -336 -89 -344 -115 q -353 -142 -353 -192 l -353 -192 l -444 -132 q -442 -68 -410 -34 q -378 0 -332 14 q -286 27 -243 27 z"},"ൣ":{"ha":0,"x_min":-786,"x_max":92,"o":"m -568 27 l -568 27 q -521 27 -471 12 q -422 -3 -394 -53 l -394 -53 l -353 -157 l -353 -333 l -460 -333 l -460 -188 q -460 -149 -466 -122 q -472 -96 -490 -80 l -490 -80 q -503 -68 -523 -61 q -543 -55 -573 -55 l -573 -55 q -593 -55 -615 -61 q -637 -67 -655 -82 q -674 -97 -685 -125 l -685 -125 q -689 -139 -689 -151 q -690 -164 -690 -187 l -690 -187 q -690 -230 -676 -245 q -663 -260 -647 -260 l -647 -260 q -630 -260 -619 -248 q -608 -237 -608 -211 l -608 -211 q -608 -186 -618 -174 q -629 -162 -652 -162 l -652 -162 q -675 -162 -693 -176 q -712 -191 -734 -214 l -734 -214 l -758 -151 q -727 -123 -694 -104 q -661 -86 -628 -86 l -628 -86 q -569 -86 -541 -119 q -513 -152 -513 -207 l -513 -207 q -513 -267 -544 -302 q -576 -337 -643 -337 l -643 -337 q -709 -337 -747 -294 q -786 -251 -786 -175 l -786 -175 q -786 -109 -756 -64 q -726 -19 -676 4 q -627 27 -568 27 z m -243 27 l -243 27 q -186 27 -137 5 q -89 -18 -60 -62 q -31 -107 -31 -172 l -31 -172 q -31 -227 -46 -263 q -62 -300 -92 -318 q -122 -337 -164 -337 l -164 -337 q -216 -337 -245 -318 q -274 -299 -285 -269 q -297 -240 -297 -209 l -297 -209 q -297 -144 -254 -103 q -211 -63 -122 -63 l -122 -63 q -110 -63 -98 -64 q -86 -65 -73 -67 l -73 -67 q -32 -71 6 -91 q 44 -111 68 -149 q 92 -188 92 -251 l 92 -251 q 92 -285 86 -310 q 79 -335 70 -354 l 70 -354 l -18 -324 q -13 -310 -9 -292 q -6 -274 -6 -251 l -6 -251 q -6 -215 -17 -187 q -29 -159 -67 -144 l -67 -144 l -89 -140 q -98 -139 -107 -137 q -117 -136 -127 -136 l -127 -136 q -159 -136 -180 -154 q -202 -173 -202 -209 l -202 -209 q -202 -232 -192 -246 q -182 -260 -162 -260 l -162 -260 q -143 -260 -133 -237 q -123 -215 -123 -169 l -123 -169 q -123 -160 -123 -151 q -124 -142 -126 -132 l -126 -132 l -131 -113 q -142 -90 -161 -78 q -180 -66 -201 -60 q -223 -55 -243 -55 l -243 -55 q -269 -55 -287 -60 q -305 -65 -317 -74 l -317 -74 q -336 -89 -344 -115 q -353 -142 -353 -192 l -353 -192 l -443 -132 q -441 -84 -420 -52 q -400 -21 -369 -4 q -339 13 -305 20 q -272 27 -243 27 z"},"൦":{"ha":527,"x_min":37,"x_max":490,"o":"m 265 37 l 265 37 q 195 37 144 65 q 93 93 65 148 q 37 202 37 282 l 37 282 q 37 361 66 416 q 94 471 145 500 q 195 528 264 528 l 264 528 q 337 528 388 499 q 438 469 464 414 q 490 359 490 282 l 490 282 q 490 205 462 150 q 433 94 383 66 q 333 37 265 37 z m 264 138 l 264 138 q 291 138 312 153 q 333 167 346 200 q 358 233 358 283 l 358 283 q 358 357 331 392 q 303 427 264 427 l 264 427 q 225 427 197 393 q 169 358 169 282 l 169 282 q 169 206 196 172 q 223 138 264 138 z"},"൧":{"ha":834,"x_min":12,"x_max":782,"o":"m 357 -98 l 357 -201 l 255 -201 q 183 -201 141 -192 q 99 -183 74 -167 l 74 -167 q 44 -147 28 -118 q 12 -90 12 -53 l 12 -53 q 12 -15 28 16 q 43 47 77 68 l 77 68 q 93 79 115 86 q 136 93 169 97 q 201 101 249 101 l 249 101 l 393 101 l 438 0 l 249 0 q 210 0 194 -1 q 178 -3 168 -8 l 168 -8 q 155 -15 150 -24 q 145 -34 145 -48 l 145 -48 q 145 -72 165 -85 l 165 -85 q 176 -92 196 -95 q 215 -98 255 -98 l 255 -98 l 357 -98 z m 546 574 l 546 574 q 605 574 647 559 q 688 544 715 518 l 715 518 q 753 483 768 433 q 782 383 782 304 l 782 304 l 782 0 l 308 0 l 308 295 q 308 353 314 394 q 320 434 334 463 q 348 492 373 516 l 373 516 q 400 542 443 558 q 485 574 546 574 z m 546 473 l 546 473 q 519 473 502 465 q 484 457 472 445 l 472 445 q 456 426 449 396 q 441 365 441 302 l 441 302 l 441 101 l 649 101 l 649 294 q 649 363 642 395 q 634 426 619 444 l 619 444 q 607 457 588 465 q 568 473 546 473 z"},"൨":{"ha":780,"x_min":34,"x_max":762,"o":"m 315 574 l 315 574 q 390 574 442 551 q 494 528 527 489 q 559 450 574 401 q 588 352 588 300 l 588 300 q 588 239 575 191 q 561 142 537 102 q 513 62 483 22 l 483 22 l 516 101 l 762 101 l 762 0 l 430 0 l 374 65 q 395 92 414 124 q 432 155 443 196 q 454 236 454 288 l 454 288 q 454 343 437 385 q 419 426 388 448 q 357 470 317 470 l 317 470 q 273 470 241 449 q 208 427 190 386 q 172 345 172 289 l 172 289 q 172 239 182 199 q 192 159 211 124 q 230 89 258 54 l 258 54 l 160 -13 q 124 25 96 70 q 67 114 51 169 q 34 223 34 290 l 34 290 q 34 343 50 394 q 65 444 99 485 q 132 526 186 550 q 239 574 315 574 z"},"൩":{"ha":986,"x_min":35,"x_max":967,"o":"m 267 574 l 267 574 q 306 574 331 566 q 356 558 378 543 q 399 527 422 503 l 422 503 l 408 503 q 441 540 480 557 q 519 574 571 574 l 571 574 q 643 574 693 540 q 743 506 770 446 q 797 385 797 306 l 797 306 q 797 246 786 200 q 775 153 750 111 q 725 68 684 18 l 684 18 l 695 0 l 642 0 l 587 62 q 618 105 634 144 q 650 182 656 219 q 662 256 662 297 l 662 297 q 662 357 648 396 q 633 435 609 454 q 585 472 556 472 l 556 472 q 539 472 528 467 q 516 461 507 454 l 507 454 q 494 440 488 414 q 482 387 482 342 l 482 342 l 482 0 l 349 0 l 349 346 q 349 396 344 418 q 338 440 326 455 l 326 455 q 319 462 307 467 q 295 472 277 472 l 277 472 q 251 472 227 455 q 202 438 186 400 q 169 361 169 298 l 169 298 q 169 255 178 213 q 186 171 204 131 q 221 91 248 53 l 248 53 l 147 -13 q 113 31 88 80 q 63 128 49 184 q 35 239 35 302 l 35 302 q 35 380 62 442 q 88 503 140 539 q 192 574 267 574 z m 669 0 l 716 101 l 967 101 l 967 0 l 669 0 z"},"൪":{"ha":730,"x_min":35,"x_max":725,"o":"m 337 574 l 337 574 q 414 574 469 551 q 523 528 567 484 l 567 484 q 620 433 644 366 q 668 299 668 227 l 668 227 q 668 149 645 96 q 622 42 576 15 q 530 -12 461 -12 l 461 -12 q 397 -12 353 15 q 309 42 286 87 q 263 131 263 185 l 263 185 q 263 251 290 299 q 317 347 367 391 q 417 435 488 485 l 488 485 q 533 516 555 536 q 577 555 585 575 q 592 594 592 621 l 592 621 q 592 637 587 656 q 582 675 572 688 l 572 688 l 691 744 q 706 718 716 690 q 725 661 725 626 l 725 626 q 725 579 706 543 q 687 506 648 473 q 608 440 547 401 l 547 401 q 505 370 471 337 q 437 304 416 266 q 395 228 395 180 l 395 180 q 395 138 411 113 q 427 88 459 88 l 459 88 q 484 88 501 100 q 517 112 525 139 q 533 166 533 212 l 533 212 q 533 278 510 340 q 487 402 437 440 l 437 440 q 420 455 396 465 q 372 474 343 474 l 343 474 q 287 474 249 452 q 210 430 190 389 q 170 347 170 289 l 170 289 q 170 239 180 199 q 189 158 209 124 q 228 89 255 54 l 255 54 l 161 -13 q 125 25 96 70 q 67 114 51 169 q 35 223 35 290 l 35 290 q 35 347 53 398 q 70 449 107 489 q 143 528 200 551 q 257 574 337 574 z"},"൫":{"ha":943,"x_min":41,"x_max":902,"o":"m 478 730 l 478 730 q 584 730 664 698 q 744 665 797 605 q 850 545 876 465 q 902 384 902 287 l 902 287 q 902 215 889 139 q 875 63 844 -11 l 844 -11 l 731 30 q 746 69 755 110 q 764 151 769 193 q 773 235 773 278 l 773 278 q 773 355 755 419 q 736 483 700 530 q 664 576 609 601 q 553 626 479 626 l 479 626 q 387 626 318 585 q 248 544 209 462 q 170 380 170 260 l 170 260 q 170 188 184 128 q 197 68 225 23 q 253 -23 297 -48 q 341 -73 403 -73 l 403 -73 q 491 -73 530 -35 q 568 2 568 68 l 568 68 q 568 105 559 135 q 549 164 526 181 q 503 198 464 198 l 464 198 l 455 198 l 455 296 l 463 296 q 493 296 508 300 q 523 303 535 310 l 535 310 q 548 319 555 334 q 561 348 561 371 l 561 371 q 561 404 545 422 q 528 439 493 439 l 493 439 q 457 439 433 418 q 409 396 397 357 q 385 317 385 264 l 385 264 q 385 205 400 150 q 414 94 441 42 l 441 42 l 324 -7 q 291 58 271 126 q 251 194 251 273 l 251 273 q 251 354 281 415 q 311 475 367 509 q 423 543 498 543 l 498 543 q 564 543 607 521 q 650 499 672 461 q 694 423 694 375 l 694 375 q 694 348 686 324 q 677 299 659 280 q 641 260 612 245 l 612 245 l 593 258 q 638 237 670 186 q 701 135 701 63 l 701 63 q 701 -15 667 -68 q 632 -122 567 -149 q 501 -177 409 -177 l 409 -177 q 294 -177 212 -127 q 129 -77 85 19 q 41 114 41 251 l 41 251 q 41 373 76 464 q 110 554 171 613 q 231 671 310 701 q 389 730 478 730 z"},"൬":{"ha":1114,"x_min":35,"x_max":1076,"o":"m 550 574 l 550 574 q 601 574 636 556 q 671 537 700 501 l 700 501 l 762 313 l 762 0 l 629 0 l 629 333 q 629 378 625 404 q 620 430 607 447 l 607 447 q 598 459 585 466 q 571 472 551 472 l 551 472 q 533 472 519 465 q 504 458 493 446 l 493 446 q 481 429 476 404 q 470 379 470 327 l 470 327 l 470 0 l 337 0 l 337 350 q 337 396 333 417 q 328 437 317 453 l 317 453 q 310 460 299 466 q 287 472 269 472 l 269 472 q 245 472 222 455 q 199 437 184 399 q 169 360 169 298 l 169 298 q 169 254 178 213 q 186 171 203 132 q 220 92 248 54 l 248 54 l 146 -12 q 112 33 87 81 q 62 129 49 184 q 35 239 35 302 l 35 302 q 35 379 61 441 q 87 502 138 538 q 188 574 260 574 l 260 574 q 313 574 347 556 q 380 538 411 502 l 411 502 l 395 495 q 428 537 466 556 q 504 574 550 574 z m 852 574 l 852 574 q 959 574 1018 489 q 1076 404 1076 230 l 1076 230 q 1076 86 1044 -9 q 1011 -105 939 -153 q 866 -201 744 -201 l 744 -201 q 721 -201 695 -199 q 669 -197 644 -193 l 644 -193 l 652 -90 q 669 -94 690 -95 q 710 -97 730 -97 l 730 -97 q 796 -97 838 -73 q 880 -50 902 -6 q 924 37 932 97 q 940 156 940 227 l 940 227 q 940 309 928 363 q 916 417 893 445 q 870 472 839 472 l 839 472 q 822 472 810 468 q 798 463 788 453 l 788 453 q 772 436 767 407 q 762 377 762 321 l 762 321 l 762 10 l 638 10 l 638 318 l 687 498 q 720 538 759 556 q 797 574 852 574 z"},"൭":{"ha":688,"x_min":36,"x_max":651,"o":"m 352 574 l 352 574 q 429 574 485 548 q 541 522 578 474 q 615 425 633 358 q 651 290 651 207 l 651 207 q 651 108 630 32 q 609 -44 567 -96 q 525 -148 462 -174 q 399 -201 314 -201 l 314 -201 q 285 -201 258 -199 q 231 -198 204 -193 l 204 -193 l 213 -89 q 231 -94 253 -95 q 274 -97 296 -97 l 296 -97 q 358 -97 400 -75 q 442 -53 468 -12 q 493 28 504 84 q 515 140 515 208 l 515 208 q 515 342 468 407 q 420 471 340 471 l 340 471 q 279 471 238 440 q 197 409 177 357 q 157 304 157 240 l 157 240 l 157 233 q 157 173 166 142 q 175 110 190 98 q 205 86 223 86 l 223 86 q 239 86 250 95 q 260 103 266 121 q 271 138 271 166 l 271 166 q 271 209 259 229 q 247 249 216 249 l 216 249 q 187 249 160 230 q 132 211 104 172 l 104 172 l 93 270 q 115 297 156 321 q 196 345 249 345 l 249 345 q 299 345 332 325 q 365 304 382 266 q 399 227 399 174 l 399 174 q 399 114 379 73 q 359 32 322 10 q 284 -12 230 -12 l 230 -12 q 179 -12 135 14 q 90 39 63 95 q 36 150 36 242 l 36 242 q 36 343 75 418 q 113 492 184 533 q 255 574 352 574 z"},"൮":{"ha":883,"x_min":34,"x_max":826,"o":"m 315 574 l 315 574 q 390 574 442 551 q 494 528 527 489 q 559 450 574 401 q 588 352 588 300 l 588 300 q 588 239 575 191 q 561 142 537 102 q 513 62 483 22 l 483 22 l 516 101 l 692 101 l 692 562 l 826 562 l 826 169 l 755 0 l 430 0 l 374 65 q 395 92 414 124 q 432 155 443 196 q 454 236 454 288 l 454 288 q 454 343 437 385 q 419 426 388 448 q 357 470 317 470 l 317 470 q 273 470 241 449 q 208 427 190 386 q 172 345 172 289 l 172 289 q 172 239 182 199 q 192 159 211 124 q 230 89 258 54 l 258 54 l 160 -13 q 124 25 96 70 q 67 114 51 169 q 34 223 34 290 l 34 290 q 34 343 50 394 q 65 444 99 485 q 132 526 186 550 q 239 574 315 574 z m 530 -201 l 530 -201 q 501 -201 473 -198 q 445 -196 420 -190 l 420 -190 l 434 -87 q 451 -92 473 -94 q 494 -97 512 -97 l 512 -97 q 567 -97 602 -85 q 636 -74 655 -52 q 674 -31 682 -3 q 690 24 691 56 l 691 56 l 826 261 l 826 126 q 826 53 819 3 q 811 -47 794 -80 q 776 -113 746 -139 l 746 -139 q 713 -167 660 -184 q 607 -201 530 -201 z"},"൯":{"ha":1030,"x_min":35,"x_max":1023,"o":"m 269 574 l 269 574 q 307 574 335 566 q 363 557 388 540 q 412 523 440 497 l 440 497 l 482 244 l 482 0 l 349 0 l 349 348 q 349 396 344 418 q 338 440 326 455 l 326 455 q 319 462 307 467 q 295 472 277 472 l 277 472 q 251 472 227 455 q 202 438 186 400 q 169 361 169 298 l 169 298 q 169 255 178 213 q 186 171 204 131 q 221 91 248 53 l 248 53 l 147 -13 q 113 31 88 80 q 63 128 49 184 q 35 239 35 302 l 35 302 q 35 380 62 442 q 88 503 140 539 q 192 574 269 574 z m 625 574 l 625 574 q 705 574 763 551 q 820 527 864 482 l 864 482 q 917 431 942 365 q 966 298 966 227 l 966 227 q 966 149 943 96 q 920 42 875 15 q 829 -12 760 -12 l 760 -12 q 695 -12 651 15 q 607 42 584 87 q 561 131 561 185 l 561 185 q 561 251 588 299 q 615 347 665 391 q 714 435 785 485 l 785 485 q 830 516 853 536 q 875 555 883 575 q 890 594 890 621 l 890 621 q 890 637 885 656 q 879 675 869 688 l 869 688 l 988 744 q 1003 718 1013 690 q 1023 661 1023 626 l 1023 626 q 1023 579 1004 543 q 985 506 946 473 q 907 440 846 401 l 846 401 q 804 370 769 337 q 734 304 714 266 q 693 228 693 180 l 693 180 q 693 138 709 113 q 725 88 757 88 l 757 88 q 783 88 799 100 q 814 112 822 139 q 830 166 830 212 l 830 212 q 830 280 806 341 q 782 401 732 439 l 732 439 q 714 455 688 465 q 662 474 625 474 l 625 474 q 602 474 578 468 q 554 462 533 446 l 533 446 q 516 432 505 413 q 493 393 488 361 q 482 328 482 277 l 482 277 l 482 11 l 357 11 l 357 305 l 396 466 q 422 497 452 521 q 482 545 524 560 q 565 574 625 574 z"},"൰":{"ha":942,"x_min":-28,"x_max":907,"o":"m 168 562 l 300 562 l 300 157 l 299 116 q 299 32 287 -23 q 275 -78 248 -118 l 248 -118 q 221 -157 173 -179 q 125 -201 59 -201 l 59 -201 q 36 -201 14 -198 q -8 -196 -28 -192 l -28 -192 l -17 -90 q -5 -93 10 -95 q 24 -97 39 -97 l 39 -97 q 76 -97 99 -87 q 121 -77 136 -61 l 136 -61 q 155 -38 162 -2 q 168 34 168 95 l 168 95 l 168 562 z m 683 -12 l 683 -12 q 634 -12 595 5 q 555 21 521 61 l 521 61 l 541 68 q 505 25 471 7 q 436 -12 390 -12 l 390 -12 q 353 -12 326 -2 q 298 7 277 27 q 256 46 237 74 l 237 74 l 192 258 l 193 566 l 300 549 l 300 230 q 300 181 305 156 q 310 131 323 114 l 323 114 q 332 103 347 97 q 361 90 383 90 l 383 90 q 403 90 417 97 q 431 104 441 116 l 441 116 q 455 133 460 158 q 465 183 465 236 l 465 236 l 465 562 l 598 562 l 598 240 q 598 180 601 153 q 604 125 620 109 l 620 109 q 630 99 644 95 q 658 90 668 90 l 668 90 q 698 90 722 110 q 745 129 759 169 q 773 208 773 266 l 773 266 q 773 309 765 350 q 756 390 739 430 q 722 470 693 508 l 693 508 l 795 574 q 832 530 857 482 q 881 433 894 378 q 907 322 907 256 l 907 256 q 907 179 882 119 q 856 58 807 23 q 757 -12 683 -12 z"},"൱":{"ha":840,"x_min":35,"x_max":801,"o":"m 269 574 l 269 574 q 307 574 333 566 q 359 558 382 542 q 404 525 430 498 l 430 498 l 482 244 l 482 0 l 349 0 l 349 348 q 349 396 344 418 q 338 440 326 455 l 326 455 q 319 462 307 467 q 295 472 277 472 l 277 472 q 251 472 227 455 q 202 438 186 400 q 169 361 169 298 l 169 298 q 169 255 178 213 q 186 171 204 131 q 221 91 248 53 l 248 53 l 147 -13 q 113 31 88 80 q 63 128 49 184 q 35 239 35 302 l 35 302 q 35 380 62 442 q 88 503 140 539 q 192 574 269 574 z m 573 574 l 573 574 q 646 574 697 537 q 748 499 775 423 q 801 347 801 229 l 801 229 q 801 86 769 -9 q 736 -105 664 -153 q 591 -201 469 -201 l 469 -201 q 445 -201 419 -199 q 393 -197 366 -193 l 366 -193 l 374 -90 q 391 -94 412 -95 q 433 -97 456 -97 l 456 -97 q 521 -97 563 -73 q 605 -50 627 -6 q 649 37 658 97 q 666 156 666 227 l 666 227 q 666 310 653 364 q 640 418 617 445 q 594 472 562 472 l 562 472 q 544 472 532 468 q 519 463 509 453 l 509 453 q 492 437 487 408 q 482 379 482 322 l 482 322 l 482 10 l 358 10 l 358 311 l 407 498 q 440 537 479 556 q 518 574 573 574 z"},"൲":{"ha":1301,"x_min":36,"x_max":1282,"o":"m 1117 562 l 1117 562 q 1177 562 1213 541 q 1248 519 1265 485 q 1282 450 1282 410 l 1282 410 q 1282 369 1267 338 q 1252 306 1226 285 l 1226 285 q 1208 270 1185 261 q 1162 252 1129 248 q 1096 244 1047 244 l 1047 244 l 867 244 l 868 345 l 1059 345 q 1091 345 1109 349 q 1127 353 1135 358 l 1135 358 q 1149 367 1156 378 q 1162 389 1162 412 l 1162 412 q 1162 434 1150 449 q 1138 463 1117 463 l 1117 463 q 1094 463 1082 446 q 1069 429 1069 400 l 1069 400 q 1069 367 1080 344 q 1090 320 1106 301 l 1106 301 l 989 295 q 974 315 963 348 q 952 380 952 410 l 952 410 q 952 461 974 495 q 996 528 1034 545 q 1071 562 1117 562 z m 270 574 l 270 574 q 308 574 334 566 q 360 558 383 542 q 406 526 433 501 l 433 501 l 483 234 l 483 0 l 351 0 l 351 348 q 351 396 346 418 q 340 440 327 455 l 327 455 q 320 462 308 467 q 296 472 278 472 l 278 472 q 252 472 228 455 q 203 438 187 400 q 171 361 171 298 l 171 298 q 171 255 180 213 q 188 171 205 131 q 222 91 250 53 l 250 53 l 148 -13 q 114 31 89 80 q 64 128 50 184 q 36 239 36 302 l 36 302 q 36 380 63 442 q 89 503 142 539 q 194 574 270 574 z m 612 574 l 612 574 q 677 574 732 551 q 787 528 829 485 q 870 441 893 377 q 916 312 916 229 l 916 229 q 916 142 892 89 q 867 36 822 12 q 777 -12 714 -12 l 714 -12 q 648 -12 609 13 q 569 37 552 75 q 535 113 535 155 l 535 155 q 535 206 555 244 q 574 281 608 304 l 608 304 q 629 319 655 328 q 680 337 716 341 q 751 345 799 345 l 799 345 l 1018 345 l 1018 244 l 807 244 q 759 244 735 239 q 710 233 693 221 l 693 221 q 679 210 672 195 q 664 179 664 156 l 664 156 q 664 130 677 111 q 690 92 720 92 l 720 92 q 739 92 754 106 q 768 120 776 150 q 783 179 783 227 l 783 227 q 783 243 783 259 q 782 275 781 288 l 781 288 l 773 326 q 768 359 751 393 q 733 426 701 449 q 668 472 616 472 l 616 472 q 594 472 572 466 q 549 459 528 442 l 528 442 q 512 428 503 410 q 493 391 488 360 q 483 328 483 277 l 483 277 l 483 212 l 407 229 l 397 471 q 419 500 448 524 q 476 547 516 561 q 556 574 612 574 z"},"൳":{"ha":672,"x_min":35,"x_max":650,"o":"m 227 -12 l 227 -12 q 170 -12 127 15 q 84 42 60 94 q 35 146 35 222 l 35 222 q 35 303 62 363 q 89 423 140 461 l 140 461 q 176 486 218 501 q 260 515 315 522 q 369 528 442 528 l 442 528 l 650 528 l 650 423 l 449 423 q 386 423 342 419 q 298 414 268 404 q 237 394 212 377 l 212 377 q 191 360 179 338 q 166 315 159 291 l 159 291 l 160 259 q 158 251 157 241 q 156 230 156 214 l 156 214 q 156 165 165 137 q 174 109 189 98 q 203 86 220 86 l 220 86 q 237 86 249 95 q 260 103 266 121 q 271 138 271 166 l 271 166 q 271 209 259 229 q 246 249 216 249 l 216 249 q 187 249 160 230 q 132 211 103 172 l 103 172 l 82 261 q 105 291 149 318 q 192 345 249 345 l 249 345 q 298 345 331 325 q 364 304 382 266 q 399 227 399 174 l 399 174 q 399 115 379 73 q 359 31 321 10 q 283 -12 227 -12 z"},"൴":{"ha":868,"x_min":36,"x_max":833,"o":"m 437 789 l 570 789 l 570 206 q 570 176 572 155 q 574 134 580 121 q 585 107 594 98 l 594 98 q 601 93 610 91 q 619 88 632 88 l 632 88 q 652 88 667 101 q 682 113 690 141 q 698 169 698 216 l 698 216 q 698 266 687 309 q 675 351 652 385 q 628 419 592 442 q 555 465 506 474 l 506 474 l 483 470 q 471 470 458 471 q 445 472 430 472 l 430 472 q 369 472 319 458 q 268 443 232 414 q 196 385 177 343 q 157 300 157 243 l 157 243 l 157 227 q 157 171 166 140 q 174 109 190 98 q 205 86 223 86 l 223 86 q 238 86 249 95 q 260 103 266 121 q 271 138 271 167 l 271 167 q 271 210 259 230 q 246 249 216 249 l 216 249 q 187 249 160 230 q 132 211 104 172 l 104 172 l 83 261 q 105 291 149 318 q 192 345 249 345 l 249 345 q 298 345 332 325 q 365 304 382 266 q 399 228 399 174 l 399 174 q 399 114 379 73 q 358 32 321 10 q 283 -12 229 -12 l 229 -12 q 178 -12 134 13 q 90 38 63 91 q 36 144 36 232 l 36 232 q 36 314 64 378 q 92 441 144 485 q 196 528 268 551 q 339 574 428 574 l 428 574 q 448 574 466 574 q 484 574 501 572 l 501 572 l 534 569 q 597 561 652 535 q 706 508 747 463 q 788 418 811 358 q 833 297 833 222 l 833 222 q 833 151 810 99 q 787 46 742 17 q 697 -12 631 -12 l 631 -12 q 585 -12 552 0 q 519 12 495 35 l 495 35 q 475 56 462 83 q 449 110 443 149 q 437 187 437 240 l 437 240 l 437 789 z"},"൵":{"ha":1142,"x_min":35,"x_max":1137,"o":"m 339 574 l 339 574 q 413 574 463 550 q 513 525 552 476 l 552 476 l 570 393 l 596 230 l 596 0 l 463 0 l 463 286 q 463 359 454 392 q 444 424 427 441 l 427 441 q 413 455 393 463 q 373 471 338 471 l 338 471 q 287 471 247 447 q 206 422 181 371 q 156 320 156 242 l 156 242 l 156 233 q 156 174 165 143 q 174 111 190 99 q 205 86 223 86 l 223 86 q 238 86 249 95 q 260 103 266 121 q 271 138 271 167 l 271 167 q 271 210 259 230 q 246 249 216 249 l 216 249 q 189 249 163 232 q 136 214 108 176 l 108 176 l 92 270 q 115 297 157 321 q 199 345 251 345 l 251 345 q 299 345 333 325 q 366 304 383 266 q 399 227 399 174 l 399 174 q 399 114 379 73 q 358 31 320 10 q 282 -12 228 -12 l 228 -12 q 177 -12 134 13 q 90 38 63 94 q 35 150 35 243 l 35 243 q 35 354 75 428 q 115 501 184 538 q 253 574 339 574 z m 739 574 l 739 574 q 819 574 877 551 q 934 527 978 482 l 978 482 q 1031 431 1056 365 q 1080 298 1080 227 l 1080 227 q 1080 149 1057 96 q 1034 42 988 15 q 942 -12 874 -12 l 874 -12 q 809 -12 765 15 q 721 42 698 87 q 675 131 675 185 l 675 185 q 675 251 702 299 q 729 347 779 391 q 829 435 899 485 l 899 485 q 944 516 967 536 q 989 555 997 575 q 1004 594 1004 621 l 1004 621 q 1004 637 999 656 q 993 675 983 688 l 983 688 l 1102 744 q 1117 718 1127 690 q 1137 661 1137 626 l 1137 626 q 1137 579 1118 543 q 1099 506 1060 473 q 1021 440 960 401 l 960 401 q 918 370 883 337 q 848 304 828 266 q 807 228 807 180 l 807 180 q 807 138 823 113 q 839 88 871 88 l 871 88 q 896 88 912 100 q 928 112 936 139 q 944 166 944 212 l 944 212 q 944 280 920 341 q 896 401 846 439 l 846 439 q 828 455 802 465 q 776 474 739 474 l 739 474 q 716 474 692 468 q 668 462 647 446 l 647 446 q 630 432 619 413 q 607 393 602 361 q 596 328 596 277 l 596 277 l 596 11 l 471 11 l 471 305 l 510 466 q 536 497 566 521 q 595 545 637 560 q 679 574 739 574 z"},"൶":{"ha":1244,"x_min":28,"x_max":1194,"o":"m 228 362 l 228 362 q 297 362 341 335 q 384 308 404 266 q 424 224 424 178 l 424 178 q 424 144 413 117 q 401 89 393 70 l 393 70 l 383 101 l 659 101 l 673 0 l 312 0 l 266 59 q 275 77 285 105 q 294 132 294 169 l 294 169 q 294 209 279 235 q 263 261 229 261 l 229 261 q 205 261 190 250 q 175 238 168 218 q 161 197 161 172 l 161 172 q 161 123 176 95 q 190 66 202 39 l 202 39 l 93 -12 q 63 31 46 75 q 28 119 28 177 l 28 177 q 28 233 53 274 q 78 315 123 339 q 167 362 228 362 z m 889 574 l 889 574 q 973 574 1029 554 q 1085 534 1121 500 l 1121 500 q 1147 475 1163 442 q 1179 409 1187 365 q 1194 321 1194 262 l 1194 262 l 1194 0 l 599 0 l 599 265 q 599 324 607 368 q 614 411 630 444 q 646 476 672 500 l 672 500 q 707 535 758 555 q 809 574 889 574 z m 817 470 l 817 470 q 796 470 779 456 q 761 442 750 417 l 750 417 q 740 396 735 367 q 730 338 730 293 l 730 293 l 730 66 l 705 69 q 750 118 787 173 q 823 228 844 284 q 865 340 865 394 l 865 394 q 865 418 861 435 q 857 451 847 461 q 836 470 817 470 z m 996 366 l 996 366 q 996 319 982 274 q 967 228 941 183 q 914 138 878 91 l 878 91 l 855 97 q 874 99 900 100 q 926 101 934 101 l 934 101 l 1062 101 l 1062 279 q 1062 339 1051 377 q 1040 415 1017 440 q 994 465 956 481 l 956 481 l 958 482 q 972 466 984 436 q 996 405 996 366 z"},"൷":{"ha":1615,"x_min":28,"x_max":1595,"o":"m 228 362 l 228 362 q 297 362 340 335 q 383 308 404 266 q 424 224 424 178 l 424 178 q 424 144 413 117 q 401 89 393 70 l 393 70 l 382 101 l 602 101 l 671 0 l 312 0 l 266 59 q 275 77 285 105 q 294 132 294 169 l 294 169 q 294 209 279 235 q 263 261 229 261 l 229 261 q 205 261 190 250 q 175 238 168 218 q 161 197 161 172 l 161 172 q 161 123 176 95 q 190 66 202 39 l 202 39 l 93 -12 q 63 31 46 75 q 28 119 28 177 l 28 177 q 28 233 53 274 q 78 315 123 339 q 167 362 228 362 z m 744 574 l 744 574 q 782 574 809 566 q 835 558 858 542 q 881 526 908 501 l 908 501 l 958 273 l 958 230 l 826 230 l 826 348 q 826 396 820 418 q 814 440 802 455 l 802 455 q 795 462 783 467 q 771 472 753 472 l 753 472 q 727 472 703 455 q 678 438 662 401 q 645 363 645 301 l 645 301 q 645 237 663 179 q 680 121 717 63 l 717 63 l 663 0 l 588 0 l 569 82 q 551 114 538 148 q 525 182 518 221 q 511 260 511 304 l 511 304 q 511 382 538 443 q 564 504 616 539 q 668 574 744 574 z m 1106 574 l 1106 574 q 1172 574 1228 551 q 1284 527 1327 484 q 1369 440 1393 376 q 1417 312 1417 229 l 1417 229 q 1417 142 1393 89 q 1368 36 1323 12 q 1278 -12 1215 -12 l 1215 -12 q 1150 -12 1111 13 q 1071 37 1054 75 q 1037 113 1037 155 l 1037 155 q 1037 206 1056 244 q 1075 281 1110 304 l 1110 304 q 1130 319 1157 328 q 1183 337 1218 341 q 1252 345 1300 345 l 1300 345 l 1393 345 l 1393 244 l 1309 244 q 1261 244 1237 239 q 1212 233 1195 221 l 1195 221 q 1181 210 1174 195 q 1166 179 1166 156 l 1166 156 q 1166 130 1179 111 q 1191 92 1220 92 l 1220 92 q 1240 92 1255 107 q 1269 121 1276 151 q 1283 180 1283 227 l 1283 227 q 1283 243 1283 259 q 1282 275 1281 288 l 1281 288 l 1273 326 q 1268 359 1250 393 q 1232 426 1197 449 q 1161 472 1104 472 l 1104 472 q 1069 472 1048 467 q 1026 461 1003 442 l 1003 442 q 988 429 978 410 q 968 391 963 360 q 958 328 958 277 l 958 277 l 958 239 l 882 231 l 876 475 q 898 504 928 527 q 958 549 1002 562 q 1046 574 1106 574 z m 1455 447 l 1584 473 q 1589 459 1592 439 q 1595 418 1595 398 l 1595 398 q 1595 361 1582 333 q 1569 305 1544 286 l 1544 286 q 1516 264 1478 254 q 1439 244 1368 244 l 1368 244 l 1370 244 l 1370 345 l 1362 345 q 1388 345 1407 348 q 1425 351 1437 359 l 1437 359 q 1449 366 1455 380 q 1461 394 1461 412 l 1461 412 q 1461 420 1459 430 q 1457 440 1455 447 l 1455 447 z"},"൸":{"ha":2004,"x_min":8,"x_max":1954,"o":"m 1280 574 l 1280 574 q 1304 574 1326 570 q 1348 566 1369 557 q 1389 548 1409 531 q 1429 514 1448 488 l 1448 488 l 1417 481 q 1442 511 1476 532 q 1509 552 1552 563 q 1595 574 1649 574 l 1649 574 q 1733 574 1789 554 q 1844 534 1880 500 l 1880 500 q 1906 475 1923 442 q 1939 409 1947 365 q 1954 321 1954 262 l 1954 262 l 1954 0 l 1488 0 l 1488 94 q 1525 138 1556 188 q 1587 237 1606 290 q 1625 343 1625 394 l 1625 394 q 1625 418 1621 435 q 1616 451 1606 461 q 1595 470 1575 470 l 1575 470 q 1557 470 1539 457 q 1521 444 1509 417 l 1509 417 q 1499 396 1495 365 q 1491 334 1491 283 l 1491 283 l 1491 230 l 1360 230 l 1360 329 q 1360 369 1357 395 q 1353 420 1345 437 l 1345 437 q 1337 454 1322 463 q 1307 471 1282 471 l 1282 471 q 1260 471 1246 463 q 1231 455 1224 440 l 1224 440 q 1214 423 1211 400 q 1207 376 1207 336 l 1207 336 l 1207 227 q 1207 190 1201 156 q 1195 122 1183 94 q 1170 65 1149 43 l 1149 43 q 1126 19 1089 4 q 1052 -12 997 -12 l 997 -12 q 942 -12 904 4 q 866 19 842 44 l 842 44 q 822 66 810 95 q 797 123 791 157 q 785 190 785 227 l 785 227 l 785 333 q 785 373 782 397 q 778 420 770 437 l 770 437 q 763 454 748 463 q 732 471 709 471 l 709 471 q 687 471 672 463 q 657 455 649 440 l 649 440 q 640 423 636 400 q 632 376 632 336 l 632 336 l 632 230 q 632 160 618 117 q 604 74 577 45 l 577 45 q 551 18 516 3 q 480 -12 431 -12 l 431 -12 q 371 -12 336 8 q 300 27 273 58 l 273 58 l 286 62 q 262 36 236 20 q 210 3 182 -4 q 154 -12 125 -12 l 125 -12 q 88 -12 62 -5 q 35 2 8 16 l 8 16 l 47 112 q 66 103 86 97 q 105 91 130 91 l 130 91 q 142 91 158 95 q 174 98 185 109 l 185 109 q 201 126 205 154 q 209 181 209 239 l 209 239 l 209 556 l 342 562 l 342 229 q 342 182 348 157 q 354 132 366 115 l 366 115 q 374 105 390 98 q 405 91 421 91 l 421 91 q 441 91 456 98 q 471 104 481 120 l 481 120 q 491 135 495 157 q 498 179 498 225 l 498 225 l 498 334 q 498 373 504 407 q 510 440 522 469 q 534 497 555 519 l 555 519 q 577 542 614 558 q 651 574 707 574 l 707 574 q 761 574 800 559 q 838 543 861 519 l 861 519 q 882 498 895 469 q 907 440 913 407 q 919 373 919 336 l 919 336 l 919 234 q 919 193 923 168 q 926 142 934 125 l 934 125 q 942 109 957 100 q 972 91 996 91 l 996 91 q 1019 91 1034 100 q 1048 108 1055 122 l 1055 122 q 1064 139 1068 163 q 1072 187 1072 231 l 1072 231 l 1072 334 q 1072 373 1078 407 q 1084 440 1097 469 q 1109 497 1129 519 l 1129 519 q 1152 542 1190 558 q 1227 574 1280 574 z m 1755 366 l 1755 366 q 1755 319 1741 274 q 1726 228 1700 183 q 1673 138 1638 91 l 1638 91 l 1614 97 q 1634 99 1660 100 q 1685 101 1693 101 l 1693 101 l 1822 101 l 1822 279 q 1822 339 1811 377 q 1799 415 1777 440 q 1754 465 1715 481 l 1715 481 l 1718 482 q 1731 466 1743 436 q 1755 405 1755 366 z"},"൹":{"ha":1039,"x_min":35,"x_max":1017,"o":"m 269 574 l 269 574 q 306 574 333 566 q 359 558 382 542 q 405 526 432 501 l 432 501 l 482 234 l 482 0 l 349 0 l 349 348 q 349 396 344 418 q 338 440 326 455 l 326 455 q 319 462 307 467 q 295 472 277 472 l 277 472 q 251 472 227 455 q 202 438 186 400 q 169 361 169 298 l 169 298 q 169 255 178 213 q 186 171 204 131 q 221 91 248 53 l 248 53 l 147 -13 q 113 31 88 80 q 63 128 49 184 q 35 239 35 302 l 35 302 q 35 380 62 442 q 88 503 140 539 q 192 574 269 574 z m 611 574 l 611 574 q 676 574 731 551 q 786 528 827 485 q 868 441 891 377 q 914 312 914 229 l 914 229 q 914 142 890 89 q 865 36 821 12 q 776 -12 712 -12 l 712 -12 q 647 -12 608 13 q 568 37 551 75 q 534 113 534 155 l 534 155 q 534 206 553 244 q 572 281 607 304 l 607 304 q 627 319 653 328 q 679 337 715 341 q 750 345 798 345 l 798 345 l 1017 345 l 1017 244 l 806 244 q 758 244 734 239 q 709 233 692 221 l 692 221 q 678 210 671 195 q 663 179 663 156 l 663 156 q 663 130 676 111 q 689 92 718 92 l 718 92 q 738 92 753 106 q 767 120 775 150 q 782 179 782 227 l 782 227 q 782 243 782 259 q 781 275 780 288 l 780 288 l 771 326 q 766 359 749 393 q 732 426 700 449 q 667 472 614 472 l 614 472 q 592 472 570 466 q 548 459 527 442 l 527 442 q 510 428 501 410 q 491 391 487 360 q 482 328 482 277 l 482 277 l 482 212 l 406 229 l 396 471 q 418 500 447 524 q 475 547 515 561 q 555 574 611 574 z"},"ൺ":{"ha":1402,"x_min":35,"x_max":1367,"o":"m 339 574 l 339 574 q 413 574 463 550 q 512 525 553 475 l 553 475 l 515 491 q 546 534 589 554 q 631 574 679 574 l 679 574 q 740 574 779 551 q 817 527 847 485 l 847 485 l 851 450 l 892 325 l 892 0 l 759 0 l 759 331 q 759 380 755 406 q 751 431 737 448 l 737 448 q 728 459 714 466 q 699 472 677 472 l 677 472 q 659 472 645 465 q 630 458 619 446 l 619 446 q 605 429 601 405 q 596 380 596 325 l 596 325 l 596 0 l 463 0 l 463 287 q 463 358 454 391 q 444 424 427 441 l 427 441 q 413 455 394 463 q 374 471 338 471 l 338 471 q 287 471 247 447 q 206 423 181 372 q 156 320 156 242 l 156 242 l 156 233 q 156 174 165 143 q 174 111 190 99 q 205 86 223 86 l 223 86 q 238 86 249 95 q 260 103 266 121 q 271 138 271 167 l 271 167 q 271 210 259 230 q 246 249 216 249 l 216 249 q 189 249 163 232 q 136 214 108 176 l 108 176 l 92 270 q 115 297 157 321 q 199 345 251 345 l 251 345 q 299 345 333 325 q 366 304 383 266 q 399 228 399 175 l 399 175 q 399 114 379 73 q 358 31 320 10 q 282 -12 228 -12 l 228 -12 q 177 -12 134 13 q 90 38 63 94 q 35 150 35 242 l 35 242 q 35 353 75 427 q 115 501 184 538 q 253 574 339 574 z m 1167 -12 l 1167 -12 q 1103 -12 1060 15 q 1016 41 994 93 q 972 145 972 219 l 972 219 q 972 262 983 307 q 993 352 1021 400 q 1049 447 1101 495 l 1101 495 l 1109 523 q 1146 560 1166 588 q 1185 616 1185 643 l 1185 643 q 1185 668 1172 683 q 1158 697 1126 697 l 1126 697 q 1114 697 1101 695 q 1087 693 1076 690 l 1076 690 l 1053 785 q 1075 792 1107 796 q 1139 800 1171 800 l 1171 800 q 1230 800 1262 780 q 1293 759 1305 729 q 1317 698 1317 667 l 1317 667 q 1317 617 1291 569 q 1265 520 1217 470 l 1217 470 l 1201 456 q 1167 421 1146 381 q 1124 340 1115 298 q 1105 255 1105 214 l 1105 214 q 1105 172 1112 145 q 1118 117 1132 103 q 1146 88 1168 88 l 1168 88 q 1200 88 1216 116 q 1231 143 1231 216 l 1231 216 q 1231 259 1223 302 q 1215 345 1197 382 q 1178 418 1149 441 l 1149 441 q 1129 456 1107 466 q 1085 475 1044 475 l 1044 475 q 1019 475 994 469 q 968 463 945 446 l 945 446 q 930 434 918 415 q 906 395 899 364 q 892 333 892 284 l 892 284 l 892 81 l 766 81 l 766 270 l 809 466 q 833 497 863 521 q 893 545 937 560 q 981 574 1044 574 l 1044 574 q 1087 574 1124 566 q 1161 558 1192 542 l 1192 542 q 1195 541 1198 540 q 1201 538 1204 535 l 1204 535 q 1259 506 1295 458 q 1331 410 1349 351 q 1367 291 1367 226 l 1367 226 q 1367 109 1316 49 q 1265 -12 1167 -12 z"},"ൻ":{"ha":992,"x_min":35,"x_max":957,"o":"m 267 574 l 267 574 q 306 574 333 566 q 360 558 384 542 q 407 525 434 501 l 434 501 l 482 268 l 482 0 l 349 0 l 349 348 q 349 396 344 418 q 338 440 326 455 l 326 455 q 319 462 307 467 q 295 472 277 472 l 277 472 q 251 472 227 455 q 202 438 186 400 q 169 361 169 298 l 169 298 q 169 255 178 213 q 186 171 204 131 q 221 91 248 53 l 248 53 l 147 -13 q 113 31 88 80 q 63 128 49 184 q 35 239 35 302 l 35 302 q 35 380 62 442 q 88 503 140 539 q 192 574 267 574 z m 757 -12 l 757 -12 q 693 -12 650 15 q 607 41 585 93 q 562 145 562 219 l 562 219 q 562 262 573 307 q 583 352 611 400 q 639 447 691 495 l 691 495 l 700 523 q 736 560 756 588 q 775 616 775 643 l 775 643 q 775 668 762 683 q 748 697 716 697 l 716 697 q 704 697 691 695 q 678 693 666 690 l 666 690 l 644 785 q 665 792 698 796 q 730 800 761 800 l 761 800 q 820 800 852 780 q 883 759 895 729 q 907 698 907 667 l 907 667 q 907 617 881 569 q 855 520 807 470 l 807 470 l 791 456 q 757 421 736 381 q 714 340 705 298 q 695 255 695 214 l 695 214 q 695 172 702 145 q 708 117 722 103 q 736 88 758 88 l 758 88 q 790 88 806 116 q 821 143 821 216 l 821 216 q 821 259 813 302 q 805 345 787 382 q 769 418 739 441 l 739 441 q 719 456 697 466 q 675 475 634 475 l 634 475 q 609 475 584 469 q 558 463 535 446 l 535 446 q 520 434 508 415 q 496 395 489 364 q 482 333 482 284 l 482 284 l 482 81 l 356 81 l 356 270 l 399 466 q 424 497 454 521 q 483 545 527 560 q 571 574 634 574 l 634 574 q 677 574 714 566 q 751 558 782 542 l 782 542 q 785 541 788 540 q 791 538 794 535 l 794 535 q 849 506 885 458 q 921 410 939 351 q 957 291 957 226 l 957 226 q 957 109 906 49 q 855 -12 757 -12 z"},"ർ":{"ha":697,"x_min":35,"x_max":662,"o":"m 463 -12 l 463 -12 q 398 -12 355 15 q 311 41 289 93 q 266 145 266 219 l 266 219 q 266 262 277 307 q 287 352 316 400 q 344 447 395 495 l 395 495 l 404 523 q 441 560 461 588 q 480 616 480 643 l 480 643 q 480 668 466 683 q 452 697 421 697 l 421 697 q 410 697 396 695 q 381 693 371 690 l 371 690 l 348 785 q 370 792 402 796 q 434 800 466 800 l 466 800 q 525 800 556 780 q 587 759 600 729 q 612 698 612 667 l 612 667 q 612 617 586 569 q 559 520 511 470 l 511 470 l 495 456 q 461 421 440 381 q 418 340 409 298 q 399 255 399 214 l 399 214 q 399 172 406 145 q 412 117 427 103 q 441 88 463 88 l 463 88 q 494 88 510 116 q 526 143 526 216 l 526 216 q 526 248 521 281 q 516 313 507 344 q 497 374 482 400 q 466 425 444 442 l 444 442 q 424 456 404 465 q 383 474 339 474 l 339 474 q 284 474 247 452 q 209 430 190 389 q 170 347 170 289 l 170 289 q 170 239 180 199 q 189 158 208 124 q 227 89 255 54 l 255 54 l 161 -13 q 124 25 96 69 q 67 112 51 167 q 35 221 35 290 l 35 290 q 35 345 52 396 q 69 447 105 487 q 141 527 198 551 q 255 574 337 574 l 337 574 q 382 574 419 566 q 456 558 487 543 l 487 543 q 490 542 493 540 q 495 538 498 535 l 498 535 q 553 507 589 459 q 625 410 644 350 q 662 290 662 225 l 662 225 q 662 108 611 48 q 559 -12 463 -12 z"},"ൽ":{"ha":1138,"x_min":35,"x_max":1102,"o":"m 690 574 l 690 574 q 756 574 798 567 q 840 560 870 549 q 899 538 925 526 l 925 526 l 957 513 q 1032 461 1067 386 q 1102 310 1102 218 l 1102 218 q 1102 108 1051 48 q 1000 -12 902 -12 l 902 -12 q 839 -12 796 15 q 752 41 730 93 q 707 145 707 219 l 707 219 q 707 262 718 307 q 728 352 757 400 q 785 447 836 495 l 836 495 l 844 521 q 882 559 902 588 q 921 616 921 643 l 921 643 q 921 668 907 683 q 892 697 861 697 l 861 697 q 851 697 837 695 q 822 693 811 690 l 811 690 l 789 785 q 811 792 843 796 q 874 800 906 800 l 906 800 q 965 800 997 780 q 1028 759 1040 729 q 1052 698 1052 667 l 1052 667 q 1052 617 1026 569 q 1000 520 952 470 l 952 470 l 936 456 q 902 421 881 381 q 859 340 850 298 q 840 255 840 214 l 840 214 q 840 172 847 145 q 853 117 868 103 q 882 88 904 88 l 904 88 q 935 88 951 116 q 967 143 967 213 l 967 213 q 967 256 956 299 q 944 342 923 378 q 902 414 875 432 l 875 432 l 834 446 q 801 461 767 467 q 732 472 693 472 l 693 472 q 653 472 616 466 q 578 460 546 447 l 546 447 l 520 443 q 471 413 440 351 q 409 288 409 201 l 409 201 q 409 160 418 136 q 427 111 443 100 q 459 89 476 89 l 476 89 q 495 89 511 101 q 526 112 535 141 q 544 169 544 220 l 544 220 q 544 275 531 322 q 517 368 491 403 q 465 438 430 458 l 430 458 l 411 465 q 397 470 380 473 q 363 476 347 476 l 347 476 q 286 476 247 452 q 208 427 190 385 q 171 343 171 287 l 171 287 q 171 239 181 199 q 191 159 210 125 q 228 90 255 56 l 255 56 l 159 -12 q 123 26 95 70 q 67 113 51 167 q 35 221 35 290 l 35 290 q 35 340 50 391 q 64 441 98 483 q 132 524 190 549 q 247 574 333 574 l 333 574 q 382 574 422 564 q 462 553 495 532 l 495 532 l 512 523 q 591 475 635 401 q 678 326 678 224 l 678 224 q 678 145 655 93 q 631 40 586 14 q 540 -12 473 -12 l 473 -12 q 411 -12 367 15 q 323 41 300 92 q 276 143 276 213 l 276 213 q 276 270 292 321 q 307 372 342 416 q 376 459 436 492 l 436 492 l 457 517 q 495 544 554 559 q 612 574 690 574 z"},"ൾ":{"ha":978,"x_min":35,"x_max":943,"o":"m 748 800 l 748 800 q 807 800 838 780 q 869 759 881 729 q 893 698 893 667 l 893 667 q 893 617 866 569 q 838 520 792 470 l 792 470 l 776 456 q 742 421 721 381 q 699 340 690 298 q 680 255 680 214 l 680 214 q 680 172 687 144 q 693 116 708 102 q 722 88 744 88 l 744 88 q 775 88 791 116 q 807 143 807 216 l 807 216 q 807 248 803 280 q 799 312 790 343 q 781 373 766 399 q 750 424 727 443 l 727 443 q 705 457 683 466 q 661 474 624 474 l 624 474 q 596 474 570 466 q 544 458 525 444 l 525 444 q 494 420 484 377 q 474 334 474 270 l 474 270 l 474 220 q 474 186 470 154 q 465 122 455 95 q 445 67 425 47 l 425 47 q 399 18 361 3 q 322 -12 268 -12 l 268 -12 q 195 -12 143 21 q 91 54 63 115 q 35 175 35 257 l 35 257 q 35 326 49 383 q 63 439 88 487 q 113 534 147 575 l 147 575 l 248 509 q 221 471 204 432 q 186 393 178 352 q 169 310 169 263 l 169 263 q 169 201 182 164 q 195 126 217 109 q 238 91 263 91 l 263 91 q 285 91 300 99 q 315 107 324 122 l 324 122 q 332 138 337 160 q 341 181 341 228 l 341 228 l 341 295 q 341 380 364 436 q 387 491 425 520 l 425 520 q 463 549 508 562 q 553 574 625 574 l 625 574 q 670 574 704 567 q 738 559 767 545 l 767 545 l 781 537 q 835 508 871 460 q 907 412 925 352 q 943 292 943 226 l 943 226 q 943 109 892 49 q 840 -12 743 -12 l 743 -12 q 679 -12 636 15 q 592 41 570 93 q 547 145 547 219 l 547 219 q 547 262 558 307 q 568 352 597 400 q 625 447 676 495 l 676 495 l 685 523 q 721 560 741 588 q 761 616 761 643 l 761 643 q 761 668 747 683 q 733 697 702 697 l 702 697 q 690 697 676 695 q 662 693 652 690 l 652 690 l 629 785 q 651 792 684 796 q 717 800 748 800 z"},"ൿ":{"ha":1138,"x_min":28,"x_max":1108,"o":"m 487 574 l 487 574 q 568 574 619 539 q 669 503 693 437 q 716 371 716 283 l 716 283 q 716 184 689 118 q 662 52 611 20 q 560 -12 488 -12 l 488 -12 q 430 -12 388 9 q 345 29 319 62 l 319 62 q 286 104 272 162 q 257 219 257 286 l 257 286 q 257 425 318 500 q 379 574 487 574 z m 487 473 l 487 473 q 436 473 412 428 q 388 383 388 282 l 388 282 q 388 215 399 173 q 410 130 432 110 q 453 89 487 89 l 487 89 q 519 89 541 109 q 562 129 574 172 q 585 214 585 282 l 585 282 q 585 350 574 392 q 563 434 542 454 q 520 473 487 473 z m 202 -12 l 202 -12 q 118 -12 73 34 q 28 80 28 159 l 28 159 q 28 213 52 250 q 76 287 116 309 l 116 309 q 139 321 165 330 q 191 338 229 342 q 267 345 325 345 l 325 345 l 854 345 q 914 345 961 336 q 1007 326 1044 297 l 1044 297 q 1073 275 1091 242 q 1108 209 1108 159 l 1108 159 q 1108 82 1066 35 q 1023 -12 934 -12 l 934 -12 q 843 -12 799 37 q 755 85 755 159 l 755 159 q 755 192 762 222 q 768 251 781 282 l 781 282 q 782 287 783 293 q 784 299 786 303 l 786 303 q 798 332 814 367 q 830 401 853 447 l 853 447 q 875 493 891 529 q 907 564 916 593 q 925 621 925 645 l 925 645 q 925 669 911 683 q 897 697 865 697 l 865 697 q 855 697 841 695 q 827 693 816 690 l 816 690 l 793 785 q 816 792 849 796 q 882 800 913 800 l 913 800 q 972 800 1003 780 q 1034 759 1046 730 q 1057 700 1057 672 l 1057 672 q 1057 648 1053 624 q 1048 599 1038 570 q 1027 541 1011 505 q 995 469 971 422 l 971 422 q 953 385 940 356 q 927 327 916 303 l 916 303 q 913 295 909 288 q 905 280 902 272 l 902 272 q 891 245 885 220 q 878 194 878 161 l 878 161 q 878 136 886 121 q 893 105 905 97 q 917 89 930 89 l 930 89 q 955 89 968 106 q 981 122 981 152 l 981 152 q 981 178 973 195 q 965 212 951 223 l 951 223 q 933 236 907 240 q 881 244 851 244 l 851 244 l 289 244 q 252 244 229 241 q 205 237 187 225 l 187 225 q 173 215 164 200 q 154 185 154 163 l 154 163 q 154 140 161 123 q 168 106 185 98 q 201 89 227 89 l 227 89 q 250 89 272 98 q 293 107 319 129 l 319 129 l 376 38 q 347 18 320 7 q 292 -4 264 -8 q 236 -12 202 -12 z"},"!":{"ha":280,"x_min":60,"x_max":219,"o":"m 195 238 l 85 238 l 62 714 l 218 714 l 195 238 z m 140 -13 l 140 -13 q 104 -13 82 8 q 60 28 60 69 l 60 69 q 60 112 82 132 q 103 151 140 151 l 140 151 q 175 151 197 132 q 219 112 219 69 l 219 69 q 219 27 197 7 q 174 -13 140 -13 z"},"\"":{"ha":453,"x_min":62,"x_max":391,"o":"m 174 542 l 79 542 l 62 800 l 192 800 l 174 542 z m 374 542 l 279 542 l 261 800 l 391 800 l 374 542 z"},"#":{"ha":572,"x_min":31,"x_max":541,"o":"m 177 0 l 80 0 l 116 199 l 31 199 l 31 296 l 134 296 l 159 418 l 58 418 l 58 515 l 176 515 l 215 713 l 313 713 l 275 515 l 358 515 l 397 713 l 494 713 l 456 515 l 541 515 l 541 418 l 437 418 l 412 296 l 515 296 l 515 199 l 394 199 l 355 0 l 257 0 l 295 199 l 214 199 l 177 0 z m 258 418 l 232 296 l 315 296 l 340 418 l 258 418 z"},"%":{"ha":800,"x_min":29,"x_max":771,"o":"m 295 0 l 191 0 l 504 714 l 607 714 l 295 0 z m 177 276 l 177 276 q 101 276 65 337 q 29 398 29 500 l 29 500 q 29 604 64 664 q 99 724 179 724 l 179 724 q 255 724 292 664 q 328 604 328 501 l 328 501 q 328 397 293 337 q 258 276 177 276 z m 179 373 l 179 373 q 198 373 207 403 q 216 432 216 500 l 216 500 q 216 567 207 597 q 198 626 179 626 l 179 626 q 160 626 151 597 q 141 567 141 500 l 141 500 q 141 433 151 403 q 160 373 179 373 z m 620 -8 l 620 -8 q 544 -8 508 54 q 472 115 472 216 l 472 216 q 472 320 507 380 q 541 440 622 440 l 622 440 q 698 440 735 380 q 771 320 771 218 l 771 218 q 771 113 736 53 q 700 -8 620 -8 z m 624 90 l 624 90 q 643 90 652 120 q 661 150 661 216 l 661 216 q 661 283 652 313 q 643 342 624 342 l 624 342 q 605 342 596 313 q 587 283 587 217 l 587 217 q 587 150 597 120 q 606 90 624 90 z"},"'":{"ha":254,"x_min":62,"x_max":192,"o":"m 174 542 l 79 542 l 62 800 l 192 800 l 174 542 z"},"(":{"ha":340,"x_min":43,"x_max":311,"o":"m 43 280 l 43 280 q 43 369 61 466 q 78 562 112 650 q 145 738 192 800 l 192 800 l 310 800 q 268 732 236 646 q 203 559 186 465 q 168 371 168 279 l 168 279 q 168 188 185 96 q 202 4 234 -83 q 266 -170 311 -244 l 311 -244 l 192 -244 q 142 -175 109 -86 q 76 2 60 97 q 43 191 43 280 z"},")":{"ha":340,"x_min":28,"x_max":297,"o":"m 297 277 l 297 277 q 297 188 280 91 q 262 -6 228 -94 q 194 -182 147 -244 l 147 -244 l 29 -244 q 73 -175 105 -89 q 136 -3 154 92 q 172 186 172 277 l 172 277 q 172 370 156 462 q 139 553 107 640 q 75 726 28 800 l 28 800 l 147 800 q 197 731 231 643 q 264 555 281 461 q 297 366 297 277 z"},"*":{"ha":525,"x_min":30,"x_max":495,"o":"m 201 800 l 323 800 l 305 628 l 479 676 l 495 558 l 335 547 l 440 408 l 334 351 l 260 497 l 196 351 l 86 408 l 189 547 l 30 559 l 49 676 l 219 628 l 201 800 z"},"+":{"ha":501,"x_min":36,"x_max":464,"o":"m 303 114 l 196 114 l 196 300 l 36 300 l 36 405 l 196 405 l 196 594 l 303 594 l 303 405 l 464 405 l 464 300 l 303 300 l 303 114 z"},",":{"ha":279,"x_min":36,"x_max":215,"o":"m 78 115 l 209 115 l 215 104 q 207 59 196 20 q 184 -20 171 -56 q 157 -93 141 -130 l 141 -130 l 36 -130 q 45 -93 53 -49 q 61 -5 68 39 q 75 82 78 115 l 78 115 z"},"-":{"ha":314,"x_min":29,"x_max":284,"o":"m 284 210 l 29 210 l 29 327 l 284 327 l 284 210 z"},".":{"ha":271,"x_min":57,"x_max":215,"o":"m 135 -13 l 135 -13 q 100 -13 79 8 q 57 28 57 69 l 57 69 q 57 110 78 131 q 99 151 135 151 l 135 151 q 172 151 194 131 q 215 111 215 69 l 215 69 q 215 28 194 8 q 172 -13 135 -13 z"},"/":{"ha":420,"x_min":17,"x_max":403,"o":"m 139 -244 l 17 -244 l 281 800 l 403 800 l 139 -244 z"},":":{"ha":271,"x_min":57,"x_max":215,"o":"m 136 -13 l 136 -13 q 100 -13 79 8 q 57 28 57 69 l 57 69 q 57 110 78 131 q 99 151 136 151 l 136 151 q 173 151 194 131 q 215 111 215 69 l 215 69 q 215 28 194 8 q 172 -13 136 -13 z m 136 388 l 136 388 q 100 388 79 409 q 57 429 57 469 l 57 469 q 57 511 78 532 q 99 552 136 552 l 136 552 q 173 552 194 532 q 215 511 215 469 l 215 469 q 215 429 194 409 q 172 388 136 388 z"},";":{"ha":274,"x_min":36,"x_max":216,"o":"m 79 115 l 209 115 l 216 104 q 207 59 196 20 q 184 -20 171 -56 q 157 -93 141 -130 l 141 -130 l 36 -130 q 45 -92 54 -48 q 62 -5 69 39 q 75 82 79 115 l 79 115 z m 134 388 l 134 388 q 98 388 77 409 q 55 429 55 469 l 55 469 q 55 511 76 532 q 96 552 134 552 l 134 552 q 171 552 192 532 q 213 511 213 469 l 213 469 q 213 429 192 409 q 170 388 134 388 z"},"<":{"ha":501,"x_min":36,"x_max":465,"o":"m 465 233 l 465 115 l 36 319 l 36 391 l 465 604 l 465 487 l 184 356 l 465 233 z"},"=":{"ha":501,"x_min":34,"x_max":466,"o":"m 466 195 l 34 195 l 34 300 l 466 300 l 466 195 z m 466 405 l 34 405 l 34 509 l 466 509 l 466 405 z"},">":{"ha":501,"x_min":35,"x_max":464,"o":"m 464 320 l 35 115 l 35 232 l 315 357 l 35 487 l 35 604 l 464 392 l 464 320 z"},"?":{"ha":398,"x_min":35,"x_max":375,"o":"m 197 724 l 197 724 q 287 724 331 677 q 375 629 375 556 l 375 556 q 375 515 368 486 q 360 457 342 429 q 324 401 293 363 l 293 363 q 274 339 262 322 q 249 304 244 291 q 239 277 239 265 l 239 265 l 239 238 l 116 238 l 116 271 q 116 300 125 326 q 133 352 151 377 q 169 401 194 426 l 194 426 q 216 449 227 468 q 237 486 240 504 q 243 521 243 542 l 243 542 q 243 575 220 591 q 197 606 167 606 l 167 606 q 146 606 124 602 q 101 597 80 584 l 80 584 l 35 686 q 78 707 113 716 q 147 724 197 724 z m 180 -13 l 180 -13 q 144 -13 123 8 q 101 28 101 69 l 101 69 q 101 110 122 131 q 143 151 180 151 l 180 151 q 216 151 238 131 q 259 111 259 69 l 259 69 q 259 28 238 8 q 216 -13 180 -13 z"},"[":{"ha":334,"x_min":63,"x_max":299,"o":"m 299 -244 l 63 -244 l 63 800 l 299 800 l 299 697 l 186 697 l 186 -141 l 299 -141 l 299 -244 z"},"\\":{"ha":420,"x_min":17,"x_max":403,"o":"m 403 -244 l 281 -244 l 17 800 l 139 800 l 403 -244 z"},"]":{"ha":333,"x_min":35,"x_max":270,"o":"m 270 -244 l 35 -244 l 35 -141 l 148 -141 l 148 697 l 35 697 l 35 800 l 270 800 l 270 -244 z"},"^":{"ha":555,"x_min":24,"x_max":532,"o":"m 141 302 l 24 302 l 234 717 l 304 717 l 532 302 l 414 302 l 271 556 l 141 302 z"},"_":{"ha":379,"x_min":-2,"x_max":381,"o":"m 381 -158 l -2 -158 l -2 -90 l 381 -90 l 381 -158 z"},"{":{"ha":381,"x_min":24,"x_max":345,"o":"m 345 -137 l 345 -244 q 260 -244 217 -222 q 174 -201 159 -165 q 144 -129 144 -83 l 144 -83 l 144 141 q 144 185 113 204 q 82 223 24 223 l 24 223 l 24 337 q 82 337 113 356 q 144 374 144 418 l 144 418 l 144 640 q 144 685 159 722 q 174 758 217 779 q 260 800 345 800 l 345 800 l 345 693 q 303 692 286 671 q 269 649 269 610 l 269 610 l 269 384 q 269 341 242 316 q 214 291 159 283 l 159 283 l 159 277 q 214 270 242 245 q 269 220 269 177 l 269 177 l 269 -54 q 269 -80 277 -98 q 284 -117 301 -126 q 317 -136 345 -137 l 345 -137 z"},"|":{"ha":551,"x_min":222,"x_max":329,"o":"m 329 -244 l 222 -244 l 222 800 l 329 800 l 329 -244 z"},"}":{"ha":381,"x_min":35,"x_max":356,"o":"m 35 693 l 35 800 q 121 800 164 779 q 206 758 221 722 q 236 685 236 639 l 236 639 l 236 418 q 236 374 268 355 q 299 336 356 336 l 356 336 l 356 223 q 299 223 268 204 q 236 185 236 141 l 236 141 l 236 -84 q 236 -129 221 -165 q 205 -202 163 -223 q 120 -244 35 -244 l 35 -244 l 35 -137 q 77 -136 94 -114 q 110 -93 110 -54 l 110 -54 l 110 177 q 110 219 139 245 q 167 270 222 277 l 222 277 l 222 283 q 166 290 138 316 q 110 341 110 383 l 110 383 l 110 610 q 110 636 103 655 q 95 673 79 683 q 63 693 35 693 l 35 693 z"},"~":{"ha":501,"x_min":36,"x_max":465,"o":"m 235 302 l 235 302 q 203 317 183 323 q 162 328 143 328 l 143 328 q 114 328 87 312 q 59 296 36 270 l 36 270 l 36 382 q 58 408 86 421 q 113 434 147 434 l 147 434 q 176 434 204 427 q 232 419 266 403 l 266 403 q 294 389 317 383 q 340 377 360 377 l 360 377 q 386 377 414 394 q 442 410 465 435 l 465 435 l 465 324 q 442 298 415 285 q 387 272 354 272 l 354 272 q 324 272 297 279 q 270 286 235 302 z"}," ":{"ha":247,"x_min":0,"x_max":0,"o":""},"­":{"ha":314,"x_min":29,"x_max":284,"o":"m 284 210 l 29 210 l 29 327 l 284 327 l 284 210 z"},"–":{"ha":500,"x_min":39,"x_max":461,"o":"m 461 209 l 39 209 l 39 326 l 461 326 l 461 209 z"},"—":{"ha":1000,"x_min":39,"x_max":961,"o":"m 961 209 l 39 209 l 39 326 l 961 326 l 961 209 z"},"‘":{"ha":258,"x_min":40,"x_max":220,"o":"m 177 555 l 46 555 l 40 566 q 49 611 61 651 q 72 690 86 727 q 100 764 115 800 l 115 800 l 220 800 q 211 762 203 718 q 194 673 188 631 q 181 589 177 555 l 177 555 z"},"’":{"ha":257,"x_min":40,"x_max":220,"o":"m 83 800 l 213 800 l 220 789 q 212 744 200 705 q 188 665 175 629 q 161 592 145 555 l 145 555 l 40 555 q 46 582 53 614 q 60 646 66 681 q 71 715 76 746 q 80 776 83 800 l 83 800 z"},"“":{"ha":471,"x_min":40,"x_max":433,"o":"m 390 556 l 260 556 l 254 566 q 263 612 274 652 q 285 691 299 728 q 313 765 328 800 l 328 800 l 433 800 q 424 761 416 719 q 407 676 401 635 q 394 593 390 556 l 390 556 z m 177 556 l 46 556 l 40 566 q 49 612 61 652 q 72 691 86 728 q 100 765 115 800 l 115 800 l 220 800 q 211 762 203 718 q 194 674 188 632 q 181 590 177 556 l 177 556 z"},"”":{"ha":471,"x_min":40,"x_max":433,"o":"m 297 800 l 426 800 l 433 790 q 425 744 414 705 q 402 665 388 629 q 374 592 358 556 l 358 556 l 253 556 q 264 597 272 639 q 280 681 287 722 q 293 763 297 800 l 297 800 z m 83 800 l 213 800 l 220 790 q 212 744 200 705 q 188 665 175 629 q 161 592 145 556 l 145 556 l 40 556 q 46 582 53 614 q 59 646 65 681 q 71 715 76 746 q 80 776 83 800 l 83 800 z"},"…":{"ha":808,"x_min":57,"x_max":751,"o":"m 136 -13 l 136 -13 q 100 -13 79 8 q 57 28 57 69 l 57 69 q 57 110 78 131 q 99 151 136 151 l 136 151 q 173 151 194 131 q 215 111 215 69 l 215 69 q 215 28 194 8 q 172 -13 136 -13 z m 403 -13 l 403 -13 q 368 -13 347 8 q 325 28 325 69 l 325 69 q 325 110 346 131 q 367 151 403 151 l 403 151 q 440 151 462 131 q 483 111 483 69 l 483 69 q 483 28 461 8 q 439 -13 403 -13 z m 672 -13 l 672 -13 q 636 -13 615 8 q 593 28 593 69 l 593 69 q 593 110 614 131 q 635 151 672 151 l 672 151 q 708 151 730 131 q 751 111 751 69 l 751 69 q 751 28 730 8 q 708 -13 672 -13 z"},"×":{"ha":501,"x_min":44,"x_max":456,"o":"m 248 428 l 381 558 l 456 487 l 322 353 l 453 221 l 381 148 l 248 279 l 116 149 l 45 222 l 174 353 l 44 484 l 116 558 l 248 428 z"},"÷":{"ha":501,"x_min":36,"x_max":464,"o":"m 464 300 l 36 300 l 36 405 l 464 405 l 464 300 z m 250 101 l 250 101 q 220 101 201 120 q 182 138 182 177 l 182 177 q 182 216 201 235 q 219 253 250 253 l 250 253 q 280 253 299 235 q 317 216 317 177 l 317 177 q 317 139 299 120 q 280 101 250 101 z m 250 453 l 250 453 q 220 453 201 471 q 182 489 182 528 l 182 528 q 182 567 201 586 q 219 604 250 604 l 250 604 q 280 604 299 586 q 317 567 317 528 l 317 528 q 318 490 299 472 q 280 453 250 453 z"},"−":{"ha":501,"x_min":36,"x_max":464,"o":"m 464 300 l 36 300 l 36 405 l 464 405 l 464 300 z"},"₹":{"ha":501,"x_min":51,"x_max":454,"o":"m 354 0 l 200 0 l 51 256 l 68 355 l 94 355 q 137 355 156 364 q 174 372 184 388 l 184 388 q 197 406 201 430 q 205 454 205 484 l 205 484 q 205 524 198 547 q 191 570 178 587 l 178 587 q 166 600 149 606 q 131 611 99 611 l 99 611 l 51 611 l 51 714 l 454 714 l 454 611 l 288 611 q 306 594 319 562 q 332 529 332 481 l 332 481 q 332 418 316 375 q 299 331 264 303 q 229 275 176 261 l 176 261 l 177 281 l 354 0 z m 454 434 l 51 434 l 51 539 l 454 539 l 454 434 z"},"꠰":{"ha":258,"x_min":63,"x_max":196,"o":"m 63 0 l 63 562 l 196 562 l 196 0 l 63 0 z"},"꠱":{"ha":453,"x_min":63,"x_max":390,"o":"m 63 0 l 63 562 l 196 562 l 196 0 l 63 0 z m 257 0 l 257 562 l 390 562 l 390 0 l 257 0 z"},"꠲":{"ha":647,"x_min":63,"x_max":584,"o":"m 63 0 l 63 562 l 196 562 l 196 0 l 63 0 z m 257 0 l 257 562 l 390 562 l 390 0 l 257 0 z m 451 0 l 451 562 l 584 562 l 584 0 l 451 0 z"},"॑":{"ha":0,"x_min":-325,"x_max":-232,"o":"m -325 653 l -325 864 l -232 864 l -232 653 l -325 653 z"},"॒":{"ha":0,"x_min":-497,"x_max":-61,"o":"m -61 -102 l -61 -189 l -497 -189 l -497 -102 l -61 -102 z"},"।":{"ha":337,"x_min":133,"x_max":269,"o":"m 269 -49 l 133 -49 l 133 603 l 269 603 l 269 -49 z"},"॥":{"ha":591,"x_min":134,"x_max":523,"o":"m 523 -49 l 389 -49 l 389 603 l 523 603 l 523 -49 z m 270 -49 l 134 -49 l 134 603 l 270 603 l 270 -49 z"},"᳚":{"ha":0,"x_min":-386,"x_max":-171,"o":"m -386 653 l -386 864 l -303 864 l -303 653 l -386 653 z m -254 653 l -254 864 l -171 864 l -171 653 l -254 653 z"},"̇":{"ha":0,"x_min":-318,"x_max":-183,"o":"m -318 701 l -318 701 q -318 740 -298 756 q -278 771 -250 771 l -250 771 q -221 771 -202 756 q -183 740 -183 701 l -183 701 q -183 661 -202 646 q -221 631 -250 631 l -250 631 q -278 631 -298 646 q -318 661 -318 701 z"},"̣":{"ha":0,"x_min":-317,"x_max":-183,"o":"m -317 -136 l -317 -136 q -317 -96 -297 -80 q -278 -65 -250 -65 l -250 -65 q -221 -65 -202 -80 q -183 -96 -183 -136 l -183 -136 q -183 -175 -202 -190 q -221 -206 -250 -206 l -250 -206 q -278 -206 -297 -190 q -317 -175 -317 -136 z"},"‐":{"ha":314,"x_min":29,"x_max":284,"o":"m 284 210 l 29 210 l 29 327 l 284 327 l 284 210 z"},"​":{"ha":0,"x_min":0,"x_max":0,"o":""},"‌":{"ha":0,"x_min":0,"x_max":0,"o":""},"‍":{"ha":0,"x_min":-161,"x_max":161,"o":"m 29 -244 l -29 -244 l -29 565 l -121 474 l -161 514 l -40 631 l -161 748 l -121 788 l 0 669 l 121 788 l 161 748 l 40 631 l 161 514 l 121 474 l 29 565 l 29 -244 z"},"◌":{"ha":562,"x_min":56,"x_max":503,"o":"m 88 231 l 88 231 q 56 231 56 264 l 56 264 q 56 295 88 295 l 88 295 q 120 295 120 264 l 120 264 q 120 231 88 231 z m 137 95 l 137 95 q 105 95 105 127 l 105 127 q 105 158 137 158 l 137 158 q 168 158 168 127 l 168 127 q 168 95 137 95 z m 280 40 l 280 40 q 248 40 248 72 l 248 72 q 248 104 280 104 l 280 104 q 311 104 311 72 l 311 72 q 311 40 280 40 z m 137 369 l 137 369 q 105 369 105 401 l 105 401 q 105 432 137 432 l 137 432 q 168 432 168 401 l 168 401 q 168 369 137 369 z m 422 95 l 422 95 q 390 95 390 127 l 390 127 q 390 158 422 158 l 422 158 q 454 158 454 127 l 454 127 q 454 95 422 95 z m 280 424 l 280 424 q 248 424 248 456 l 248 456 q 248 487 280 487 l 280 487 q 311 487 311 456 l 311 456 q 311 424 280 424 z m 471 231 l 471 231 q 440 231 440 264 l 440 264 q 440 295 471 295 l 471 295 q 503 295 503 264 l 503 264 q 503 231 471 231 z m 422 369 l 422 369 q 390 369 390 401 l 390 401 q 390 432 422 432 l 422 432 q 454 432 454 401 l 454 401 q 454 369 422 369 z"},"«":{"ha":550,"x_min":33,"x_max":515,"o":"m 33 267 l 33 280 l 192 499 l 289 447 l 176 274 l 289 101 l 192 49 l 33 267 z m 259 267 l 259 280 l 419 499 l 515 447 l 403 274 l 515 101 l 419 49 l 259 267 z"},"»":{"ha":550,"x_min":35,"x_max":518,"o":"m 518 280 l 518 267 l 358 49 l 262 101 l 374 274 l 262 447 l 358 499 l 518 280 z m 291 280 l 291 267 l 131 49 l 35 101 l 147 274 l 35 447 l 131 499 l 291 280 z"},"̈":{"ha":0,"x_min":-148,"x_max":151,"o":"m -148 682 l -148 682 q -148 716 -130 733 q -112 749 -86 749 l -86 749 q -58 749 -40 732 q -23 715 -23 683 l -23 683 q -23 651 -40 634 q -58 617 -86 617 l -86 617 q -112 617 -130 634 q -148 651 -148 682 z m 25 682 l 25 682 q 25 716 43 733 q 61 749 88 749 l 88 749 q 116 749 134 732 q 151 715 151 683 l 151 683 q 151 651 134 634 q 116 617 88 617 l 88 617 q 60 617 43 634 q 25 651 25 682 z"},"̀":{"ha":0,"x_min":-439,"x_max":-195,"o":"m -439 766 l -286 766 q -275 745 -258 717 q -241 688 -224 662 q -207 636 -194 619 l -194 619 l -194 606 l -288 606 q -303 618 -324 638 q -345 657 -367 680 q -390 702 -409 723 q -428 743 -439 756 l -439 756 l -439 766 z"},"́":{"ha":0,"x_min":-308,"x_max":-64,"o":"m -63 766 l -63 756 q -74 742 -92 723 q -111 704 -132 683 q -153 661 -174 641 q -196 621 -214 606 l -214 606 l -308 606 l -308 619 q -291 643 -274 669 q -257 694 -242 719 q -228 744 -216 766 l -216 766 l -63 766 z"},"̋":{"ha":0,"x_min":-125,"x_max":247,"o":"m 247 766 l 247 756 q 240 742 224 722 q 208 702 188 681 q 167 659 146 640 q 125 621 109 606 l 109 606 l 39 606 l 39 619 q 55 646 71 674 q 87 702 100 726 q 112 750 119 766 l 119 766 l 247 766 z m 83 766 l 83 756 q 75 741 60 722 q 44 702 24 681 q 4 660 -18 641 q -40 622 -59 606 l -59 606 l -125 606 l -125 619 q -109 647 -94 675 q -79 702 -66 726 q -53 750 -45 766 l -45 766 l 83 766 z"},"̄":{"ha":0,"x_min":-145,"x_max":146,"o":"m -145 715 l 146 715 l 146 615 l -145 615 l -145 715 z"},"˙":{"ha":226,"x_min":40,"x_max":186,"o":"m 114 761 l 114 761 q 149 761 168 743 q 186 725 186 687 l 186 687 q 186 649 167 632 q 148 614 114 614 l 114 614 q 79 614 60 632 q 40 649 40 687 l 40 687 q 40 726 59 744 q 78 761 114 761 z"},"°":{"ha":384,"x_min":32,"x_max":351,"o":"m 192 419 l 192 419 q 146 419 110 439 q 73 458 53 492 q 32 526 32 571 l 32 571 q 32 617 53 651 q 74 685 110 705 q 146 724 192 724 l 192 724 q 239 724 275 705 q 310 686 331 652 q 351 617 351 571 l 351 571 q 351 526 331 492 q 310 457 274 438 q 238 419 192 419 z m 192 500 l 192 500 q 220 500 241 520 q 262 539 262 571 l 262 571 q 262 605 242 624 q 221 642 192 642 l 192 642 q 164 642 143 623 q 122 604 122 571 l 122 571 q 122 538 144 519 q 165 500 192 500 z"},"A":{"ha":574,"x_min":0,"x_max":574,"o":"m 574 0 l 424 0 l 385 173 l 190 173 l 151 0 l 0 0 l 198 715 l 374 715 l 574 0 z m 358 294 l 314 483 q 309 507 304 528 q 299 548 295 567 q 291 586 287 606 l 287 606 q 284 589 279 566 q 273 543 268 521 q 263 498 259 484 l 259 484 l 217 294 l 358 294 z"},"Á":{"ha":574,"x_min":0,"x_max":574,"o":"m 574 0 l 424 0 l 385 173 l 190 173 l 151 0 l 0 0 l 198 715 l 374 715 l 574 0 z m 358 294 l 314 483 q 309 507 304 528 q 299 548 295 567 q 291 586 287 606 l 287 606 q 284 589 279 566 q 273 543 268 521 q 263 498 259 484 l 259 484 l 217 294 l 358 294 z m 460 934 l 460 924 q 449 910 431 891 q 412 872 391 851 q 370 829 349 809 q 327 789 309 774 l 309 774 l 215 774 l 215 787 q 232 811 249 837 q 266 862 281 887 q 295 912 307 934 l 307 934 l 460 934 z"},"Ă":{"ha":574,"x_min":0,"x_max":574,"o":"m 574 0 l 424 0 l 385 173 l 190 173 l 151 0 l 0 0 l 198 715 l 374 715 l 574 0 z m 358 294 l 314 483 q 309 507 304 528 q 299 548 295 567 q 291 586 287 606 l 287 606 q 284 589 279 566 q 273 543 268 521 q 263 498 259 484 l 259 484 l 217 294 l 358 294 z m 375 939 l 454 939 q 453 891 430 853 q 406 815 369 795 q 332 774 286 774 l 286 774 q 216 774 170 818 q 123 861 121 939 l 121 939 l 200 939 q 201 914 213 900 q 224 885 244 880 q 264 874 287 874 l 287 874 q 308 874 328 880 q 348 886 362 900 q 375 914 375 939 l 375 939 z"},"Â":{"ha":574,"x_min":0,"x_max":574,"o":"m 574 0 l 424 0 l 385 173 l 190 173 l 151 0 l 0 0 l 198 715 l 374 715 l 574 0 z m 358 294 l 314 483 q 309 507 304 528 q 299 548 295 567 q 291 586 287 606 l 287 606 q 284 589 279 566 q 273 543 268 521 q 263 498 259 484 l 259 484 l 217 294 l 358 294 z m 212 934 l 363 934 q 375 912 392 887 q 409 861 429 836 q 448 810 466 787 l 466 787 l 466 774 l 383 774 q 363 790 336 812 q 309 833 287 861 l 287 861 q 264 833 237 811 q 210 788 192 774 l 192 774 l 108 774 l 108 787 q 125 807 145 834 q 164 860 183 888 q 202 915 212 934 l 212 934 z"},"Ä":{"ha":574,"x_min":0,"x_max":574,"o":"m 574 0 l 424 0 l 385 173 l 190 173 l 151 0 l 0 0 l 198 715 l 374 715 l 574 0 z m 358 294 l 314 483 q 309 507 304 528 q 299 548 295 567 q 291 586 287 606 l 287 606 q 284 589 279 566 q 273 543 268 521 q 263 498 259 484 l 259 484 l 217 294 l 358 294 z m 137 850 l 137 850 q 137 884 155 901 q 173 917 199 917 l 199 917 q 227 917 245 900 q 262 883 262 851 l 262 851 q 262 819 245 802 q 227 785 199 785 l 199 785 q 173 785 155 802 q 137 819 137 850 z m 310 850 l 310 850 q 310 884 328 901 q 346 917 373 917 l 373 917 q 401 917 419 900 q 436 883 436 851 l 436 851 q 436 819 419 802 q 401 785 373 785 l 373 785 q 345 785 328 802 q 310 819 310 850 z"},"À":{"ha":574,"x_min":0,"x_max":574,"o":"m 574 0 l 424 0 l 385 173 l 190 173 l 151 0 l 0 0 l 198 715 l 374 715 l 574 0 z m 358 294 l 314 483 q 309 507 304 528 q 299 548 295 567 q 291 586 287 606 l 287 606 q 284 589 279 566 q 273 543 268 521 q 263 498 259 484 l 259 484 l 217 294 l 358 294 z m 119 934 l 272 934 q 283 913 300 885 q 317 856 334 830 q 351 804 364 787 l 364 787 l 364 774 l 270 774 q 255 786 234 806 q 213 825 191 848 q 168 870 149 891 q 130 911 119 924 l 119 924 l 119 934 z"},"Ā":{"ha":574,"x_min":0,"x_max":574,"o":"m 574 0 l 424 0 l 385 173 l 190 173 l 151 0 l 0 0 l 198 715 l 374 715 l 574 0 z m 358 294 l 314 483 q 309 507 304 528 q 299 548 295 567 q 291 586 287 606 l 287 606 q 284 589 279 566 q 273 543 268 521 q 263 498 259 484 l 259 484 l 217 294 l 358 294 z m 141 883 l 432 883 l 432 783 l 141 783 l 141 883 z"},"Ą":{"ha":574,"x_min":0,"x_max":574,"o":"m 574 0 l 424 0 l 385 173 l 190 173 l 151 0 l 0 0 l 198 715 l 374 715 l 574 0 z m 358 294 l 314 483 q 309 507 304 528 q 299 548 295 567 q 291 586 287 606 l 287 606 q 284 589 279 566 q 273 543 268 521 q 263 498 259 484 l 259 484 l 217 294 l 358 294 z m 455 -110 l 455 -110 q 455 -129 466 -141 q 477 -154 495 -154 l 495 -154 q 510 -154 520 -151 q 530 -148 538 -145 l 538 -145 l 538 -230 q 526 -234 509 -237 q 492 -241 471 -241 l 471 -241 q 413 -241 384 -210 q 354 -180 354 -130 l 354 -130 q 354 -102 367 -75 q 380 -49 401 -26 q 422 -3 450 13 l 450 13 l 518 0 q 485 -33 470 -59 q 455 -85 455 -110 z"},"Å":{"ha":574,"x_min":0,"x_max":574,"o":"m 574 0 l 424 0 l 385 173 l 190 173 l 151 0 l 0 0 l 198 715 l 374 715 l 574 0 z m 358 294 l 314 483 q 309 507 304 528 q 299 548 295 567 q 291 586 287 606 l 287 606 q 284 589 279 566 q 273 543 268 521 q 263 498 259 484 l 259 484 l 217 294 l 358 294 z m 288 647 l 288 647 q 235 647 203 679 q 170 710 170 761 l 170 761 q 170 812 202 844 q 234 876 288 876 l 288 876 q 340 876 373 844 q 406 812 406 763 l 406 763 q 406 711 374 679 q 341 647 288 647 z m 288 716 l 288 716 q 308 716 321 729 q 334 741 334 762 l 334 762 q 334 782 322 795 q 309 808 288 808 l 288 808 q 268 808 255 795 q 242 782 242 761 l 242 761 q 242 740 254 728 q 265 716 288 716 z"},"Ã":{"ha":574,"x_min":0,"x_max":574,"o":"m 574 0 l 424 0 l 385 173 l 190 173 l 151 0 l 0 0 l 198 715 l 374 715 l 574 0 z m 358 294 l 314 483 q 309 507 304 528 q 299 548 295 567 q 291 586 287 606 l 287 606 q 284 589 279 566 q 273 543 268 521 q 263 498 259 484 l 259 484 l 217 294 l 358 294 z m 180 773 l 109 773 q 110 800 118 827 q 126 853 140 875 q 154 897 174 910 q 194 922 220 922 l 220 922 q 240 922 258 915 q 276 907 292 897 q 307 886 323 879 q 339 871 355 871 l 355 871 q 370 871 381 886 q 391 901 396 923 l 396 923 l 467 923 q 464 849 431 812 q 397 774 354 774 l 354 774 q 336 774 319 782 q 301 789 284 800 q 267 810 252 818 q 236 825 222 825 l 222 825 q 210 825 197 811 q 184 796 180 773 l 180 773 z"},"Æ":{"ha":792,"x_min":0,"x_max":740,"o":"m 740 119 l 740 0 l 374 0 l 374 173 l 197 173 l 140 0 l 0 0 l 249 714 l 740 714 l 740 596 l 512 596 l 512 430 l 725 430 l 725 311 l 512 311 l 512 119 l 740 119 z m 336 594 l 240 293 l 374 293 l 374 594 l 336 594 z"},"B":{"ha":575,"x_min":76,"x_max":528,"o":"m 76 714 l 267 714 q 385 714 450 675 q 514 635 514 534 l 514 534 q 514 497 505 464 q 495 430 475 408 q 454 386 421 379 l 421 379 l 421 374 q 459 365 483 344 q 506 323 517 290 q 528 256 528 208 l 528 208 q 528 144 502 98 q 475 51 424 26 q 373 0 302 0 l 302 0 l 76 0 l 76 714 z m 215 429 l 279 429 q 328 429 350 450 q 372 471 372 516 l 372 516 q 372 557 348 576 q 324 595 274 595 l 274 595 l 215 595 l 215 429 z m 284 313 l 215 313 l 215 121 l 289 121 q 339 121 362 146 q 385 171 385 221 l 385 221 q 385 252 375 273 q 364 293 342 303 q 319 313 284 313 l 284 313 z"},"C":{"ha":526,"x_min":50,"x_max":495,"o":"m 331 604 l 331 604 q 296 604 270 586 q 244 567 228 534 q 211 501 203 455 q 195 409 195 355 l 195 355 q 195 276 210 222 q 224 167 255 139 q 285 110 331 110 l 331 110 q 365 110 399 120 q 433 130 474 148 l 474 148 l 474 26 q 437 8 399 -1 q 361 -10 315 -10 l 315 -10 q 228 -10 169 34 q 110 77 80 159 q 50 241 50 356 l 50 356 q 50 436 68 504 q 86 571 121 621 q 156 670 207 697 q 257 724 322 724 l 322 724 q 368 724 411 711 q 454 698 495 676 l 495 676 l 454 559 q 422 579 391 592 q 359 604 331 604 z"},"Ć":{"ha":526,"x_min":50,"x_max":495,"o":"m 331 604 l 331 604 q 296 604 270 586 q 244 567 228 534 q 211 501 203 455 q 195 409 195 355 l 195 355 q 195 276 210 222 q 224 167 255 139 q 285 110 331 110 l 331 110 q 365 110 399 120 q 433 130 474 148 l 474 148 l 474 26 q 437 8 399 -1 q 361 -10 315 -10 l 315 -10 q 228 -10 169 34 q 110 77 80 159 q 50 241 50 356 l 50 356 q 50 436 68 504 q 86 571 121 621 q 156 670 207 697 q 257 724 322 724 l 322 724 q 368 724 411 711 q 454 698 495 676 l 495 676 l 454 559 q 422 579 391 592 q 359 604 331 604 z m 491 934 l 491 924 q 480 910 462 891 q 443 872 422 851 q 401 829 380 809 q 358 789 340 774 l 340 774 l 246 774 l 246 787 q 263 811 280 837 q 297 862 312 887 q 326 912 338 934 l 338 934 l 491 934 z"},"Č":{"ha":526,"x_min":50,"x_max":497,"o":"m 331 604 l 331 604 q 296 604 270 586 q 244 567 228 534 q 211 501 203 455 q 195 409 195 355 l 195 355 q 195 276 210 222 q 224 167 255 139 q 285 110 331 110 l 331 110 q 365 110 399 120 q 433 130 474 148 l 474 148 l 474 26 q 437 8 399 -1 q 361 -10 315 -10 l 315 -10 q 228 -10 169 34 q 110 77 80 159 q 50 241 50 356 l 50 356 q 50 436 68 504 q 86 571 121 621 q 156 670 207 697 q 257 724 322 724 l 322 724 q 368 724 411 711 q 454 698 495 676 l 495 676 l 454 559 q 422 579 391 592 q 359 604 331 604 z m 394 774 l 243 774 q 233 795 214 822 q 195 849 175 877 q 155 904 139 922 l 139 922 l 139 934 l 223 934 q 243 919 270 897 q 296 875 318 847 l 318 847 q 341 876 367 897 q 393 917 414 934 l 414 934 l 497 934 l 497 922 q 482 903 462 876 q 442 849 424 823 q 406 796 394 774 l 394 774 z"},"Ç":{"ha":526,"x_min":50,"x_max":495,"o":"m 331 604 l 331 604 q 296 604 270 586 q 244 567 228 534 q 211 501 203 455 q 195 409 195 355 l 195 355 q 195 276 210 222 q 224 167 255 139 q 285 110 331 110 l 331 110 q 365 110 399 120 q 433 130 474 148 l 474 148 l 474 26 q 437 8 399 -1 q 361 -10 315 -10 l 315 -10 q 228 -10 169 34 q 110 77 80 159 q 50 241 50 356 l 50 356 q 50 436 68 504 q 86 571 121 621 q 156 670 207 697 q 257 724 322 724 l 322 724 q 368 724 411 711 q 454 698 495 676 l 495 676 l 454 559 q 422 579 391 592 q 359 604 331 604 z m 409 -123 l 409 -123 q 409 -179 380 -209 q 350 -240 269 -240 l 269 -240 q 250 -240 235 -238 q 220 -236 205 -233 l 205 -233 l 205 -153 q 219 -157 238 -159 q 256 -162 268 -162 l 268 -162 q 281 -162 290 -154 q 299 -147 299 -131 l 299 -131 q 299 -113 283 -98 q 266 -84 224 -79 l 224 -79 l 261 0 l 345 0 l 331 -31 q 355 -37 373 -50 q 390 -64 400 -83 q 409 -102 409 -123 z"},"Ċ":{"ha":526,"x_min":50,"x_max":495,"o":"m 331 604 l 331 604 q 296 604 270 586 q 244 567 228 534 q 211 501 203 455 q 195 409 195 355 l 195 355 q 195 276 210 222 q 224 167 255 139 q 285 110 331 110 l 331 110 q 365 110 399 120 q 433 130 474 148 l 474 148 l 474 26 q 437 8 399 -1 q 361 -10 315 -10 l 315 -10 q 228 -10 169 34 q 110 77 80 159 q 50 241 50 356 l 50 356 q 50 436 68 504 q 86 571 121 621 q 156 670 207 697 q 257 724 322 724 l 322 724 q 368 724 411 711 q 454 698 495 676 l 495 676 l 454 559 q 422 579 391 592 q 359 604 331 604 z m 319 929 l 319 929 q 354 929 373 911 q 391 893 391 855 l 391 855 q 391 817 372 800 q 353 782 319 782 l 319 782 q 284 782 265 800 q 245 817 245 855 l 245 855 q 245 894 264 912 q 283 929 319 929 z"},"D":{"ha":619,"x_min":76,"x_max":569,"o":"m 569 365 l 569 365 q 569 247 532 166 q 495 84 422 42 q 349 0 243 0 l 243 0 l 76 0 l 76 714 l 259 714 q 354 714 424 674 q 493 634 531 557 q 569 479 569 365 z m 424 360 l 424 360 q 424 442 407 494 q 389 545 354 570 q 319 594 267 594 l 267 594 l 215 594 l 215 120 l 257 120 q 343 120 384 180 q 424 240 424 360 z"},"Ð":{"ha":619,"x_min":14,"x_max":569,"o":"m 74 714 l 258 714 q 354 714 424 674 q 493 634 531 557 q 569 480 569 364 l 569 364 q 569 247 532 166 q 495 84 422 42 q 349 0 243 0 l 243 0 l 74 0 l 74 310 l 14 310 l 14 418 l 74 418 l 74 714 z m 266 594 l 266 594 l 213 594 l 213 418 l 292 418 l 292 310 l 213 310 l 213 120 l 256 120 q 341 120 383 180 q 424 240 424 361 l 424 361 q 424 442 406 494 q 387 545 352 570 q 317 594 266 594 z"},"Ď":{"ha":619,"x_min":76,"x_max":569,"o":"m 569 365 l 569 365 q 569 247 532 166 q 495 84 422 42 q 349 0 243 0 l 243 0 l 76 0 l 76 714 l 259 714 q 354 714 424 674 q 493 634 531 557 q 569 479 569 365 z m 424 360 l 424 360 q 424 442 407 494 q 389 545 354 570 q 319 594 267 594 l 267 594 l 215 594 l 215 120 l 257 120 q 343 120 384 180 q 424 240 424 360 z m 383 774 l 232 774 q 222 795 203 822 q 184 849 164 877 q 144 904 128 922 l 128 922 l 128 934 l 212 934 q 232 919 259 897 q 285 875 307 847 l 307 847 q 330 876 356 897 q 382 917 403 934 l 403 934 l 486 934 l 486 922 q 471 903 451 876 q 431 849 413 823 q 395 796 383 774 l 383 774 z"},"Đ":{"ha":619,"x_min":14,"x_max":569,"o":"m 74 714 l 258 714 q 354 714 424 674 q 493 634 531 557 q 569 480 569 364 l 569 364 q 569 247 532 166 q 495 84 422 42 q 349 0 243 0 l 243 0 l 74 0 l 74 310 l 14 310 l 14 418 l 74 418 l 74 714 z m 266 594 l 266 594 l 213 594 l 213 418 l 292 418 l 292 310 l 213 310 l 213 120 l 256 120 q 341 120 383 180 q 424 240 424 361 l 424 361 q 424 442 406 494 q 387 545 352 570 q 317 594 266 594 z"},"E":{"ha":473,"x_min":76,"x_max":421,"o":"m 421 119 l 421 0 l 76 0 l 76 714 l 421 714 l 421 596 l 215 596 l 215 430 l 407 430 l 407 311 l 215 311 l 215 119 l 421 119 z"},"É":{"ha":473,"x_min":76,"x_max":423,"o":"m 421 119 l 421 0 l 76 0 l 76 714 l 421 714 l 421 596 l 215 596 l 215 430 l 407 430 l 407 311 l 215 311 l 215 119 l 421 119 z m 424 934 l 424 924 q 413 910 395 891 q 376 872 355 851 q 334 829 313 809 q 291 789 273 774 l 273 774 l 179 774 l 179 787 q 196 811 213 837 q 230 862 245 887 q 259 912 271 934 l 271 934 l 424 934 z"},"Ě":{"ha":473,"x_min":72,"x_max":430,"o":"m 421 119 l 421 0 l 76 0 l 76 714 l 421 714 l 421 596 l 215 596 l 215 430 l 407 430 l 407 311 l 215 311 l 215 119 l 421 119 z m 327 774 l 176 774 q 166 795 147 822 q 128 849 108 877 q 88 904 72 922 l 72 922 l 72 934 l 156 934 q 176 919 203 897 q 229 875 251 847 l 251 847 q 274 876 300 897 q 326 917 347 934 l 347 934 l 430 934 l 430 922 q 415 903 395 876 q 375 849 357 823 q 339 796 327 774 l 327 774 z"},"Ê":{"ha":473,"x_min":72,"x_max":430,"o":"m 421 119 l 421 0 l 76 0 l 76 714 l 421 714 l 421 596 l 215 596 l 215 430 l 407 430 l 407 311 l 215 311 l 215 119 l 421 119 z m 176 934 l 327 934 q 339 912 356 887 q 373 861 393 836 q 412 810 430 787 l 430 787 l 430 774 l 347 774 q 327 790 300 812 q 273 833 251 861 l 251 861 q 228 833 201 811 q 174 788 156 774 l 156 774 l 72 774 l 72 787 q 89 807 109 834 q 128 860 147 888 q 166 915 176 934 l 176 934 z"},"Ë":{"ha":473,"x_min":76,"x_max":421,"o":"m 421 119 l 421 0 l 76 0 l 76 714 l 421 714 l 421 596 l 215 596 l 215 430 l 407 430 l 407 311 l 215 311 l 215 119 l 421 119 z m 101 850 l 101 850 q 101 884 119 901 q 137 917 163 917 l 163 917 q 191 917 209 900 q 226 883 226 851 l 226 851 q 226 819 209 802 q 191 785 163 785 l 163 785 q 137 785 119 802 q 101 819 101 850 z m 274 850 l 274 850 q 274 884 292 901 q 310 917 337 917 l 337 917 q 365 917 383 900 q 400 883 400 851 l 400 851 q 400 819 383 802 q 365 785 337 785 l 337 785 q 309 785 292 802 q 274 819 274 850 z"},"Ė":{"ha":473,"x_min":76,"x_max":421,"o":"m 421 119 l 421 0 l 76 0 l 76 714 l 421 714 l 421 596 l 215 596 l 215 430 l 407 430 l 407 311 l 215 311 l 215 119 l 421 119 z m 252 929 l 252 929 q 287 929 306 911 q 324 893 324 855 l 324 855 q 324 817 305 800 q 286 782 252 782 l 252 782 q 217 782 198 800 q 178 817 178 855 l 178 855 q 178 894 197 912 q 216 929 252 929 z"},"È":{"ha":473,"x_min":76,"x_max":421,"o":"m 421 119 l 421 0 l 76 0 l 76 714 l 421 714 l 421 596 l 215 596 l 215 430 l 407 430 l 407 311 l 215 311 l 215 119 l 421 119 z m 83 934 l 236 934 q 247 913 264 885 q 281 856 298 830 q 315 804 328 787 l 328 787 l 328 774 l 234 774 q 219 786 198 806 q 177 825 155 848 q 132 870 113 891 q 94 911 83 924 l 83 924 l 83 934 z"},"Ē":{"ha":473,"x_min":76,"x_max":421,"o":"m 421 119 l 421 0 l 76 0 l 76 714 l 421 714 l 421 596 l 215 596 l 215 430 l 407 430 l 407 311 l 215 311 l 215 119 l 421 119 z m 105 883 l 396 883 l 396 783 l 105 783 l 105 883 z"},"Ę":{"ha":473,"x_min":76,"x_max":423,"o":"m 421 119 l 421 0 l 76 0 l 76 714 l 421 714 l 421 596 l 215 596 l 215 430 l 407 430 l 407 311 l 215 311 l 215 119 l 421 119 z m 339 -110 l 339 -110 q 339 -129 350 -141 q 361 -154 379 -154 l 379 -154 q 394 -154 404 -151 q 414 -148 422 -145 l 422 -145 l 422 -230 q 410 -234 393 -237 q 376 -241 355 -241 l 355 -241 q 297 -241 268 -210 q 238 -180 238 -130 l 238 -130 q 238 -102 251 -75 q 264 -49 285 -26 q 306 -3 334 13 l 334 13 l 402 0 q 369 -33 354 -59 q 339 -85 339 -110 z"},"F":{"ha":467,"x_min":76,"x_max":419,"o":"m 215 285 l 215 0 l 76 0 l 76 714 l 419 714 l 419 596 l 215 596 l 215 403 l 405 403 l 405 285 l 215 285 z"},"G":{"ha":611,"x_min":50,"x_max":546,"o":"m 305 279 l 305 401 l 545 401 l 545 30 q 493 11 442 1 q 390 -10 328 -10 l 328 -10 q 235 -10 173 35 q 110 79 80 162 q 50 244 50 359 l 50 359 q 50 470 87 552 q 123 634 194 679 q 265 724 367 724 l 367 724 q 415 724 462 712 q 508 700 546 679 l 546 679 l 503 565 q 475 583 441 594 q 407 604 370 604 l 370 604 q 319 604 280 576 q 240 548 218 493 q 195 437 195 355 l 195 355 q 195 284 208 229 q 221 174 252 142 q 282 110 332 110 l 332 110 q 357 110 373 113 q 388 115 405 120 l 405 120 l 405 279 l 305 279 z"},"Ğ":{"ha":611,"x_min":50,"x_max":546,"o":"m 305 279 l 305 401 l 545 401 l 545 30 q 493 11 442 1 q 390 -10 328 -10 l 328 -10 q 235 -10 173 35 q 110 79 80 162 q 50 244 50 359 l 50 359 q 50 470 87 552 q 123 634 194 679 q 265 724 367 724 l 367 724 q 415 724 462 712 q 508 700 546 679 l 546 679 l 503 565 q 475 583 441 594 q 407 604 370 604 l 370 604 q 319 604 280 576 q 240 548 218 493 q 195 437 195 355 l 195 355 q 195 284 208 229 q 221 174 252 142 q 282 110 332 110 l 332 110 q 357 110 373 113 q 388 115 405 120 l 405 120 l 405 279 l 305 279 z m 431 939 l 510 939 q 509 891 486 853 q 462 815 425 795 q 388 774 342 774 l 342 774 q 272 774 226 818 q 179 861 177 939 l 177 939 l 256 939 q 257 914 269 900 q 280 885 300 880 q 320 874 343 874 l 343 874 q 364 874 384 880 q 404 886 418 900 q 431 914 431 939 l 431 939 z"},"Ģ":{"ha":611,"x_min":50,"x_max":546,"o":"m 305 279 l 305 401 l 545 401 l 545 30 q 493 11 442 1 q 390 -10 328 -10 l 328 -10 q 235 -10 173 35 q 110 79 80 162 q 50 244 50 359 l 50 359 q 50 470 87 552 q 123 634 194 679 q 265 724 367 724 l 367 724 q 415 724 462 712 q 508 700 546 679 l 546 679 l 503 565 q 475 583 441 594 q 407 604 370 604 l 370 604 q 319 604 280 576 q 240 548 218 493 q 195 437 195 355 l 195 355 q 195 284 208 229 q 221 174 252 142 q 282 110 332 110 l 332 110 q 357 110 373 113 q 388 115 405 120 l 405 120 l 405 279 l 305 279 z m 419 -61 l 419 -71 q 410 -94 399 -119 q 388 -145 376 -170 q 363 -196 349 -221 l 349 -221 l 265 -221 l 265 -208 q 269 -190 274 -163 q 279 -137 284 -109 q 288 -82 290 -61 l 290 -61 l 419 -61 z"}}}
